<svg width="32" height="32" viewBox="0 0 32 32" fill="none" xmlns="http://www.w3.org/2000/svg">
<path d="M16.6158 8.41295C16.6158 8.7536 16.34 9.02942 15.9993 9.02942C15.6587 9.02942 15.3829 8.7536 15.3829 8.41295C15.3829 8.0723 15.6587 7.79648 15.9993 7.79648C16.34 7.79648 16.6158 8.0723 16.6158 8.41295ZM18.3976 8.41295C18.3976 7.08868 17.3236 6.0147 15.9993 6.0147C14.675 6.0147 13.6011 7.08868 13.6011 8.41295C13.6011 9.73723 14.675 10.8112 15.9993 10.8112C17.3236 10.8112 18.3976 9.73723 18.3976 8.41295Z" fill="#1E3A8A"/>
<path d="M12.0942 14.4426V15.1431C12.0942 15.6349 12.4933 16.034 12.9851 16.034C13.4769 16.034 13.876 15.6349 13.876 15.1431V14.4426C13.876 13.2694 14.8267 12.3178 15.9998 12.3178C17.173 12.3178 18.1237 13.2694 18.1237 14.4426V15.1431C18.1237 15.6349 18.5228 16.034 19.0146 16.034C19.5064 16.034 19.9055 15.6349 19.9055 15.1431V14.4426C19.9055 12.2858 18.1566 10.537 15.9998 10.537C13.8431 10.537 12.0942 12.2858 12.0942 14.4426Z" fill="#1E3A8A"/>
<path d="M21.1385 9.92033C21.1385 12.7585 18.8381 15.0589 15.9999 15.0589C13.1618 15.0589 10.8614 12.7585 10.8614 9.92033C10.8614 7.08218 13.1618 4.78178 15.9999 4.78178C18.8381 4.78178 21.1385 7.08218 21.1385 9.92033ZM22.9202 9.92033C22.9202 6.09856 19.8217 3 15.9999 3C12.1781 3 9.07959 6.09856 9.07959 9.92033C9.07959 13.7421 12.1781 16.8407 15.9999 16.8407C19.8217 16.8407 22.9202 13.7421 22.9202 9.92033Z" fill="#1E3A8A"/>
<path d="M9.97055 25.9853C10.4624 25.9853 10.8614 25.5862 10.8614 25.0944V22.0797C10.8614 21.5879 10.4624 21.1888 9.97055 21.1888H6.95583C6.46402 21.1888 6.06494 21.5879 6.06494 22.0797V25.0944C6.06494 25.5862 6.46402 25.9853 6.95583 25.9853H9.97055ZM7.84672 22.9706H9.07966V24.2035H7.84672V22.9706Z" fill="#1E3A8A"/>
<path d="M17.5072 25.9853C17.999 25.9853 18.3981 25.5862 18.3981 25.0944V22.0797C18.3981 21.5879 17.999 21.1888 17.5072 21.1888H14.4925C14.0006 21.1888 13.6016 21.5879 13.6016 22.0797V25.0944C13.6016 25.5862 14.0006 25.9853 14.4925 25.9853H17.5072ZM15.3833 22.9706H16.6163V24.2035H15.3833V22.9706Z" fill="#1E3A8A"/>
<path d="M25.0443 25.9853C25.5361 25.9853 25.9352 25.5862 25.9352 25.0944V22.0797C25.9352 21.5879 25.5361 21.1888 25.0443 21.1888H22.0296C21.5377 21.1888 21.1387 21.5879 21.1387 22.0797V25.0944C21.1387 25.5862 21.5377 25.9853 22.0296 25.9853H25.0443ZM22.9204 22.9706H24.1534V24.2035H22.9204V22.9706Z" fill="#1E3A8A"/>
<path d="M7.57178 25.0944V28.1091C7.57178 28.6009 7.97085 29 8.46267 29C8.95448 29 9.35355 28.6009 9.35355 28.1091V25.0944C9.35355 24.6026 8.95448 24.2035 8.46267 24.2035C7.97085 24.2035 7.57178 24.6026 7.57178 25.0944Z" fill="#1E3A8A"/>
<path d="M7.57178 22.0797C7.57178 22.5715 7.97085 22.9706 8.46267 22.9706C8.95448 22.9706 9.35355 22.5715 9.35355 22.0797V19.9558H22.6454V22.0797C22.6454 22.5715 23.0444 22.9706 23.5363 22.9706C24.0281 22.9706 24.4271 22.5715 24.4271 22.0797V19.065C24.4271 18.5731 24.0281 18.1741 23.5363 18.1741H8.46267C7.97085 18.1741 7.57178 18.5731 7.57178 19.065V22.0797Z" fill="#1E3A8A"/>
<path d="M22.646 25.0944V28.1091C22.646 28.6009 23.0451 29 23.5369 29C24.0287 29 24.4278 28.6009 24.4278 28.1091V25.0944C24.4278 24.6026 24.0287 24.2035 23.5369 24.2035C23.0451 24.2035 22.646 24.6026 22.646 25.0944Z" fill="#1E3A8A"/>
<path d="M15.1089 15.9497V22.0797C15.1089 22.5715 15.508 22.9705 15.9998 22.9705C16.4916 22.9705 16.8907 22.5715 16.8907 22.0797V15.9497C16.8907 15.4579 16.4916 15.0588 15.9998 15.0588C15.508 15.0588 15.1089 15.4579 15.1089 15.9497Z" fill="#1E3A8A"/>
<path d="M15.1089 25.0944V28.1091C15.1089 28.6009 15.508 29 15.9998 29C16.4916 29 16.8907 28.6009 16.8907 28.1091V25.0944C16.8907 24.6026 16.4916 24.2035 15.9998 24.2035C15.508 24.2035 15.1089 24.6026 15.1089 25.0944Z" fill="#1E3A8A"/>
</svg>
