<svg width="14" height="15" viewBox="0 0 14 15" fill="none" xmlns="http://www.w3.org/2000/svg">
<path d="M12.625 1.25H10.9375V0.6875C10.9375 0.538316 10.8782 0.395242 10.7727 0.289752C10.6673 0.184263 10.5242 0.125 10.375 0.125C10.2258 0.125 10.0827 0.184263 9.97725 0.289752C9.87176 0.395242 9.8125 0.538316 9.8125 0.6875V1.25H4.1875V0.6875C4.1875 0.538316 4.12824 0.395242 4.02275 0.289752C3.91726 0.184263 3.77418 0.125 3.625 0.125C3.47582 0.125 3.33274 0.184263 3.22725 0.289752C3.12176 0.395242 3.0625 0.538316 3.0625 0.6875V1.25H1.375C1.07663 1.25 0.790483 1.36853 0.579505 1.5795C0.368526 1.79048 0.25 2.07663 0.25 2.375V13.625C0.25 13.9234 0.368526 14.2095 0.579505 14.4205C0.790483 14.6315 1.07663 14.75 1.375 14.75H12.625C12.9234 14.75 13.2095 14.6315 13.4205 14.4205C13.6315 14.2095 13.75 13.9234 13.75 13.625V2.375C13.75 2.07663 13.6315 1.79048 13.4205 1.5795C13.2095 1.36853 12.9234 1.25 12.625 1.25ZM3.0625 2.375V2.9375C3.0625 3.08668 3.12176 3.22976 3.22725 3.33525C3.33274 3.44074 3.47582 3.5 3.625 3.5C3.77418 3.5 3.91726 3.44074 4.02275 3.33525C4.12824 3.22976 4.1875 3.08668 4.1875 2.9375V2.375H9.8125V2.9375C9.8125 3.08668 9.87176 3.22976 9.97725 3.33525C10.0827 3.44074 10.2258 3.5 10.375 3.5C10.5242 3.5 10.6673 3.44074 10.7727 3.33525C10.8782 3.22976 10.9375 3.08668 10.9375 2.9375V2.375H12.625V4.625H1.375V2.375H3.0625ZM12.625 13.625H1.375V5.75H12.625V13.625ZM7.84375 8.28125C7.84375 8.44813 7.79426 8.61126 7.70155 8.75001C7.60884 8.88877 7.47706 8.99691 7.32289 9.06077C7.16871 9.12463 6.99906 9.14134 6.83539 9.10879C6.67172 9.07623 6.52138 8.99587 6.40338 8.87787C6.28538 8.75987 6.20502 8.60953 6.17246 8.44586C6.13991 8.28219 6.15662 8.11254 6.22048 7.95836C6.28434 7.80419 6.39248 7.67241 6.53124 7.5797C6.66999 7.48698 6.83312 7.4375 7 7.4375C7.22378 7.4375 7.43839 7.52639 7.59662 7.68463C7.75485 7.84286 7.84375 8.05747 7.84375 8.28125ZM10.9375 8.28125C10.9375 8.44813 10.888 8.61126 10.7953 8.75001C10.7026 8.88877 10.5708 8.99691 10.4166 9.06077C10.2625 9.12463 10.0928 9.14134 9.92914 9.10879C9.76547 9.07623 9.61513 8.99587 9.49713 8.87787C9.37913 8.75987 9.29877 8.60953 9.26621 8.44586C9.23366 8.28219 9.25037 8.11254 9.31423 7.95836C9.37809 7.80419 9.48623 7.67241 9.62499 7.5797C9.76374 7.48698 9.92687 7.4375 10.0938 7.4375C10.3175 7.4375 10.5321 7.52639 10.6904 7.68463C10.8486 7.84286 10.9375 8.05747 10.9375 8.28125ZM4.75 11.0938C4.75 11.2606 4.70052 11.4238 4.6078 11.5625C4.51509 11.7013 4.38331 11.8094 4.22914 11.8733C4.07496 11.9371 3.90531 11.9538 3.74164 11.9213C3.57797 11.8887 3.42763 11.8084 3.30963 11.6904C3.19163 11.5724 3.11127 11.422 3.07871 11.2584C3.04616 11.0947 3.06287 10.925 3.12673 10.7709C3.19059 10.6167 3.29873 10.4849 3.43749 10.3922C3.57624 10.2995 3.73937 10.25 3.90625 10.25C4.13003 10.25 4.34464 10.3389 4.50287 10.4971C4.66111 10.6554 4.75 10.87 4.75 11.0938ZM7.84375 11.0938C7.84375 11.2606 7.79426 11.4238 7.70155 11.5625C7.60884 11.7013 7.47706 11.8094 7.32289 11.8733C7.16871 11.9371 6.99906 11.9538 6.83539 11.9213C6.67172 11.8887 6.52138 11.8084 6.40338 11.6904C6.28538 11.5724 6.20502 11.422 6.17246 11.2584C6.13991 11.0947 6.15662 10.925 6.22048 10.7709C6.28434 10.6167 6.39248 10.4849 6.53124 10.3922C6.66999 10.2995 6.83312 10.25 7 10.25C7.22378 10.25 7.43839 10.3389 7.59662 10.4971C7.75485 10.6554 7.84375 10.87 7.84375 11.0938ZM10.9375 11.0938C10.9375 11.2606 10.888 11.4238 10.7953 11.5625C10.7026 11.7013 10.5708 11.8094 10.4166 11.8733C10.2625 11.9371 10.0928 11.9538 9.92914 11.9213C9.76547 11.8887 9.61513 11.8084 9.49713 11.6904C9.37913 11.5724 9.29877 11.422 9.26621 11.2584C9.23366 11.0947 9.25037 10.925 9.31423 10.7709C9.37809 10.6167 9.48623 10.4849 9.62499 10.3922C9.76374 10.2995 9.92687 10.25 10.0938 10.25C10.3175 10.25 10.5321 10.3389 10.6904 10.4971C10.8486 10.6554 10.9375 10.87 10.9375 11.0938Z" fill="#1E3A8A"/>
</svg>
