<svg width="71" height="16" viewBox="0 0 71 16" fill="none" xmlns="http://www.w3.org/2000/svg">
<path d="M7.012 12L10.84 3.54H12.1L15.928 12H14.368L13.348 9.624L13.996 10.044H8.932L9.58 9.624L8.572 12H7.012ZM11.452 5.208L9.772 9.204L9.46 8.82H13.468L13.168 9.204L11.476 5.208H11.452ZM19.3631 12.12C18.7471 12.12 18.2111 11.996 17.7551 11.748C17.2991 11.492 16.9471 11.132 16.6991 10.668C16.4511 10.204 16.3271 9.66 16.3271 9.036C16.3271 8.412 16.4511 7.876 16.6991 7.428C16.9471 6.972 17.2991 6.624 17.7551 6.384C18.2111 6.136 18.7471 6.012 19.3631 6.012C19.7391 6.012 20.1111 6.072 20.4791 6.192C20.8471 6.312 21.1511 6.48 21.3911 6.696L20.9471 7.74C20.7391 7.556 20.5031 7.416 20.2391 7.32C19.9831 7.224 19.7351 7.176 19.4951 7.176C18.9751 7.176 18.5711 7.34 18.2831 7.668C18.0031 7.988 17.8631 8.448 17.8631 9.048C17.8631 9.64 18.0031 10.108 18.2831 10.452C18.5711 10.788 18.9751 10.956 19.4951 10.956C19.7271 10.956 19.9751 10.908 20.2391 10.812C20.5031 10.716 20.7391 10.572 20.9471 10.38L21.3911 11.436C21.1511 11.644 20.8431 11.812 20.4671 11.94C20.0991 12.06 19.7311 12.12 19.3631 12.12ZM25.0227 12.12C24.2387 12.12 23.6547 11.924 23.2707 11.532C22.8867 11.14 22.6947 10.568 22.6947 9.816V7.26H21.5667V6.132H22.6947V4.38H24.1947V6.132H25.9707V7.26H24.1947V9.732C24.1947 10.116 24.2787 10.404 24.4467 10.596C24.6147 10.788 24.8867 10.884 25.2627 10.884C25.3747 10.884 25.4907 10.872 25.6107 10.848C25.7307 10.816 25.8547 10.784 25.9827 10.752L26.2107 11.856C26.0667 11.936 25.8827 12 25.6587 12.048C25.4427 12.096 25.2307 12.12 25.0227 12.12ZM26.8442 4.872V3.408H28.5242V4.872H26.8442ZM26.9402 12V6.132H28.4402V12H26.9402ZM32.6748 12.12C32.0668 12.12 31.5388 11.996 31.0908 11.748C30.6428 11.5 30.2948 11.148 30.0468 10.692C29.7988 10.228 29.6748 9.684 29.6748 9.06C29.6748 8.436 29.7988 7.896 30.0468 7.44C30.2948 6.984 30.6428 6.632 31.0908 6.384C31.5388 6.136 32.0668 6.012 32.6748 6.012C33.2828 6.012 33.8108 6.136 34.2588 6.384C34.7068 6.632 35.0548 6.984 35.3028 7.44C35.5508 7.896 35.6748 8.436 35.6748 9.06C35.6748 9.684 35.5508 10.228 35.3028 10.692C35.0548 11.148 34.7068 11.5 34.2588 11.748C33.8108 11.996 33.2828 12.12 32.6748 12.12ZM32.6748 10.98C33.1228 10.98 33.4828 10.82 33.7548 10.5C34.0268 10.172 34.1628 9.692 34.1628 9.06C34.1628 8.42 34.0268 7.944 33.7548 7.632C33.4828 7.312 33.1228 7.152 32.6748 7.152C32.2268 7.152 31.8668 7.312 31.5948 7.632C31.3228 7.944 31.1868 8.42 31.1868 9.06C31.1868 9.692 31.3228 10.172 31.5948 10.5C31.8668 10.82 32.2268 10.98 32.6748 10.98ZM36.9128 12V6.132H38.3768V7.308H38.2448C38.4208 6.884 38.6928 6.564 39.0608 6.348C39.4368 6.124 39.8608 6.012 40.3328 6.012C40.8048 6.012 41.1928 6.1 41.4968 6.276C41.8008 6.452 42.0288 6.72 42.1808 7.08C42.3328 7.432 42.4088 7.88 42.4088 8.424V12H40.9088V8.496C40.9088 8.192 40.8688 7.944 40.7888 7.752C40.7168 7.56 40.6008 7.42 40.4408 7.332C40.2888 7.236 40.0928 7.188 39.8528 7.188C39.5648 7.188 39.3128 7.252 39.0968 7.38C38.8808 7.5 38.7128 7.676 38.5928 7.908C38.4728 8.132 38.4128 8.396 38.4128 8.7V12H36.9128ZM46.0803 12.12C45.7523 12.12 45.4323 12.092 45.1203 12.036C44.8163 11.98 44.5363 11.904 44.2803 11.808C44.0243 11.704 43.8003 11.576 43.6083 11.424L43.9923 10.44C44.1923 10.568 44.4083 10.68 44.6403 10.776C44.8723 10.872 45.1123 10.944 45.3603 10.992C45.6083 11.04 45.8523 11.064 46.0923 11.064C46.4763 11.064 46.7603 11 46.9443 10.872C47.1363 10.736 47.2323 10.56 47.2323 10.344C47.2323 10.16 47.1683 10.02 47.0403 9.924C46.9203 9.82 46.7363 9.744 46.4883 9.696L45.2883 9.468C44.7923 9.372 44.4123 9.192 44.1483 8.928C43.8923 8.656 43.7643 8.308 43.7643 7.884C43.7643 7.5 43.8683 7.168 44.0763 6.888C44.2923 6.608 44.5883 6.392 44.9643 6.24C45.3403 6.088 45.7723 6.012 46.2603 6.012C46.5403 6.012 46.8123 6.04 47.0763 6.096C47.3403 6.144 47.5883 6.22 47.8203 6.324C48.0603 6.42 48.2683 6.548 48.4443 6.708L48.0363 7.692C47.8843 7.564 47.7083 7.456 47.5083 7.368C47.3083 7.272 47.1003 7.2 46.8843 7.152C46.6763 7.096 46.4723 7.068 46.2723 7.068C45.8803 7.068 45.5883 7.136 45.3963 7.272C45.2123 7.408 45.1203 7.588 45.1203 7.812C45.1203 7.98 45.1763 8.12 45.2883 8.232C45.4003 8.344 45.5723 8.42 45.8043 8.46L47.0043 8.688C47.5243 8.784 47.9163 8.96 48.1803 9.216C48.4523 9.472 48.5883 9.816 48.5883 10.248C48.5883 10.64 48.4843 10.976 48.2763 11.256C48.0683 11.536 47.7763 11.752 47.4003 11.904C47.0243 12.048 46.5843 12.12 46.0803 12.12Z" fill="#434343"/>
<path d="M59 6L63 10L67 6" stroke="#434343" stroke-width="1.25" stroke-linecap="round" stroke-linejoin="round"/>
</svg>
