<svg width="29" height="28" viewBox="0 0 29 28" fill="none" xmlns="http://www.w3.org/2000/svg">
<path d="M14.5 20.5333L12.5036 19.5879C11.7061 19.2079 11.0322 18.6103 10.5597 17.8638C10.0873 17.1174 9.83545 16.2526 9.83333 15.3692V9.33333H19.1667V15.3701C19.1646 16.2535 18.9127 17.1183 18.4403 17.8648C17.9678 18.6112 17.2939 19.2089 16.4964 19.5888L14.5 20.5333ZM11.7 11.2V15.3701C11.7014 15.8999 11.8527 16.4185 12.1362 16.8661C12.4198 17.3136 12.8241 17.6719 13.3025 17.8995L14.5 18.4669L15.6975 17.9004C16.176 17.6727 16.5805 17.3144 16.864 16.8666C17.1476 16.4189 17.2987 15.9001 17.3 15.3701V11.2H11.7ZM3.412 15.5456C3.67886 15.3652 3.89451 15.1189 4.03797 14.8305C4.18143 14.5421 4.24782 14.2214 4.23069 13.8998C4.21356 13.5781 4.11348 13.2664 3.9402 12.9949C3.76692 12.7233 3.52632 12.5013 3.2418 12.3503C2.95729 12.1993 2.63854 12.1244 2.31655 12.1331C1.99456 12.1417 1.68028 12.2336 1.40428 12.3996C1.12828 12.5657 0.899953 12.8004 0.741495 13.0808C0.583036 13.3612 0.499842 13.6779 0.5 14C0.5 14.7364 0.929334 15.3664 1.54907 15.6707C1.85901 18.129 2.864 20.4479 4.446 22.3549C6.02801 24.262 8.12134 25.678 10.4801 26.4367L11.0532 24.6596C9.04958 24.016 7.26892 22.8186 5.91696 21.2059C4.56499 19.5931 3.69596 17.6308 3.412 15.5456ZM26.9376 18.0208L25.1605 17.4459C24.5171 19.4497 23.3198 21.2305 21.707 22.5827C20.0943 23.9348 18.1319 24.803 16.0465 25.0871C15.8661 24.8204 15.6197 24.605 15.3313 24.4617C15.043 24.3184 14.7224 24.2521 14.4009 24.2693C14.0794 24.2865 13.7678 24.3866 13.4963 24.5599C13.2249 24.7331 13.0029 24.9736 12.8519 25.258C12.7009 25.5424 12.6261 25.861 12.6346 26.1829C12.6432 26.5048 12.7349 26.819 12.9007 27.095C13.0666 27.3709 13.3011 27.5993 13.5813 27.7579C13.8615 27.9165 14.178 27.9999 14.5 28C15.2364 28 15.8664 27.5707 16.1707 26.9509C18.6289 26.6411 20.9477 25.6362 22.8547 24.0544C24.7617 22.4726 26.1788 20.3794 26.9376 18.0208ZM27.4509 12.3293C27.141 9.87099 26.136 7.55212 24.554 5.64509C22.972 3.73805 20.8787 2.32203 18.5199 1.56333L17.9468 3.3404C19.9504 3.98402 21.7311 5.18136 23.083 6.79411C24.435 8.40685 25.3031 10.3692 25.5871 12.4544C25.3204 12.6349 25.1049 12.8813 24.9616 13.1697C24.8183 13.4581 24.7521 13.7787 24.7693 14.1003C24.7866 14.4218 24.8867 14.7335 25.0601 15.0049C25.2334 15.2763 25.4739 15.4983 25.7584 15.6492C26.0429 15.8002 26.3616 15.8749 26.6835 15.8663C27.0054 15.8576 27.3196 15.7658 27.5956 15.5998C27.8715 15.4338 28.0998 15.1993 28.2583 14.9189C28.4168 14.6386 28.5 14.322 28.5 14C28.4998 13.6512 28.4014 13.3095 28.216 13.0141C28.0306 12.7186 27.7658 12.4813 27.4519 12.3293M14.5 2.22607e-08C13.7636 2.22607e-08 13.1336 0.429333 12.8293 1.04907C10.3711 1.35893 8.05231 2.36379 6.14529 3.94562C4.23826 5.52745 2.82218 7.62058 2.06333 9.9792L3.8404 10.5541C4.48387 8.55033 5.68115 6.76948 7.29391 5.41735C8.90666 4.06521 10.8691 3.19696 12.9544 2.91293C13.1349 3.17963 13.3813 3.39509 13.6697 3.53837C13.9581 3.68166 14.2787 3.7479 14.6003 3.73065C14.9218 3.71341 15.2335 3.61326 15.5049 3.43995C15.7763 3.26664 15.9983 3.02606 16.1492 2.74159C16.3002 2.45712 16.3749 2.13844 16.3663 1.81652C16.3576 1.4946 16.2658 1.1804 16.0998 0.904446C15.9338 0.628494 15.6993 0.400181 15.4189 0.241697C15.1386 0.0832137 14.822 -4.97048e-05 14.5 2.22607e-08Z" fill="#8DD3A0"/>
</svg>
