<svg width="24" height="24" viewBox="0 0 24 24" fill="none" xmlns="http://www.w3.org/2000/svg">
<path d="M23.6129 20.9032H23.2258V17.4194C23.2258 17.3167 23.185 17.2182 23.1124 17.1456C23.0398 17.073 22.9414 17.0323 22.8387 17.0323H20.5161C20.4135 17.0323 20.315 17.073 20.2424 17.1456C20.1698 17.2182 20.129 17.3167 20.129 17.4194V20.9032H19.3548V17.4194C19.3548 17.3167 19.3141 17.2182 19.2415 17.1456C19.1689 17.073 19.0704 17.0323 18.9677 17.0323H16.6452C16.5425 17.0323 16.444 17.073 16.3714 17.1456C16.2988 17.2182 16.2581 17.3167 16.2581 17.4194V20.9032H15.4839V13.5484C15.4839 13.4457 15.4431 13.3473 15.3705 13.2747C15.2979 13.2021 15.1994 13.1613 15.0968 13.1613H12.7742C12.6715 13.1613 12.5731 13.2021 12.5005 13.2747C12.4279 13.3473 12.3871 13.4457 12.3871 13.5484V20.9032H11.6129V15.0968C11.6129 14.9941 11.5721 14.8956 11.4995 14.8231C11.4269 14.7505 11.3285 14.7097 11.2258 14.7097H8.90323C8.80056 14.7097 8.7021 14.7505 8.62951 14.8231C8.55691 14.8956 8.51613 14.9941 8.51613 15.0968V20.9032H7.74194V11.2258C7.74194 11.1231 7.70115 11.0247 7.62856 10.9521C7.55596 10.8795 7.4575 10.8387 7.35484 10.8387H5.03226C4.92959 10.8387 4.83113 10.8795 4.75854 10.9521C4.68594 11.0247 4.64516 11.1231 4.64516 11.2258V20.9032H3.09677V0.387097C3.09677 0.284432 3.05599 0.185973 2.9834 0.113378C2.9108 0.0407833 2.81234 0 2.70968 0H0.387097C0.284432 0 0.185973 0.0407833 0.113378 0.113378C0.0407833 0.185973 0 0.284432 0 0.387097V23.6129C0 23.7156 0.0407833 23.814 0.113378 23.8866C0.185973 23.9592 0.284432 24 0.387097 24H23.6129C23.7156 24 23.814 23.9592 23.8866 23.8866C23.9592 23.814 24 23.7156 24 23.6129V21.2903C24 21.1877 23.9592 21.0892 23.8866 21.0166C23.814 20.944 23.7156 20.9032 23.6129 20.9032ZM20.9032 17.8065H22.4516V20.9032H20.9032V17.8065ZM17.0323 17.8065H18.5806V20.9032H17.0323V17.8065ZM13.1613 13.9355H14.7097V20.9032H13.1613V13.9355ZM9.29032 15.4839H10.8387V20.9032H9.29032V15.4839ZM5.41935 11.6129H6.96774V20.9032H5.41935V11.6129ZM23.2258 23.2258H0.774194V0.774194H2.32258V21.2903C2.32258 21.393 2.36336 21.4914 2.43596 21.564C2.50855 21.6366 2.60701 21.6774 2.70968 21.6774H23.2258V23.2258Z" fill="#1E3A8A"/>
<path d="M17.8359 16.0192C17.8652 16.0899 17.9148 16.1504 17.9785 16.1929C18.0422 16.2354 18.117 16.2581 18.1935 16.2581H21.2903C21.393 16.2581 21.4914 16.2173 21.564 16.1447C21.6366 16.0721 21.6774 15.9736 21.6774 15.871V12.7742C21.6774 12.6976 21.6547 12.6228 21.6122 12.5592C21.5696 12.4955 21.5092 12.4459 21.4384 12.4166C21.3677 12.3873 21.2899 12.3797 21.2148 12.3946C21.1397 12.4095 21.0708 12.4464 21.0166 12.5005L20.5161 13.001L14.2092 6.69406C14.1366 6.62149 14.0381 6.58073 13.9355 6.58073C13.8328 6.58073 13.7344 6.62149 13.6618 6.69406L11.2258 9.13006L6.08013 3.98439C6.00754 3.91182 5.9091 3.87105 5.80645 3.87105C5.70381 3.87105 5.60537 3.91182 5.53277 3.98439L3.98439 5.53277C3.91182 5.60537 3.87105 5.70381 3.87105 5.80645C3.87105 5.9091 3.91182 6.00754 3.98439 6.08013L10.9521 13.0479C11.0247 13.1204 11.1232 13.1612 11.2258 13.1612C11.3285 13.1612 11.4269 13.1204 11.4995 13.0479L13.9355 10.6119L18.4204 15.0968L17.9199 15.5973C17.8657 15.6514 17.8288 15.7204 17.8139 15.7955C17.7989 15.8706 17.8066 15.9485 17.8359 16.0192ZM14.2092 9.79084C14.1366 9.71827 14.0381 9.6775 13.9355 9.6775C13.8328 9.6775 13.7344 9.71827 13.6618 9.79084L11.2258 12.2268L4.80542 5.80645L5.80645 4.80542L10.9521 9.9511C11.0247 10.0237 11.1232 10.0644 11.2258 10.0644C11.3285 10.0644 11.4269 10.0237 11.4995 9.9511L13.9355 7.5151L20.2425 13.8221C20.315 13.8946 20.4135 13.9354 20.5161 13.9354C20.6188 13.9354 20.7172 13.8946 20.7898 13.8221L20.9032 13.7086V15.4839H19.128L19.2414 15.3705C19.314 15.2979 19.3548 15.1994 19.3548 15.0968C19.3548 14.9941 19.314 14.8957 19.2414 14.8231L14.2092 9.79084Z" fill="#1E3A8A"/>
<path d="M19.7419 0C18.8998 0 18.0765 0.249731 17.3763 0.717613C16.676 1.1855 16.1303 1.85051 15.808 2.62857C15.4857 3.40663 15.4014 4.26279 15.5657 5.08877C15.73 5.91476 16.1355 6.67347 16.731 7.26897C17.3265 7.86447 18.0852 8.27001 18.9112 8.43431C19.7372 8.59861 20.5934 8.51429 21.3714 8.192C22.1495 7.86972 22.8145 7.32395 23.2824 6.62372C23.7503 5.92348 24 5.10023 24 4.25806C23.9987 3.12916 23.5496 2.04688 22.7514 1.24863C21.9531 0.450376 20.8708 0.0013318 19.7419 0ZM17.8258 7.16439C17.8708 6.68737 18.0922 6.2443 18.4465 5.92181C18.8009 5.59932 19.2628 5.4206 19.7419 5.4206C20.2211 5.4206 20.683 5.59932 21.0373 5.92181C21.3917 6.2443 21.613 6.68737 21.6581 7.16439C21.09 7.54106 20.4235 7.74196 19.7419 7.74196C19.0603 7.74196 18.3939 7.54106 17.8258 7.16439ZM18.5806 3.48387C18.5806 3.25419 18.6488 3.02967 18.7764 2.83869C18.904 2.64772 19.0853 2.49887 19.2975 2.41098C19.5097 2.32308 19.7432 2.30009 19.9685 2.34489C20.1938 2.3897 20.4007 2.50031 20.5631 2.66271C20.7255 2.82512 20.8361 3.03205 20.8809 3.25731C20.9257 3.48258 20.9027 3.71608 20.8148 3.92828C20.7269 4.14048 20.5781 4.32184 20.3871 4.44945C20.1961 4.57705 19.9716 4.64516 19.7419 4.64516C19.4339 4.64516 19.1386 4.52281 18.9208 4.30503C18.703 4.08724 18.5806 3.79186 18.5806 3.48387ZM22.3355 6.57523C22.2302 6.22856 22.0568 5.9064 21.8254 5.62762C21.594 5.34885 21.3093 5.11906 20.988 4.95174C21.2916 4.69606 21.5092 4.35324 21.6114 3.96973C21.7136 3.58621 21.6954 3.18055 21.5593 2.80772C21.4232 2.43489 21.1758 2.11291 20.8506 1.88541C20.5254 1.65791 20.1381 1.53589 19.7412 1.53589C19.3443 1.53589 18.957 1.65791 18.6317 1.88541C18.3065 2.11291 18.0591 2.43489 17.923 2.80772C17.7869 3.18055 17.7687 3.58621 17.8709 3.96973C17.9731 4.35324 18.1908 4.69606 18.4943 4.95174C18.1733 5.11922 17.8889 5.34908 17.6577 5.62785C17.4266 5.90662 17.2535 6.2287 17.1484 6.57523C16.6991 6.07426 16.4045 5.45389 16.3002 4.78908C16.1959 4.12427 16.2863 3.44348 16.5606 2.82899C16.8349 2.21449 17.2814 1.69259 17.8459 1.32636C18.4105 0.960123 19.069 0.765229 19.7419 0.765229C20.4149 0.765229 21.0734 0.960123 21.638 1.32636C22.2025 1.69259 22.6489 2.21449 22.9232 2.82899C23.1975 3.44348 23.288 4.12427 23.1837 4.78908C23.0794 5.45389 22.7848 6.07426 22.3355 6.57523Z" fill="#1E3A8A"/>
</svg>
