<svg width="24" height="22" viewBox="0 0 24 22" fill="none" xmlns="http://www.w3.org/2000/svg">
<path d="M22.8387 3.7931H17.3996C17.203 1.66972 15.3786 0 13.1613 0H10.8387C8.62142 0 6.79665 1.66972 6.60039 3.7931H1.16129C0.521032 3.7931 0 4.30366 0 4.93103V18.5862C0 19.2136 0.521032 19.7241 1.16129 19.7241H12.3871V21.6207C12.3871 21.8304 12.5605 22 12.7742 22H23.6129C23.8266 22 24 21.8304 24 21.6207V4.93103C24 4.30366 23.479 3.7931 22.8387 3.7931ZM21.6774 8.88117L22.6784 9.86207H21.6774V8.88117ZM22.6107 8.723L23.2258 7.41666V9.32572L22.6107 8.723ZM10.8387 0.758621H13.1613C14.9512 0.758621 16.4288 2.08886 16.6223 3.7931H15.84C15.6511 2.50838 14.5235 1.51724 13.1613 1.51724H10.8387C9.47652 1.51724 8.3489 2.50838 8.16 3.7931H7.37768C7.57123 2.08886 9.04877 0.758621 10.8387 0.758621ZM15.0577 3.7931H8.94232C9.12232 2.92866 9.90387 2.27586 10.8387 2.27586H13.1613C14.0957 2.27586 14.8777 2.92866 15.0577 3.7931ZM1.16129 18.9655C0.948 18.9655 0.774194 18.7956 0.774194 18.5862V7.41666L1.73535 9.45735C2.17665 10.3946 3.14245 11 4.19535 11H5.03187V12.1379C5.03187 12.7653 5.5529 13.2759 6.19316 13.2759H6.96735C7.60761 13.2759 8.12864 12.7653 8.12864 12.1379V11H12.3867V18.9655H1.16129ZM5.80645 12.1379V9.86207C5.80645 9.65307 5.98026 9.48276 6.19355 9.48276H6.96774C7.18103 9.48276 7.35484 9.65307 7.35484 9.86207V12.1379C7.35484 12.3473 7.18103 12.5172 6.96774 12.5172H6.19355C5.98026 12.5172 5.80645 12.3473 5.80645 12.1379ZM12.3871 7.96552V10.2414H8.12903V9.86207C8.12903 9.23469 7.608 8.72414 6.96774 8.72414H6.19355C5.55329 8.72414 5.03226 9.23469 5.03226 9.86207V10.2414H4.19574C3.44361 10.2414 2.75381 9.80896 2.43832 9.13948L0.774194 5.60621V4.93103C0.774194 4.72203 0.948 4.55172 1.16129 4.55172H22.8387C23.052 4.55172 23.2258 4.72203 23.2258 4.93103V5.60659L22.0274 8.15138L21.564 7.69734C21.4912 7.62603 21.3929 7.58621 21.2903 7.58621H12.7742C12.5605 7.58621 12.3871 7.75614 12.3871 7.96552ZM13.1613 21.2414V8.34483H20.9032V10.2414C20.9032 10.4508 21.0766 10.6207 21.2903 10.6207H23.2258V21.2414H13.1613Z" fill="#1E3A8A"/>
<path d="M16.2581 9.86207H20.129V10.6207H16.2581V9.86207Z" fill="#1E3A8A"/>
<path d="M13.9355 11.3793H17.8065V12.1379H13.9355V11.3793Z" fill="#1E3A8A"/>
<path d="M18.5806 11.3793H22.4516V12.1379H18.5806V11.3793Z" fill="#1E3A8A"/>
<path d="M13.9355 12.8966H17.8065V13.6552H13.9355V12.8966Z" fill="#1E3A8A"/>
<path d="M18.5806 12.8966H22.4516V13.6552H18.5806V12.8966Z" fill="#1E3A8A"/>
<path d="M13.9355 14.4138H17.8065V15.1724H13.9355V14.4138Z" fill="#1E3A8A"/>
<path d="M18.5806 14.4138H22.4516V15.1724H18.5806V14.4138Z" fill="#1E3A8A"/>
<path d="M13.9355 15.931H17.8065V16.6897H13.9355V15.931Z" fill="#1E3A8A"/>
<path d="M18.5806 15.931H22.4516V16.6897H18.5806V15.931Z" fill="#1E3A8A"/>
<path d="M13.9355 17.4483H17.8065V18.2069H13.9355V17.4483Z" fill="#1E3A8A"/>
<path d="M18.5806 17.4483H22.4516V18.2069H18.5806V17.4483Z" fill="#1E3A8A"/>
<path d="M13.9355 18.9655H17.8065V19.7241H13.9355V18.9655Z" fill="#1E3A8A"/>
<path d="M18.5806 18.9655H22.4516V19.7241H18.5806V18.9655Z" fill="#1E3A8A"/>
</svg>
