<svg width="24" height="24" viewBox="0 0 24 24" fill="none" xmlns="http://www.w3.org/2000/svg">
<path d="M0 2.31231C0.102064 2.19654 0.182838 2.05386 0.354406 2.03384L2.906 2.03134V1.1177C2.906 0.837346 3.36686 0.321703 3.61231 0.184031C4.48893 -0.309085 5.76505 0.302929 5.76505 1.35236V2.03134H6.74937V1.1177C6.74937 1.04135 6.93158 0.696545 6.99169 0.610813C7.43814 -0.0243542 8.29034 -0.187683 8.94781 0.232216C9.57397 0.631464 9.62845 1.34485 9.60778 2.03196H10.5921V1.11832C10.5921 1.0376 10.7505 0.71657 10.8063 0.629587C11.3504 -0.224604 12.7229 -0.193315 13.2264 0.687159C13.2696 0.762878 13.4048 1.05512 13.4048 1.1177V2.03134H14.3891C14.3685 1.34485 14.4229 0.631464 15.0491 0.232216C15.7072 -0.187683 16.5588 -0.0243542 17.0052 0.610813C17.066 0.697171 17.2475 1.04135 17.2475 1.1177V2.03134H18.2319V1.35236C18.2319 0.298549 19.5074 -0.30971 20.3846 0.184031C20.6294 0.321703 21.0909 0.837346 21.0909 1.1177V2.03134L23.6425 2.03384C23.8097 2.06012 23.9675 2.21657 23.9938 2.3849L23.9988 23.5569C24.0151 23.7741 23.8635 23.8805 23.7151 24H0V2.31231ZM4.78072 1.35236C4.78072 1.18278 4.49206 0.976269 4.32801 0.968134C4.19652 0.961876 3.89033 1.12833 3.89033 1.25912V2.03196H4.78072V1.35236ZM8.62409 2.03134C8.62033 1.66776 8.71425 1.08703 8.23775 0.984405C8.07495 0.949361 7.73306 1.09579 7.73306 1.2585V2.03134H8.62409ZM12.4675 2.03134C12.4937 1.67339 12.5132 0.941226 11.9828 0.967508C11.4524 0.993791 11.5163 1.67026 11.5301 2.03134H12.4675ZM16.2639 2.03134V1.2585C16.2639 1.09579 15.9226 0.949361 15.7592 0.984405C15.2827 1.08703 15.3766 1.66776 15.3728 2.03134H16.2639ZM20.1072 2.03134V1.2585C20.1072 1.12833 19.8004 0.961251 19.6695 0.967508C19.5055 0.975644 19.2168 1.18215 19.2168 1.35174V2.03071H20.1072V2.03134ZM0.93736 3.01506V5.91931H10.0536C10.2471 5.91931 10.3767 6.27914 10.3604 6.45811C10.3441 6.63708 10.1262 6.90304 9.96031 6.90304H0.93736V23.0638H11.7881C11.892 22.9881 11.8457 22.8492 11.8795 22.7334C11.964 22.4462 12.0717 22.1452 12.2333 21.8924H2.41384C2.3099 21.8924 2.05505 21.5876 2.10702 21.4493L2.13019 8.30542C2.20032 8.15711 2.33495 8.03132 2.50651 8.02569L21.4453 8.02444C21.6933 8.0163 21.8993 8.22344 21.8905 8.46937L21.8893 17.0895C22.2393 17.5031 22.5436 17.826 22.5931 18.4005C22.6425 18.975 22.6244 19.5801 22.3194 20.0976C22.2769 20.1696 21.9776 20.4794 22.0289 20.5332C22.4215 20.6227 22.7515 20.9399 23.0602 21.1896V6.90304H14.0379C13.9333 6.90304 13.664 6.66837 13.6409 6.55073C13.6021 6.35486 13.7173 5.91931 13.9446 5.91931H23.0608V3.01506H19.2174C19.2293 3.33734 19.1254 3.81794 19.4861 3.98815C19.7065 4.09203 20.0628 4.00192 20.1448 4.35987C20.3101 5.08077 19.5537 5.09391 19.0659 4.87614C18.3339 4.5501 18.1824 3.73972 18.2331 3.01506H15.3741C15.386 3.33734 15.282 3.81794 15.6427 3.98815C15.8631 4.09203 16.2194 4.00192 16.3014 4.35987C16.4642 5.06825 15.7529 5.08828 15.2639 4.88177C14.478 4.5501 14.3641 3.78915 14.3898 3.01506H11.5307C11.537 3.3411 11.4524 3.85674 11.8319 4.00255C11.9722 4.05636 12.1137 4.02695 12.2514 4.09829C12.609 4.28227 12.5332 4.87488 12.1318 4.99879C11.7712 5.11018 11.1369 4.79791 10.9021 4.51005C10.8357 4.4287 10.5934 4.00255 10.5934 3.9287V3.01506H7.73431V3.74097C7.73431 3.77977 7.8752 3.94247 7.92529 3.97188C8.13443 4.09579 8.49948 3.98815 8.60405 4.3242C8.81256 4.99754 8.18139 5.10517 7.67483 4.92557C7.30853 4.79604 6.75062 4.2879 6.75062 3.88177V3.01506H3.89158V3.74097C3.89158 4.02132 4.44385 4.02257 4.59288 4.11769C4.98485 4.36612 4.80577 4.99191 4.33114 5.02757C3.89283 5.06074 3.29297 4.69028 3.08509 4.31293C3.05566 4.25974 2.90726 3.90492 2.90726 3.88177V3.01506H0.93736ZM20.9513 9.01067H3.04626V20.9556H13.0059C13.0917 20.9556 13.5952 20.4869 13.7793 20.5338C13.8306 20.48 13.5313 20.1702 13.4887 20.0983C12.9652 19.2103 13.0961 17.7754 13.9446 17.1158C14.0998 16.995 14.5845 16.8123 14.6196 16.7597C14.6834 16.6646 14.7698 16.1533 14.8487 15.9587C15.1568 15.1984 15.8199 14.5 16.5913 14.2097C16.5024 13.9875 16.2914 13.8054 16.1825 13.5651C15.9076 12.9619 15.9483 11.8129 16.3277 11.2528C17.1755 10.0032 19.1198 10.1846 19.6608 11.5876C19.8505 12.0789 19.8442 13.0839 19.6251 13.5651C19.5155 13.8054 19.3051 13.9875 19.2162 14.2097C19.7503 14.4062 20.2387 14.811 20.5668 15.2729L20.9507 15.8968V9.01067H20.9513ZM17.6571 11.4105C16.6496 11.6158 16.7116 13.7804 17.9676 13.6921C19.2306 13.6033 19.1611 11.1039 17.6571 11.4105ZM19.404 20.5332C19.23 20.189 18.9169 19.8811 18.853 19.4687C18.8117 19.204 18.8154 18.5845 18.8468 18.3142C18.9282 17.6152 19.5374 17.015 20.1798 16.7891C19.6708 14.2954 16.1793 14.291 15.6214 16.7653C15.9896 16.9543 16.302 17.1108 16.5688 17.4418C17.106 18.107 17.1198 19.3774 16.6946 20.0983C16.6452 20.1821 16.3578 20.4693 16.4041 20.5332C17.029 20.7409 17.5124 21.2247 17.8812 21.7516L18.5381 21.0501C18.8029 20.8411 19.0709 20.6252 19.404 20.5325V20.5332ZM14.845 17.7341C13.8657 17.9337 13.8819 20.0244 15.108 20.0013C16.4267 19.9769 16.3603 17.4249 14.845 17.7341ZM20.4698 17.7341C19.4904 17.9337 19.5067 20.0244 20.7327 20.0013C22.0514 19.9769 21.9851 17.4249 20.4698 17.7341ZM17.3421 23.0632C16.8956 20.6252 13.2802 20.6045 12.8425 23.0632H17.3421ZM22.9663 23.0632C22.5217 20.6026 18.9294 20.627 18.4667 23.0632H22.9663Z" fill="#1E3A8A"/>
<path d="M7.24904 17.8336C7.39494 17.98 7.39807 18.2647 7.30602 18.4437C6.96101 18.7084 6.11945 19.8129 5.76567 19.9043C5.61351 19.9437 5.49768 19.9174 5.36618 19.8317C5.27351 19.7716 4.59162 19.0682 4.5672 18.9913C4.4307 18.5557 4.76945 18.2178 5.20526 18.3536C5.35053 18.3986 5.54839 18.7203 5.64169 18.704C6.03555 18.4299 6.70366 17.2841 7.24904 17.8336Z" fill="#1E3A8A"/>
<path d="M12.8782 13.8442C13.2583 13.7966 13.4944 14.1865 13.3841 14.5413C13.2971 14.8204 12.1963 15.6815 11.9678 15.9831C11.7806 16.1001 11.6403 16.1239 11.4406 16.0107C11.3717 15.9719 10.6791 15.2766 10.646 15.2122C10.4255 14.7841 10.7868 14.3674 11.2521 14.5132C11.3967 14.5588 11.5952 14.8799 11.6885 14.8636C12.0016 14.6433 12.5075 13.8918 12.8788 13.8448L12.8782 13.8442Z" fill="#1E3A8A"/>
<path d="M6.87397 10.0113C7.24779 9.99878 7.46569 10.3987 7.32356 10.7322L5.90217 12.169C5.73937 12.2535 5.58784 12.2779 5.41941 12.1903C5.35303 12.1552 4.63295 11.4362 4.59914 11.3705C4.4451 11.0714 4.58787 10.6809 4.94478 10.6483C5.30169 10.6158 5.41001 10.8567 5.64795 11.0714C5.71746 11.0714 6.46572 10.189 6.63102 10.0876C6.69802 10.0463 6.79696 10.0144 6.87397 10.0119V10.0113Z" fill="#1E3A8A"/>
<path d="M12.9202 10.0113C13.294 9.99878 13.5119 10.3987 13.3697 10.7322L11.9484 12.169C11.7856 12.2535 11.634 12.2779 11.4656 12.1903C11.3992 12.1552 10.6791 11.4362 10.6453 11.3705C10.4913 11.0714 10.6341 10.6809 10.991 10.6483C11.3479 10.6158 11.4562 10.8567 11.6941 11.0714C11.7636 11.0714 12.5119 10.189 12.6772 10.0876C12.7442 10.0463 12.8431 10.0144 12.9202 10.0119V10.0113Z" fill="#1E3A8A"/>
<path d="M5.09506 14.5013C5.26975 14.4618 6.69113 14.465 6.84517 14.5125C7.19206 14.6189 7.23464 15.1896 6.90653 15.3755C6.65795 15.5163 5.31734 15.5232 5.0506 15.4162C4.67365 15.2647 4.67991 14.5945 5.09506 14.5013Z" fill="#1E3A8A"/>
<path d="M11.8444 5.92933C12.6102 5.75411 12.6747 6.81856 12.0567 6.89428C11.4662 6.96624 11.3241 6.04822 11.8444 5.92933Z" fill="#1E3A8A"/>
</svg>
