<svg width="25" height="25" viewBox="0 0 25 25" fill="none" xmlns="http://www.w3.org/2000/svg">
<mask id="path-1-outside-1_25166_59124" maskUnits="userSpaceOnUse" x="-0.660156" y="-0.660156" width="26" height="26" fill="black">
<rect fill="white" x="-0.660156" y="-0.660156" width="26" height="26"/>
<path d="M3.69779 5.70023C3.05409 5.70023 2.53071 5.18238 2.53071 4.54547V1.49461C2.53071 0.857701 3.05409 0.339844 3.69779 0.339844C4.34148 0.339844 4.86486 0.857701 4.86486 1.49461V4.54547C4.86432 5.18238 4.34094 5.70023 3.69779 5.70023ZM3.69779 0.96322C3.40192 0.96322 3.16074 1.20186 3.16074 1.49461V4.54547C3.16074 4.83822 3.40137 5.07686 3.69779 5.07686C3.99421 5.07686 4.23484 4.83876 4.23484 4.54547V1.49461C4.23484 1.20132 3.99366 0.96322 3.69779 0.96322Z"/>
<path d="M9.45879 5.70023C8.8151 5.70023 8.29172 5.18238 8.29172 4.54547V1.49461C8.29172 0.857701 8.8151 0.339844 9.45879 0.339844C10.1025 0.339844 10.6259 0.857701 10.6259 1.49461V4.54547C10.6259 5.18238 10.1019 5.70023 9.45879 5.70023ZM9.45879 0.96322C9.16292 0.96322 8.92174 1.20186 8.92174 1.49461V4.54547C8.92174 4.83822 9.16238 5.07686 9.45879 5.07686C9.75521 5.07686 9.99585 4.83876 9.99585 4.54547V1.49461C9.99585 1.20132 9.75466 0.96322 9.45879 0.96322Z"/>
<path d="M15.2198 5.70023C14.5761 5.70023 14.0527 5.18238 14.0527 4.54547V1.49461C14.0527 0.857701 14.5761 0.339844 15.2198 0.339844C15.8635 0.339844 16.3869 0.857701 16.3869 1.49461V4.54547C16.3869 5.18238 15.8635 5.70023 15.2198 5.70023ZM15.2198 0.96322C14.9239 0.96322 14.6827 1.20186 14.6827 1.49461V4.54547C14.6827 4.83822 14.9239 5.07686 15.2198 5.07686C15.5157 5.07686 15.7569 4.83876 15.7569 4.54547V1.49461C15.7569 1.20132 15.5162 0.96322 15.2198 0.96322Z"/>
<path d="M20.9808 5.70023C20.3371 5.70023 19.8137 5.18238 19.8137 4.54547V1.49461C19.8137 0.857701 20.3371 0.339844 20.9808 0.339844C21.6245 0.339844 22.1479 0.857701 22.1479 1.49461V4.54547C22.1479 5.18238 21.6245 5.70023 20.9808 5.70023ZM20.9808 0.96322C20.6849 0.96322 20.4438 1.20186 20.4438 1.49461V4.54547C20.4438 4.83822 20.6849 5.07686 20.9808 5.07686C21.2767 5.07686 21.5179 4.83876 21.5179 4.54547V1.49461C21.5179 1.20132 21.2772 0.96322 20.9808 0.96322Z"/>
<path d="M5.66552 12.6537H2.82549C2.65158 12.6537 2.51048 12.5141 2.51048 12.342V9.7327C2.51048 9.56062 2.65158 9.42101 2.82549 9.42101H5.66552C5.83943 9.42101 5.98053 9.56062 5.98053 9.7327V12.342C5.98053 12.5141 5.83943 12.6537 5.66552 12.6537ZM3.1405 12.0303H5.35051V10.0444H3.1405V12.0303Z"/>
<path d="M11.0612 12.6537H8.22117C8.04726 12.6537 7.90616 12.5141 7.90616 12.342V9.7327C7.90616 9.56062 8.04726 9.42101 8.22117 9.42101H11.0612C11.2351 9.42101 11.3762 9.56062 11.3762 9.7327V12.342C11.3762 12.5141 11.2351 12.6537 11.0612 12.6537ZM8.53618 12.0303H10.7462V10.0444H8.53618V12.0303Z"/>
<path d="M16.4574 12.6537H13.6174C13.4435 12.6537 13.3024 12.5141 13.3024 12.342V9.7327C13.3024 9.56062 13.4435 9.42101 13.6174 9.42101H16.4574C16.6313 9.42101 16.7724 9.56062 16.7724 9.7327V12.342C16.7724 12.5141 16.6313 12.6537 16.4574 12.6537ZM13.9324 12.0303H16.1424V10.0444H13.9324V12.0303Z"/>
<path d="M21.8531 12.6537H19.0131C18.8392 12.6537 18.6981 12.5141 18.6981 12.342V9.7327C18.6981 9.56062 18.8392 9.42101 19.0131 9.42101H21.8531C22.027 9.42101 22.1681 9.56062 22.1681 9.7327V12.342C22.1681 12.5141 22.027 12.6537 21.8531 12.6537ZM19.3281 12.0303H21.5381V10.0444H19.3281V12.0303Z"/>
<path d="M5.66552 17.5309H2.82549C2.65158 17.5309 2.51048 17.3913 2.51048 17.2192V14.6099C2.51048 14.4378 2.65158 14.2982 2.82549 14.2982H5.66552C5.83943 14.2982 5.98053 14.4378 5.98053 14.6099V17.2192C5.98053 17.3913 5.83943 17.5309 5.66552 17.5309ZM3.1405 16.9075H5.35051V14.9216H3.1405V16.9075Z"/>
<path d="M11.0612 17.5309H8.22117C8.04726 17.5309 7.90616 17.3913 7.90616 17.2192V14.6099C7.90616 14.4378 8.04726 14.2982 8.22117 14.2982H11.0612C11.2351 14.2982 11.3762 14.4378 11.3762 14.6099V17.2192C11.3762 17.3913 11.2351 17.5309 11.0612 17.5309ZM8.53618 16.9075H10.7462V14.9216H8.53618V16.9075Z"/>
<path d="M16.4574 17.5309H13.6174C13.4435 17.5309 13.3024 17.3913 13.3024 17.2192V14.6099C13.3024 14.4378 13.4435 14.2982 13.6174 14.2982H16.4574C16.6313 14.2982 16.7724 14.4378 16.7724 14.6099V17.2192C16.7724 17.3913 16.6313 17.5309 16.4574 17.5309ZM13.9324 16.9075H16.1424V14.9216H13.9324V16.9075Z"/>
<path d="M21.8531 17.5309H19.0131C18.8392 17.5309 18.6981 17.3913 18.6981 17.2192V14.6099C18.6981 14.4378 18.8392 14.2982 19.0131 14.2982H21.8531C22.027 14.2982 22.1681 14.4378 22.1681 14.6099V17.2192C22.1681 17.3913 22.027 17.5309 21.8531 17.5309ZM19.3281 16.9075H21.5381V14.9216H19.3281V16.9075Z"/>
<path d="M5.66552 22.408H2.82549C2.65158 22.408 2.51048 22.2684 2.51048 22.0963V19.487C2.51048 19.315 2.65158 19.1753 2.82549 19.1753H5.66552C5.83943 19.1753 5.98053 19.315 5.98053 19.487V22.0963C5.98053 22.2684 5.83943 22.408 5.66552 22.408ZM3.1405 21.7846H5.35051V19.7987H3.1405V21.7846Z"/>
<path d="M11.0612 22.408H8.22117C8.04726 22.408 7.90616 22.2684 7.90616 22.0963V19.487C7.90616 19.315 8.04726 19.1753 8.22117 19.1753H11.0612C11.2351 19.1753 11.3762 19.315 11.3762 19.487V22.0963C11.3762 22.2684 11.2351 22.408 11.0612 22.408ZM8.53618 21.7846H10.7462V19.7987H8.53618V21.7846Z"/>
<path d="M16.4574 22.408H13.6174C13.4435 22.408 13.3024 22.2684 13.3024 22.0963V19.487C13.3024 19.315 13.4435 19.1753 13.6174 19.1753H16.4574C16.6313 19.1753 16.7724 19.315 16.7724 19.487V22.0963C16.7724 22.2684 16.6313 22.408 16.4574 22.408ZM13.9324 21.7846H16.1424V19.7987H13.9324V21.7846Z"/>
<path d="M21.8531 22.408H19.0131C18.8392 22.408 18.6981 22.2684 18.6981 22.0963V19.487C18.6981 19.315 18.8392 19.1753 19.0131 19.1753H21.8531C22.027 19.1753 22.1681 19.315 22.1681 19.487V22.0963C22.1681 22.2684 22.027 22.408 21.8531 22.408ZM19.3281 21.7846H21.5381V19.7987H19.3281V21.7846Z"/>
<path d="M22.6051 24.3398H2.07351C1.11753 24.3398 0.339844 23.5704 0.339844 22.6245V4.02058C0.339844 3.07469 1.11753 2.30521 2.07351 2.30521H2.84572C3.01964 2.30521 3.16074 2.44482 3.16074 2.6169V4.54601C3.16074 4.83876 3.40137 5.0774 3.69779 5.0774C3.99421 5.0774 4.23484 4.8393 4.23484 4.54601V2.61636C4.23484 2.44428 4.37594 2.30467 4.54985 2.30467H8.60728C8.78119 2.30467 8.92229 2.44428 8.92229 2.61636V4.54547C8.92229 4.83822 9.16292 5.07686 9.45934 5.07686C9.75576 5.07686 9.99639 4.83876 9.99639 4.54547V2.61636C9.99639 2.44428 10.1375 2.30467 10.3114 2.30467H14.3688C14.5427 2.30467 14.6838 2.44428 14.6838 2.61636V4.54547C14.6838 4.83822 14.925 5.07686 15.2209 5.07686C15.5168 5.07686 15.7579 4.83876 15.7579 4.54547V2.61636C15.7579 2.44428 15.899 2.30467 16.073 2.30467H20.1298C20.3037 2.30467 20.4448 2.44428 20.4448 2.61636V4.54547C20.4448 4.83822 20.686 5.07686 20.9819 5.07686C21.2778 5.07686 21.519 4.83876 21.519 4.54547V2.61636C21.519 2.44428 21.6601 2.30467 21.834 2.30467H22.6062C23.5622 2.30467 24.3398 3.07415 24.3398 4.02004V22.6239C24.3388 23.5704 23.5611 24.3398 22.6051 24.3398ZM2.07351 2.92805C1.46481 2.92805 0.969868 3.41777 0.969868 4.02004V22.6239C0.969868 23.2262 1.46481 23.7159 2.07351 23.7159H22.6051C23.2138 23.7159 23.7087 23.2262 23.7087 22.6239V4.02058C23.7087 3.41831 23.2138 2.92859 22.6051 2.92859H22.1479V4.54601C22.1479 5.18292 21.6245 5.70077 20.9808 5.70077C20.3371 5.70077 19.8137 5.18292 19.8137 4.54601V2.92805H16.3863V4.54547C16.3863 5.18238 15.863 5.70023 15.2193 5.70023C14.5756 5.70023 14.0522 5.18238 14.0522 4.54547V2.92805H10.6248V4.54547C10.6248 5.18238 10.1014 5.70023 9.4577 5.70023C8.814 5.70023 8.29062 5.18238 8.29062 4.54547V2.92805H4.86322V4.54547C4.86322 5.18238 4.33984 5.70023 3.69615 5.70023C3.05245 5.70023 2.52907 5.18238 2.52907 4.54547V2.92805H2.07351Z"/>
<path d="M24.0237 8.11257H0.654856C0.480943 8.11257 0.339844 7.97296 0.339844 7.80088C0.339844 7.62881 0.480943 7.48919 0.654856 7.48919H24.0237C24.1977 7.48919 24.3388 7.62881 24.3388 7.80088C24.3388 7.97296 24.1977 8.11257 24.0237 8.11257Z"/>
</mask>
<path d="M3.69779 5.70023C3.05409 5.70023 2.53071 5.18238 2.53071 4.54547V1.49461C2.53071 0.857701 3.05409 0.339844 3.69779 0.339844C4.34148 0.339844 4.86486 0.857701 4.86486 1.49461V4.54547C4.86432 5.18238 4.34094 5.70023 3.69779 5.70023ZM3.69779 0.96322C3.40192 0.96322 3.16074 1.20186 3.16074 1.49461V4.54547C3.16074 4.83822 3.40137 5.07686 3.69779 5.07686C3.99421 5.07686 4.23484 4.83876 4.23484 4.54547V1.49461C4.23484 1.20132 3.99366 0.96322 3.69779 0.96322Z" fill="#1E3A8A"/>
<path d="M9.45879 5.70023C8.8151 5.70023 8.29172 5.18238 8.29172 4.54547V1.49461C8.29172 0.857701 8.8151 0.339844 9.45879 0.339844C10.1025 0.339844 10.6259 0.857701 10.6259 1.49461V4.54547C10.6259 5.18238 10.1019 5.70023 9.45879 5.70023ZM9.45879 0.96322C9.16292 0.96322 8.92174 1.20186 8.92174 1.49461V4.54547C8.92174 4.83822 9.16238 5.07686 9.45879 5.07686C9.75521 5.07686 9.99585 4.83876 9.99585 4.54547V1.49461C9.99585 1.20132 9.75466 0.96322 9.45879 0.96322Z" fill="#1E3A8A"/>
<path d="M15.2198 5.70023C14.5761 5.70023 14.0527 5.18238 14.0527 4.54547V1.49461C14.0527 0.857701 14.5761 0.339844 15.2198 0.339844C15.8635 0.339844 16.3869 0.857701 16.3869 1.49461V4.54547C16.3869 5.18238 15.8635 5.70023 15.2198 5.70023ZM15.2198 0.96322C14.9239 0.96322 14.6827 1.20186 14.6827 1.49461V4.54547C14.6827 4.83822 14.9239 5.07686 15.2198 5.07686C15.5157 5.07686 15.7569 4.83876 15.7569 4.54547V1.49461C15.7569 1.20132 15.5162 0.96322 15.2198 0.96322Z" fill="#1E3A8A"/>
<path d="M20.9808 5.70023C20.3371 5.70023 19.8137 5.18238 19.8137 4.54547V1.49461C19.8137 0.857701 20.3371 0.339844 20.9808 0.339844C21.6245 0.339844 22.1479 0.857701 22.1479 1.49461V4.54547C22.1479 5.18238 21.6245 5.70023 20.9808 5.70023ZM20.9808 0.96322C20.6849 0.96322 20.4438 1.20186 20.4438 1.49461V4.54547C20.4438 4.83822 20.6849 5.07686 20.9808 5.07686C21.2767 5.07686 21.5179 4.83876 21.5179 4.54547V1.49461C21.5179 1.20132 21.2772 0.96322 20.9808 0.96322Z" fill="#1E3A8A"/>
<path d="M5.66552 12.6537H2.82549C2.65158 12.6537 2.51048 12.5141 2.51048 12.342V9.7327C2.51048 9.56062 2.65158 9.42101 2.82549 9.42101H5.66552C5.83943 9.42101 5.98053 9.56062 5.98053 9.7327V12.342C5.98053 12.5141 5.83943 12.6537 5.66552 12.6537ZM3.1405 12.0303H5.35051V10.0444H3.1405V12.0303Z" fill="#1E3A8A"/>
<path d="M11.0612 12.6537H8.22117C8.04726 12.6537 7.90616 12.5141 7.90616 12.342V9.7327C7.90616 9.56062 8.04726 9.42101 8.22117 9.42101H11.0612C11.2351 9.42101 11.3762 9.56062 11.3762 9.7327V12.342C11.3762 12.5141 11.2351 12.6537 11.0612 12.6537ZM8.53618 12.0303H10.7462V10.0444H8.53618V12.0303Z" fill="#1E3A8A"/>
<path d="M16.4574 12.6537H13.6174C13.4435 12.6537 13.3024 12.5141 13.3024 12.342V9.7327C13.3024 9.56062 13.4435 9.42101 13.6174 9.42101H16.4574C16.6313 9.42101 16.7724 9.56062 16.7724 9.7327V12.342C16.7724 12.5141 16.6313 12.6537 16.4574 12.6537ZM13.9324 12.0303H16.1424V10.0444H13.9324V12.0303Z" fill="#1E3A8A"/>
<path d="M21.8531 12.6537H19.0131C18.8392 12.6537 18.6981 12.5141 18.6981 12.342V9.7327C18.6981 9.56062 18.8392 9.42101 19.0131 9.42101H21.8531C22.027 9.42101 22.1681 9.56062 22.1681 9.7327V12.342C22.1681 12.5141 22.027 12.6537 21.8531 12.6537ZM19.3281 12.0303H21.5381V10.0444H19.3281V12.0303Z" fill="#1E3A8A"/>
<path d="M5.66552 17.5309H2.82549C2.65158 17.5309 2.51048 17.3913 2.51048 17.2192V14.6099C2.51048 14.4378 2.65158 14.2982 2.82549 14.2982H5.66552C5.83943 14.2982 5.98053 14.4378 5.98053 14.6099V17.2192C5.98053 17.3913 5.83943 17.5309 5.66552 17.5309ZM3.1405 16.9075H5.35051V14.9216H3.1405V16.9075Z" fill="#1E3A8A"/>
<path d="M11.0612 17.5309H8.22117C8.04726 17.5309 7.90616 17.3913 7.90616 17.2192V14.6099C7.90616 14.4378 8.04726 14.2982 8.22117 14.2982H11.0612C11.2351 14.2982 11.3762 14.4378 11.3762 14.6099V17.2192C11.3762 17.3913 11.2351 17.5309 11.0612 17.5309ZM8.53618 16.9075H10.7462V14.9216H8.53618V16.9075Z" fill="#1E3A8A"/>
<path d="M16.4574 17.5309H13.6174C13.4435 17.5309 13.3024 17.3913 13.3024 17.2192V14.6099C13.3024 14.4378 13.4435 14.2982 13.6174 14.2982H16.4574C16.6313 14.2982 16.7724 14.4378 16.7724 14.6099V17.2192C16.7724 17.3913 16.6313 17.5309 16.4574 17.5309ZM13.9324 16.9075H16.1424V14.9216H13.9324V16.9075Z" fill="#1E3A8A"/>
<path d="M21.8531 17.5309H19.0131C18.8392 17.5309 18.6981 17.3913 18.6981 17.2192V14.6099C18.6981 14.4378 18.8392 14.2982 19.0131 14.2982H21.8531C22.027 14.2982 22.1681 14.4378 22.1681 14.6099V17.2192C22.1681 17.3913 22.027 17.5309 21.8531 17.5309ZM19.3281 16.9075H21.5381V14.9216H19.3281V16.9075Z" fill="#1E3A8A"/>
<path d="M5.66552 22.408H2.82549C2.65158 22.408 2.51048 22.2684 2.51048 22.0963V19.487C2.51048 19.315 2.65158 19.1753 2.82549 19.1753H5.66552C5.83943 19.1753 5.98053 19.315 5.98053 19.487V22.0963C5.98053 22.2684 5.83943 22.408 5.66552 22.408ZM3.1405 21.7846H5.35051V19.7987H3.1405V21.7846Z" fill="#1E3A8A"/>
<path d="M11.0612 22.408H8.22117C8.04726 22.408 7.90616 22.2684 7.90616 22.0963V19.487C7.90616 19.315 8.04726 19.1753 8.22117 19.1753H11.0612C11.2351 19.1753 11.3762 19.315 11.3762 19.487V22.0963C11.3762 22.2684 11.2351 22.408 11.0612 22.408ZM8.53618 21.7846H10.7462V19.7987H8.53618V21.7846Z" fill="#1E3A8A"/>
<path d="M16.4574 22.408H13.6174C13.4435 22.408 13.3024 22.2684 13.3024 22.0963V19.487C13.3024 19.315 13.4435 19.1753 13.6174 19.1753H16.4574C16.6313 19.1753 16.7724 19.315 16.7724 19.487V22.0963C16.7724 22.2684 16.6313 22.408 16.4574 22.408ZM13.9324 21.7846H16.1424V19.7987H13.9324V21.7846Z" fill="#1E3A8A"/>
<path d="M21.8531 22.408H19.0131C18.8392 22.408 18.6981 22.2684 18.6981 22.0963V19.487C18.6981 19.315 18.8392 19.1753 19.0131 19.1753H21.8531C22.027 19.1753 22.1681 19.315 22.1681 19.487V22.0963C22.1681 22.2684 22.027 22.408 21.8531 22.408ZM19.3281 21.7846H21.5381V19.7987H19.3281V21.7846Z" fill="#1E3A8A"/>
<path d="M22.6051 24.3398H2.07351C1.11753 24.3398 0.339844 23.5704 0.339844 22.6245V4.02058C0.339844 3.07469 1.11753 2.30521 2.07351 2.30521H2.84572C3.01964 2.30521 3.16074 2.44482 3.16074 2.6169V4.54601C3.16074 4.83876 3.40137 5.0774 3.69779 5.0774C3.99421 5.0774 4.23484 4.8393 4.23484 4.54601V2.61636C4.23484 2.44428 4.37594 2.30467 4.54985 2.30467H8.60728C8.78119 2.30467 8.92229 2.44428 8.92229 2.61636V4.54547C8.92229 4.83822 9.16292 5.07686 9.45934 5.07686C9.75576 5.07686 9.99639 4.83876 9.99639 4.54547V2.61636C9.99639 2.44428 10.1375 2.30467 10.3114 2.30467H14.3688C14.5427 2.30467 14.6838 2.44428 14.6838 2.61636V4.54547C14.6838 4.83822 14.925 5.07686 15.2209 5.07686C15.5168 5.07686 15.7579 4.83876 15.7579 4.54547V2.61636C15.7579 2.44428 15.899 2.30467 16.073 2.30467H20.1298C20.3037 2.30467 20.4448 2.44428 20.4448 2.61636V4.54547C20.4448 4.83822 20.686 5.07686 20.9819 5.07686C21.2778 5.07686 21.519 4.83876 21.519 4.54547V2.61636C21.519 2.44428 21.6601 2.30467 21.834 2.30467H22.6062C23.5622 2.30467 24.3398 3.07415 24.3398 4.02004V22.6239C24.3388 23.5704 23.5611 24.3398 22.6051 24.3398ZM2.07351 2.92805C1.46481 2.92805 0.969868 3.41777 0.969868 4.02004V22.6239C0.969868 23.2262 1.46481 23.7159 2.07351 23.7159H22.6051C23.2138 23.7159 23.7087 23.2262 23.7087 22.6239V4.02058C23.7087 3.41831 23.2138 2.92859 22.6051 2.92859H22.1479V4.54601C22.1479 5.18292 21.6245 5.70077 20.9808 5.70077C20.3371 5.70077 19.8137 5.18292 19.8137 4.54601V2.92805H16.3863V4.54547C16.3863 5.18238 15.863 5.70023 15.2193 5.70023C14.5756 5.70023 14.0522 5.18238 14.0522 4.54547V2.92805H10.6248V4.54547C10.6248 5.18238 10.1014 5.70023 9.4577 5.70023C8.814 5.70023 8.29062 5.18238 8.29062 4.54547V2.92805H4.86322V4.54547C4.86322 5.18238 4.33984 5.70023 3.69615 5.70023C3.05245 5.70023 2.52907 5.18238 2.52907 4.54547V2.92805H2.07351Z" fill="#1E3A8A"/>
<path d="M24.0237 8.11257H0.654856C0.480943 8.11257 0.339844 7.97296 0.339844 7.80088C0.339844 7.62881 0.480943 7.48919 0.654856 7.48919H24.0237C24.1977 7.48919 24.3388 7.62881 24.3388 7.80088C24.3388 7.97296 24.1977 8.11257 24.0237 8.11257Z" fill="#1E3A8A"/>
<path d="M3.69779 5.70023C3.05409 5.70023 2.53071 5.18238 2.53071 4.54547V1.49461C2.53071 0.857701 3.05409 0.339844 3.69779 0.339844C4.34148 0.339844 4.86486 0.857701 4.86486 1.49461V4.54547C4.86432 5.18238 4.34094 5.70023 3.69779 5.70023ZM3.69779 0.96322C3.40192 0.96322 3.16074 1.20186 3.16074 1.49461V4.54547C3.16074 4.83822 3.40137 5.07686 3.69779 5.07686C3.99421 5.07686 4.23484 4.83876 4.23484 4.54547V1.49461C4.23484 1.20132 3.99366 0.96322 3.69779 0.96322Z" stroke="#1E3A8A" stroke-width="0.68" mask="url(#path-1-outside-1_25166_59124)"/>
<path d="M9.45879 5.70023C8.8151 5.70023 8.29172 5.18238 8.29172 4.54547V1.49461C8.29172 0.857701 8.8151 0.339844 9.45879 0.339844C10.1025 0.339844 10.6259 0.857701 10.6259 1.49461V4.54547C10.6259 5.18238 10.1019 5.70023 9.45879 5.70023ZM9.45879 0.96322C9.16292 0.96322 8.92174 1.20186 8.92174 1.49461V4.54547C8.92174 4.83822 9.16238 5.07686 9.45879 5.07686C9.75521 5.07686 9.99585 4.83876 9.99585 4.54547V1.49461C9.99585 1.20132 9.75466 0.96322 9.45879 0.96322Z" stroke="#1E3A8A" stroke-width="0.68" mask="url(#path-1-outside-1_25166_59124)"/>
<path d="M15.2198 5.70023C14.5761 5.70023 14.0527 5.18238 14.0527 4.54547V1.49461C14.0527 0.857701 14.5761 0.339844 15.2198 0.339844C15.8635 0.339844 16.3869 0.857701 16.3869 1.49461V4.54547C16.3869 5.18238 15.8635 5.70023 15.2198 5.70023ZM15.2198 0.96322C14.9239 0.96322 14.6827 1.20186 14.6827 1.49461V4.54547C14.6827 4.83822 14.9239 5.07686 15.2198 5.07686C15.5157 5.07686 15.7569 4.83876 15.7569 4.54547V1.49461C15.7569 1.20132 15.5162 0.96322 15.2198 0.96322Z" stroke="#1E3A8A" stroke-width="0.68" mask="url(#path-1-outside-1_25166_59124)"/>
<path d="M20.9808 5.70023C20.3371 5.70023 19.8137 5.18238 19.8137 4.54547V1.49461C19.8137 0.857701 20.3371 0.339844 20.9808 0.339844C21.6245 0.339844 22.1479 0.857701 22.1479 1.49461V4.54547C22.1479 5.18238 21.6245 5.70023 20.9808 5.70023ZM20.9808 0.96322C20.6849 0.96322 20.4438 1.20186 20.4438 1.49461V4.54547C20.4438 4.83822 20.6849 5.07686 20.9808 5.07686C21.2767 5.07686 21.5179 4.83876 21.5179 4.54547V1.49461C21.5179 1.20132 21.2772 0.96322 20.9808 0.96322Z" stroke="#1E3A8A" stroke-width="0.68" mask="url(#path-1-outside-1_25166_59124)"/>
<path d="M5.66552 12.6537H2.82549C2.65158 12.6537 2.51048 12.5141 2.51048 12.342V9.7327C2.51048 9.56062 2.65158 9.42101 2.82549 9.42101H5.66552C5.83943 9.42101 5.98053 9.56062 5.98053 9.7327V12.342C5.98053 12.5141 5.83943 12.6537 5.66552 12.6537ZM3.1405 12.0303H5.35051V10.0444H3.1405V12.0303Z" stroke="#1E3A8A" stroke-width="0.68" mask="url(#path-1-outside-1_25166_59124)"/>
<path d="M11.0612 12.6537H8.22117C8.04726 12.6537 7.90616 12.5141 7.90616 12.342V9.7327C7.90616 9.56062 8.04726 9.42101 8.22117 9.42101H11.0612C11.2351 9.42101 11.3762 9.56062 11.3762 9.7327V12.342C11.3762 12.5141 11.2351 12.6537 11.0612 12.6537ZM8.53618 12.0303H10.7462V10.0444H8.53618V12.0303Z" stroke="#1E3A8A" stroke-width="0.68" mask="url(#path-1-outside-1_25166_59124)"/>
<path d="M16.4574 12.6537H13.6174C13.4435 12.6537 13.3024 12.5141 13.3024 12.342V9.7327C13.3024 9.56062 13.4435 9.42101 13.6174 9.42101H16.4574C16.6313 9.42101 16.7724 9.56062 16.7724 9.7327V12.342C16.7724 12.5141 16.6313 12.6537 16.4574 12.6537ZM13.9324 12.0303H16.1424V10.0444H13.9324V12.0303Z" stroke="#1E3A8A" stroke-width="0.68" mask="url(#path-1-outside-1_25166_59124)"/>
<path d="M21.8531 12.6537H19.0131C18.8392 12.6537 18.6981 12.5141 18.6981 12.342V9.7327C18.6981 9.56062 18.8392 9.42101 19.0131 9.42101H21.8531C22.027 9.42101 22.1681 9.56062 22.1681 9.7327V12.342C22.1681 12.5141 22.027 12.6537 21.8531 12.6537ZM19.3281 12.0303H21.5381V10.0444H19.3281V12.0303Z" stroke="#1E3A8A" stroke-width="0.68" mask="url(#path-1-outside-1_25166_59124)"/>
<path d="M5.66552 17.5309H2.82549C2.65158 17.5309 2.51048 17.3913 2.51048 17.2192V14.6099C2.51048 14.4378 2.65158 14.2982 2.82549 14.2982H5.66552C5.83943 14.2982 5.98053 14.4378 5.98053 14.6099V17.2192C5.98053 17.3913 5.83943 17.5309 5.66552 17.5309ZM3.1405 16.9075H5.35051V14.9216H3.1405V16.9075Z" stroke="#1E3A8A" stroke-width="0.68" mask="url(#path-1-outside-1_25166_59124)"/>
<path d="M11.0612 17.5309H8.22117C8.04726 17.5309 7.90616 17.3913 7.90616 17.2192V14.6099C7.90616 14.4378 8.04726 14.2982 8.22117 14.2982H11.0612C11.2351 14.2982 11.3762 14.4378 11.3762 14.6099V17.2192C11.3762 17.3913 11.2351 17.5309 11.0612 17.5309ZM8.53618 16.9075H10.7462V14.9216H8.53618V16.9075Z" stroke="#1E3A8A" stroke-width="0.68" mask="url(#path-1-outside-1_25166_59124)"/>
<path d="M16.4574 17.5309H13.6174C13.4435 17.5309 13.3024 17.3913 13.3024 17.2192V14.6099C13.3024 14.4378 13.4435 14.2982 13.6174 14.2982H16.4574C16.6313 14.2982 16.7724 14.4378 16.7724 14.6099V17.2192C16.7724 17.3913 16.6313 17.5309 16.4574 17.5309ZM13.9324 16.9075H16.1424V14.9216H13.9324V16.9075Z" stroke="#1E3A8A" stroke-width="0.68" mask="url(#path-1-outside-1_25166_59124)"/>
<path d="M21.8531 17.5309H19.0131C18.8392 17.5309 18.6981 17.3913 18.6981 17.2192V14.6099C18.6981 14.4378 18.8392 14.2982 19.0131 14.2982H21.8531C22.027 14.2982 22.1681 14.4378 22.1681 14.6099V17.2192C22.1681 17.3913 22.027 17.5309 21.8531 17.5309ZM19.3281 16.9075H21.5381V14.9216H19.3281V16.9075Z" stroke="#1E3A8A" stroke-width="0.68" mask="url(#path-1-outside-1_25166_59124)"/>
<path d="M5.66552 22.408H2.82549C2.65158 22.408 2.51048 22.2684 2.51048 22.0963V19.487C2.51048 19.315 2.65158 19.1753 2.82549 19.1753H5.66552C5.83943 19.1753 5.98053 19.315 5.98053 19.487V22.0963C5.98053 22.2684 5.83943 22.408 5.66552 22.408ZM3.1405 21.7846H5.35051V19.7987H3.1405V21.7846Z" stroke="#1E3A8A" stroke-width="0.68" mask="url(#path-1-outside-1_25166_59124)"/>
<path d="M11.0612 22.408H8.22117C8.04726 22.408 7.90616 22.2684 7.90616 22.0963V19.487C7.90616 19.315 8.04726 19.1753 8.22117 19.1753H11.0612C11.2351 19.1753 11.3762 19.315 11.3762 19.487V22.0963C11.3762 22.2684 11.2351 22.408 11.0612 22.408ZM8.53618 21.7846H10.7462V19.7987H8.53618V21.7846Z" stroke="#1E3A8A" stroke-width="0.68" mask="url(#path-1-outside-1_25166_59124)"/>
<path d="M16.4574 22.408H13.6174C13.4435 22.408 13.3024 22.2684 13.3024 22.0963V19.487C13.3024 19.315 13.4435 19.1753 13.6174 19.1753H16.4574C16.6313 19.1753 16.7724 19.315 16.7724 19.487V22.0963C16.7724 22.2684 16.6313 22.408 16.4574 22.408ZM13.9324 21.7846H16.1424V19.7987H13.9324V21.7846Z" stroke="#1E3A8A" stroke-width="0.68" mask="url(#path-1-outside-1_25166_59124)"/>
<path d="M21.8531 22.408H19.0131C18.8392 22.408 18.6981 22.2684 18.6981 22.0963V19.487C18.6981 19.315 18.8392 19.1753 19.0131 19.1753H21.8531C22.027 19.1753 22.1681 19.315 22.1681 19.487V22.0963C22.1681 22.2684 22.027 22.408 21.8531 22.408ZM19.3281 21.7846H21.5381V19.7987H19.3281V21.7846Z" stroke="#1E3A8A" stroke-width="0.68" mask="url(#path-1-outside-1_25166_59124)"/>
<path d="M22.6051 24.3398H2.07351C1.11753 24.3398 0.339844 23.5704 0.339844 22.6245V4.02058C0.339844 3.07469 1.11753 2.30521 2.07351 2.30521H2.84572C3.01964 2.30521 3.16074 2.44482 3.16074 2.6169V4.54601C3.16074 4.83876 3.40137 5.0774 3.69779 5.0774C3.99421 5.0774 4.23484 4.8393 4.23484 4.54601V2.61636C4.23484 2.44428 4.37594 2.30467 4.54985 2.30467H8.60728C8.78119 2.30467 8.92229 2.44428 8.92229 2.61636V4.54547C8.92229 4.83822 9.16292 5.07686 9.45934 5.07686C9.75576 5.07686 9.99639 4.83876 9.99639 4.54547V2.61636C9.99639 2.44428 10.1375 2.30467 10.3114 2.30467H14.3688C14.5427 2.30467 14.6838 2.44428 14.6838 2.61636V4.54547C14.6838 4.83822 14.925 5.07686 15.2209 5.07686C15.5168 5.07686 15.7579 4.83876 15.7579 4.54547V2.61636C15.7579 2.44428 15.899 2.30467 16.073 2.30467H20.1298C20.3037 2.30467 20.4448 2.44428 20.4448 2.61636V4.54547C20.4448 4.83822 20.686 5.07686 20.9819 5.07686C21.2778 5.07686 21.519 4.83876 21.519 4.54547V2.61636C21.519 2.44428 21.6601 2.30467 21.834 2.30467H22.6062C23.5622 2.30467 24.3398 3.07415 24.3398 4.02004V22.6239C24.3388 23.5704 23.5611 24.3398 22.6051 24.3398ZM2.07351 2.92805C1.46481 2.92805 0.969868 3.41777 0.969868 4.02004V22.6239C0.969868 23.2262 1.46481 23.7159 2.07351 23.7159H22.6051C23.2138 23.7159 23.7087 23.2262 23.7087 22.6239V4.02058C23.7087 3.41831 23.2138 2.92859 22.6051 2.92859H22.1479V4.54601C22.1479 5.18292 21.6245 5.70077 20.9808 5.70077C20.3371 5.70077 19.8137 5.18292 19.8137 4.54601V2.92805H16.3863V4.54547C16.3863 5.18238 15.863 5.70023 15.2193 5.70023C14.5756 5.70023 14.0522 5.18238 14.0522 4.54547V2.92805H10.6248V4.54547C10.6248 5.18238 10.1014 5.70023 9.4577 5.70023C8.814 5.70023 8.29062 5.18238 8.29062 4.54547V2.92805H4.86322V4.54547C4.86322 5.18238 4.33984 5.70023 3.69615 5.70023C3.05245 5.70023 2.52907 5.18238 2.52907 4.54547V2.92805H2.07351Z" stroke="#1E3A8A" stroke-width="0.68" mask="url(#path-1-outside-1_25166_59124)"/>
<path d="M24.0237 8.11257H0.654856C0.480943 8.11257 0.339844 7.97296 0.339844 7.80088C0.339844 7.62881 0.480943 7.48919 0.654856 7.48919H24.0237C24.1977 7.48919 24.3388 7.62881 24.3388 7.80088C24.3388 7.97296 24.1977 8.11257 24.0237 8.11257Z" stroke="#1E3A8A" stroke-width="0.68" mask="url(#path-1-outside-1_25166_59124)"/>
</svg>
