<svg width="23" height="24" viewBox="0 0 23 24" fill="none" xmlns="http://www.w3.org/2000/svg">
<path d="M21.5782 12.5941V6.12965C21.5782 4.0438 19.9807 2.34667 18.017 2.34667H16.9578V0.763097C16.9578 0.341715 16.636 0 16.239 0C15.842 0 15.5203 0.341715 15.5203 0.763097V2.34667H6.0582V0.763097C6.0582 0.341715 5.73649 0 5.33945 0C4.94241 0 4.6207 0.341715 4.6207 0.763097V2.34667H3.56112C1.59749 2.34667 0 4.0438 0 6.12965V18.7078C0 20.7936 1.59749 22.4907 3.56112 22.4907H12.2586C13.3884 23.4347 14.8116 24 16.3576 24C20.0202 24 23 20.8361 23 16.947C23 15.3053 22.4675 13.794 21.5783 12.5943L21.5782 12.5941ZM1.43736 18.7078V6.1298C1.43736 4.88534 2.38999 3.87302 3.56098 3.87302H4.62056V5.95841C4.62056 6.37979 4.94227 6.72151 5.33931 6.72151C5.73634 6.72151 6.05806 6.37979 6.05806 5.95841V3.87302H15.5201V5.95841C15.5201 6.37979 15.8418 6.72151 16.2389 6.72151C16.6359 6.72151 16.9576 6.37979 16.9576 5.95841V3.87302H18.0169C19.1879 3.87302 20.1405 4.88534 20.1405 6.1298V11.1546C19.0661 10.361 17.7625 9.89401 16.3573 9.89401C12.6947 9.89401 9.71477 13.058 9.71477 16.947C9.71477 18.4392 10.1546 19.8237 10.9023 20.9647H3.56098C2.38999 20.9647 1.43736 19.9522 1.43736 18.7078ZM16.3575 22.4738C13.4873 22.4738 11.1524 19.9945 11.1524 16.947C11.1524 13.8995 13.4873 11.4202 16.3575 11.4202C19.2276 11.4202 21.5624 13.8995 21.5624 16.947C21.5624 19.9945 19.2274 22.4738 16.3575 22.4738Z" fill="#1E3A8A"/>
<path d="M16.3575 13.6657C15.9604 13.6657 15.6387 14.0074 15.6387 14.4288V17.268C15.6387 17.6893 15.9604 18.0311 16.3575 18.0311C16.7545 18.0311 17.0762 17.6893 17.0762 17.268V14.4288C17.0762 14.0074 16.7545 13.6657 16.3575 13.6657Z" fill="#1E3A8A"/>
<path d="M16.3575 18.6414C15.9604 18.6414 15.6387 18.9831 15.6387 19.4045V19.4651C15.6387 19.8864 15.9604 20.2282 16.3575 20.2282C16.7545 20.2282 17.0762 19.8864 17.0762 19.4651V19.4045C17.0762 18.9831 16.7545 18.6414 16.3575 18.6414Z" fill="#1E3A8A"/>
</svg>
