<svg width="26" height="26" viewBox="0 0 26 26" fill="none" xmlns="http://www.w3.org/2000/svg">
<path d="M6.98926 2.99512C8.21055 2.77651 9.40752 3.58881 9.64062 4.81738L10.2041 7.79395C10.4397 9.04258 9.61396 10.2408 8.36621 10.4668L7.3252 10.6543L7.32422 10.6553C7.30392 10.6589 7.29345 10.6728 7.29004 10.6787L7.28906 10.6797C7.28597 10.6849 7.2853 10.6883 7.28516 10.6895C7.28505 10.6905 7.28533 10.6919 7.28613 10.6943H7.28516C8.60891 14.4425 11.5153 17.362 15.2578 18.7051L15.293 18.709C15.3017 18.7075 15.3089 18.7042 15.3145 18.7012C15.3233 18.6961 15.3252 18.6953 15.3252 18.6953C15.3231 18.6972 15.3222 18.6986 15.3232 18.6963C15.3284 18.6851 15.3358 18.6592 15.3486 18.5869C15.373 18.4495 15.414 18.1769 15.5195 17.6299C15.7452 16.3849 16.9369 15.5583 18.1924 15.792L21.1592 16.3545C22.3865 16.5876 23.2035 17.7762 22.9805 19.0059L22.8506 19.7275C22.5295 21.4962 21.4798 23.0697 19.9707 24.0449C18.4572 25.0231 16.6689 25.3199 14.9414 24.8887C11.5293 24.0398 8.64246 22.3969 6.11719 19.8672C3.58176 17.3273 1.94331 14.4361 1.1084 11.0312C0.681971 9.29069 0.986075 7.49991 1.96484 5.99023C2.93858 4.48869 4.50867 3.44459 6.27051 3.125V3.12402L6.98926 2.99512ZM8.37695 5.05664C8.27592 4.52186 7.75833 4.16126 7.21875 4.25879C7.17068 4.27388 7.09614 4.28798 7.00879 4.30176C6.91015 4.31731 6.78637 4.33588 6.6416 4.3623C6.35247 4.41509 5.98068 4.4987 5.57227 4.65137C4.75569 4.95671 3.79006 5.53705 3.04199 6.69043C2.25799 7.8995 2.01461 9.33199 2.35645 10.7246C3.0954 13.7392 4.44471 16.2264 6.58789 18.5059L7.02734 18.959L7.47266 19.3916C9.72088 21.5086 12.2712 22.9009 15.251 23.6426C16.6371 23.9866 18.0658 23.7464 19.2734 22.9658C20.4853 22.1831 21.3284 20.9185 21.5859 19.498L21.7158 18.7773V18.7764C21.8132 18.2389 21.4566 17.7189 20.9199 17.6172L17.9531 17.0557C17.4081 16.9512 16.8826 17.3115 16.7842 17.8584L16.5957 18.9053C16.4504 19.715 15.6088 20.1948 14.8242 19.915C10.716 18.4406 7.52661 15.2342 6.07422 11.1201C5.9478 10.7609 5.98603 10.3654 6.17773 10.0342L6.25781 9.91211C6.45927 9.63855 6.75824 9.45101 7.0957 9.38965L8.13672 9.20117C8.40046 9.15371 8.62943 9.00552 8.78223 8.78418C8.93421 8.56296 8.99063 8.29708 8.94043 8.0332L8.37695 5.05664ZM18.3125 0.998047C22.1236 0.372749 25.4467 3.50419 25.0508 7.33789C24.6634 11.0852 20.6136 13.6254 16.9795 12.041C15.8772 12.4023 15.3296 12.5954 15.0215 12.6992C14.7108 12.8038 14.6363 12.8203 14.4834 12.8203C13.7815 12.8203 13.2523 12.1268 13.4854 11.4307L14.1543 9.42383C13.5778 8.34213 13.3629 7.07767 13.5488 5.82812C13.9136 3.3833 15.8722 1.39771 18.3125 0.998047ZM23.7725 7.20605C24.0808 4.21442 21.4963 1.77889 18.5195 2.2666C15.4065 2.77604 13.7743 6.33743 15.4033 9.02441C15.5012 9.1859 15.5232 9.38164 15.4639 9.56055L14.8496 11.3994L16.8125 10.7422L16.9355 10.7139C17.0603 10.698 17.1882 10.719 17.3018 10.7754L17.5693 10.8975C20.3466 12.0594 23.4729 10.1039 23.7725 7.20605ZM20.4004 4.81543C20.6514 4.56462 21.0586 4.56453 21.3096 4.81543C21.5605 5.06635 21.5604 5.47362 21.3096 5.72461L20.165 6.86914L21.3096 8.01367C21.5602 8.26451 21.56 8.67092 21.3096 8.92188C21.0586 9.17285 20.6515 9.17294 20.4004 8.92188L19.2559 7.77734L18.1113 8.92188C17.8604 9.17285 17.4542 9.17294 17.2031 8.92188C16.9522 8.6709 16.9522 8.26464 17.2031 8.01367L18.3477 6.86914L17.2031 5.72461C16.9521 5.47363 16.9521 5.0664 17.2031 4.81543C17.4541 4.56497 17.8605 4.56483 18.1113 4.81543L19.2559 5.95996L20.4004 4.81543Z" fill="#1E3A8A" stroke="#1E3A8A" stroke-width="0.16"/>
</svg>
