<svg width="24" height="24" viewBox="0 0 24 24" fill="none" xmlns="http://www.w3.org/2000/svg">
<path d="M16.7645 8.69011H20.019C20.3067 8.69011 20.5481 8.78797 20.7429 8.98368C20.9377 9.1794 21.0351 9.42188 21.0351 9.71112C21.0351 10.0049 20.9377 10.2479 20.7429 10.4402C20.5481 10.6324 20.3067 10.7285 20.019 10.7285H14.3378C14.0192 10.7285 13.7532 10.622 13.5399 10.4089C13.3266 10.1959 13.22 9.93276 13.22 9.61966V3.95221C13.22 3.66232 13.3187 3.4193 13.5161 3.22315C13.7136 3.02722 13.9582 2.92925 14.2499 2.92925C14.5461 2.92925 14.79 3.02722 14.9813 3.22315C15.1727 3.4193 15.2683 3.66232 15.2683 3.95221V7.26063L22.2357 0.308547C22.4364 0.102849 22.6778 0 22.9597 0C23.2416 0 23.4854 0.102849 23.6911 0.308547C23.897 0.514029 24 0.757591 24 1.03923C24 1.32087 23.897 1.56454 23.6911 1.77024L16.7645 8.69011ZM22.2025 24C19.6512 24 17.0554 23.3872 14.4151 22.1617C11.7745 20.9362 9.32647 19.1969 7.07101 16.9438C4.81577 14.6908 3.07346 12.2442 1.84407 9.60371C0.614691 6.96348 0 4.37163 0 1.82818C0 1.35711 0.158234 0.962854 0.474702 0.64541C0.790953 0.327749 1.18377 0.16892 1.65315 0.16892H6.21446C6.60695 0.16892 6.93645 0.294335 7.20297 0.545166C7.46948 0.79578 7.65399 1.12537 7.75651 1.53395L8.63391 5.49853C8.6893 5.87239 8.68203 6.2061 8.61209 6.49968C8.54215 6.79347 8.39705 7.04517 8.17681 7.25478L4.89494 10.488C5.43882 11.4011 6.0154 12.2544 6.62466 13.0479C7.2337 13.8411 7.91051 14.5963 8.65509 15.3135C9.43812 16.1224 10.2554 16.8543 11.1068 17.5091C11.9585 18.1642 12.847 18.7365 13.7726 19.226L16.9065 16.0132C17.1602 15.7381 17.4506 15.5519 17.7777 15.4547C18.105 15.3577 18.4352 15.3412 18.7682 15.4053L22.4892 16.2284C22.8982 16.341 23.2282 16.5487 23.479 16.8517C23.7301 17.1546 23.8557 17.5066 23.8557 17.9078V22.3486C23.8557 22.8203 23.6966 23.2134 23.3784 23.5281C23.0602 23.8427 22.6682 24 22.2025 24ZM3.78524 8.47985L6.41646 5.86533L5.67493 2.39417H2.23537C2.2736 3.27447 2.41228 4.20597 2.65143 5.18868C2.89057 6.17139 3.26851 7.26845 3.78524 8.47985ZM15.8307 20.3257C16.6954 20.7276 17.6373 21.0561 18.6564 21.3113C19.6758 21.5664 20.6663 21.7183 21.6281 21.7669V18.3169L18.3889 17.6474L15.8307 20.3257Z" fill="#1E3A8A"/>
</svg>
