<svg width="26" height="24" viewBox="0 0 26 24" fill="none" xmlns="http://www.w3.org/2000/svg">
<mask id="path-1-outside-1_24679_60218" maskUnits="userSpaceOnUse" x="0" y="-0.5" width="26" height="25" fill="black">
<rect fill="white" y="-0.5" width="26" height="25"/>
<path d="M8.97273 8.24314C9.50701 7.73562 9.61499 6.94675 9.23627 6.32616L7.12712 2.82914C6.80199 2.2925 6.18932 1.98047 5.56425 2.03836C4.8804 2.1039 3.83022 2.40672 2.71206 3.47887C-0.0765494 6.15137 0.0746188 11.6899 6.69721 18.0389C10.7715 21.9426 14.5251 23.5 17.4605 23.5C19.2989 23.5 20.8166 22.8886 21.89 21.8598C23.0085 20.7876 23.3249 19.7807 23.3929 19.1248V19.1233C23.452 18.5261 23.1277 17.9403 22.5674 17.6306L18.9206 15.6052C18.2716 15.2441 17.4481 15.3483 16.9178 15.8566L15.2186 17.4853C14.9707 17.723 14.6047 17.7885 14.2856 17.6509C13.4482 17.2906 12.0581 16.4845 10.1889 14.6925C8.32087 12.8997 7.48024 11.5688 7.10312 10.7677C6.95956 10.4622 7.02714 10.1114 7.27549 9.87301L8.97273 8.24314ZM5.64144 2.80154C5.66503 2.79924 5.68863 2.79809 5.71222 2.79809C6.00096 2.79809 6.2789 2.95602 6.43527 3.21361L8.54522 6.71178C8.74038 7.03147 8.68479 7.4374 8.40805 7.69998L8.1393 7.95833L5.22992 2.87322C5.37989 2.83681 5.51906 2.81304 5.64144 2.80154ZM18.5199 16.2687L22.1675 18.2945C22.4579 18.4551 22.6262 18.7514 22.597 19.0501C22.5846 19.1685 22.5594 19.303 22.521 19.4483L17.2134 16.6578L17.4833 16.399C17.7581 16.1357 18.184 16.0828 18.5199 16.2687ZM6.37408 11.0831C6.77839 11.9422 7.6698 13.3601 9.62299 15.2349C11.5786 17.1093 13.0595 17.9637 13.9577 18.3505C14.5723 18.6154 15.3066 18.4862 15.7841 18.0277L16.6243 17.2224L22.2263 20.1682C22.0328 20.5224 21.7496 20.9107 21.3245 21.3181C18.8174 23.7208 13.4978 23.4705 7.26269 17.4972C1.03042 11.5224 0.770471 6.42352 3.27754 4.0205C3.70345 3.61188 4.10936 3.34049 4.47928 3.15496L7.55063 8.52334L6.70961 9.331C6.23171 9.78945 6.09694 10.4932 6.37408 11.0824V11.0831Z"/>
<path d="M15.139 12.0008C15.139 12.2998 15.261 12.5804 15.4805 12.7905L16.5639 13.8315C16.7919 14.047 17.0902 14.1551 17.3885 14.1551C17.6869 14.1551 17.986 14.047 18.2128 13.8296L22.8098 9.42874L23.2209 9.82241C23.4932 10.0831 23.884 10.1613 24.2387 10.0286C24.5882 9.89754 24.815 9.59242 24.8306 9.23402L24.9989 5.67145C25.0117 5.41655 24.9101 5.16624 24.721 4.98454C24.5306 4.8017 24.2631 4.70281 23.9991 4.71622L20.2751 4.87377C19.8996 4.8914 19.5825 5.11066 19.4473 5.44606C19.3105 5.78606 19.3933 6.1575 19.6633 6.41586L20.074 6.80914L15.4809 11.2096C15.2606 11.4209 15.1394 11.7018 15.1394 12.0004L15.139 12.0008ZM16.0464 11.7524L20.9222 7.08053C20.9974 7.00847 21.0394 6.91149 21.0394 6.80953C21.0394 6.70756 20.9974 6.6102 20.9222 6.53852L20.2287 5.87384C20.1659 5.81405 20.1835 5.74812 20.1935 5.72205C20.2079 5.6864 20.2403 5.64309 20.3123 5.63964L24.0359 5.48209H24.0439C24.1003 5.48209 24.1379 5.50969 24.1555 5.52694C24.1735 5.54381 24.2027 5.58099 24.1999 5.63504V5.63619L24.0315 9.20144C24.0283 9.27043 23.9843 9.30148 23.9475 9.31528C23.9132 9.32793 23.8476 9.33981 23.786 9.2804L23.0925 8.61611C22.9362 8.46623 22.6834 8.46623 22.527 8.61611L17.6473 13.288C17.5033 13.4268 17.2738 13.426 17.1282 13.2888L16.0464 12.2492C15.9776 12.1833 15.9396 12.0955 15.9392 12.0016C15.9392 11.9077 15.9776 11.8191 16.0468 11.7532L16.0464 11.7524Z"/>
<path d="M19.039 0.823618C18.5815 0.391617 17.8424 0.392 17.3905 0.825534L12.7935 5.22642L12.3828 4.83275C12.1101 4.57248 11.7197 4.49313 11.3646 4.62614C11.0151 4.75685 10.7883 5.06198 10.7727 5.42076L10.6044 8.98371C10.5916 9.23862 10.6928 9.48854 10.8815 9.67023C11.0619 9.84273 11.307 9.94009 11.5598 9.94009C11.5746 9.94009 11.5894 9.94009 11.6038 9.93894L15.3258 9.7814H15.3278C15.7033 9.76377 16.0204 9.54451 16.1556 9.2091C16.2924 8.8691 16.2096 8.49766 15.9404 8.24007L15.5285 7.84295L20.122 3.44514C20.3423 3.23393 20.4635 2.95334 20.4635 2.65473C20.4635 2.35613 20.3419 2.07477 20.122 1.86433L19.039 0.823618ZM19.5565 2.90274L14.6807 7.57118C14.5247 7.72067 14.5243 7.96255 14.6799 8.11243L15.3742 8.78132C15.437 8.8415 15.4194 8.90743 15.4094 8.93311C15.395 8.96876 15.3626 9.01169 15.2894 9.01553L11.5674 9.17307C11.509 9.17652 11.4658 9.14624 11.447 9.12822C11.4294 9.11136 11.4002 9.07456 11.403 9.01936L11.5714 5.45373C11.5746 5.38473 11.6186 5.35368 11.6554 5.34026C11.669 5.3349 11.6885 5.32992 11.7109 5.32992C11.7429 5.32992 11.7805 5.34026 11.8173 5.37515L12.5108 6.03944C12.6671 6.18932 12.9199 6.18932 13.0763 6.03944L17.956 1.36755C18.1 1.22879 18.3295 1.22955 18.4751 1.36678L19.5565 2.40596C19.6257 2.47189 19.6641 2.56005 19.6641 2.65397C19.6641 2.74788 19.6257 2.83604 19.5565 2.90197V2.90274Z"/>
</mask>
<path d="M8.97273 8.24314C9.50701 7.73562 9.61499 6.94675 9.23627 6.32616L7.12712 2.82914C6.80199 2.2925 6.18932 1.98047 5.56425 2.03836C4.8804 2.1039 3.83022 2.40672 2.71206 3.47887C-0.0765494 6.15137 0.0746188 11.6899 6.69721 18.0389C10.7715 21.9426 14.5251 23.5 17.4605 23.5C19.2989 23.5 20.8166 22.8886 21.89 21.8598C23.0085 20.7876 23.3249 19.7807 23.3929 19.1248V19.1233C23.452 18.5261 23.1277 17.9403 22.5674 17.6306L18.9206 15.6052C18.2716 15.2441 17.4481 15.3483 16.9178 15.8566L15.2186 17.4853C14.9707 17.723 14.6047 17.7885 14.2856 17.6509C13.4482 17.2906 12.0581 16.4845 10.1889 14.6925C8.32087 12.8997 7.48024 11.5688 7.10312 10.7677C6.95956 10.4622 7.02714 10.1114 7.27549 9.87301L8.97273 8.24314ZM5.64144 2.80154C5.66503 2.79924 5.68863 2.79809 5.71222 2.79809C6.00096 2.79809 6.2789 2.95602 6.43527 3.21361L8.54522 6.71178C8.74038 7.03147 8.68479 7.4374 8.40805 7.69998L8.1393 7.95833L5.22992 2.87322C5.37989 2.83681 5.51906 2.81304 5.64144 2.80154ZM18.5199 16.2687L22.1675 18.2945C22.4579 18.4551 22.6262 18.7514 22.597 19.0501C22.5846 19.1685 22.5594 19.303 22.521 19.4483L17.2134 16.6578L17.4833 16.399C17.7581 16.1357 18.184 16.0828 18.5199 16.2687ZM6.37408 11.0831C6.77839 11.9422 7.6698 13.3601 9.62299 15.2349C11.5786 17.1093 13.0595 17.9637 13.9577 18.3505C14.5723 18.6154 15.3066 18.4862 15.7841 18.0277L16.6243 17.2224L22.2263 20.1682C22.0328 20.5224 21.7496 20.9107 21.3245 21.3181C18.8174 23.7208 13.4978 23.4705 7.26269 17.4972C1.03042 11.5224 0.770471 6.42352 3.27754 4.0205C3.70345 3.61188 4.10936 3.34049 4.47928 3.15496L7.55063 8.52334L6.70961 9.331C6.23171 9.78945 6.09694 10.4932 6.37408 11.0824V11.0831Z" fill="#1E3A8A"/>
<path d="M15.139 12.0008C15.139 12.2998 15.261 12.5804 15.4805 12.7905L16.5639 13.8315C16.7919 14.047 17.0902 14.1551 17.3885 14.1551C17.6869 14.1551 17.986 14.047 18.2128 13.8296L22.8098 9.42874L23.2209 9.82241C23.4932 10.0831 23.884 10.1613 24.2387 10.0286C24.5882 9.89754 24.815 9.59242 24.8306 9.23402L24.9989 5.67145C25.0117 5.41655 24.9101 5.16624 24.721 4.98454C24.5306 4.8017 24.2631 4.70281 23.9991 4.71622L20.2751 4.87377C19.8996 4.8914 19.5825 5.11066 19.4473 5.44606C19.3105 5.78606 19.3933 6.1575 19.6633 6.41586L20.074 6.80914L15.4809 11.2096C15.2606 11.4209 15.1394 11.7018 15.1394 12.0004L15.139 12.0008ZM16.0464 11.7524L20.9222 7.08053C20.9974 7.00847 21.0394 6.91149 21.0394 6.80953C21.0394 6.70756 20.9974 6.6102 20.9222 6.53852L20.2287 5.87384C20.1659 5.81405 20.1835 5.74812 20.1935 5.72205C20.2079 5.6864 20.2403 5.64309 20.3123 5.63964L24.0359 5.48209H24.0439C24.1003 5.48209 24.1379 5.50969 24.1555 5.52694C24.1735 5.54381 24.2027 5.58099 24.1999 5.63504V5.63619L24.0315 9.20144C24.0283 9.27043 23.9843 9.30148 23.9475 9.31528C23.9132 9.32793 23.8476 9.33981 23.786 9.2804L23.0925 8.61611C22.9362 8.46623 22.6834 8.46623 22.527 8.61611L17.6473 13.288C17.5033 13.4268 17.2738 13.426 17.1282 13.2888L16.0464 12.2492C15.9776 12.1833 15.9396 12.0955 15.9392 12.0016C15.9392 11.9077 15.9776 11.8191 16.0468 11.7532L16.0464 11.7524Z" fill="#1E3A8A"/>
<path d="M19.039 0.823618C18.5815 0.391617 17.8424 0.392 17.3905 0.825534L12.7935 5.22642L12.3828 4.83275C12.1101 4.57248 11.7197 4.49313 11.3646 4.62614C11.0151 4.75685 10.7883 5.06198 10.7727 5.42076L10.6044 8.98371C10.5916 9.23862 10.6928 9.48854 10.8815 9.67023C11.0619 9.84273 11.307 9.94009 11.5598 9.94009C11.5746 9.94009 11.5894 9.94009 11.6038 9.93894L15.3258 9.7814H15.3278C15.7033 9.76377 16.0204 9.54451 16.1556 9.2091C16.2924 8.8691 16.2096 8.49766 15.9404 8.24007L15.5285 7.84295L20.122 3.44514C20.3423 3.23393 20.4635 2.95334 20.4635 2.65473C20.4635 2.35613 20.3419 2.07477 20.122 1.86433L19.039 0.823618ZM19.5565 2.90274L14.6807 7.57118C14.5247 7.72067 14.5243 7.96255 14.6799 8.11243L15.3742 8.78132C15.437 8.8415 15.4194 8.90743 15.4094 8.93311C15.395 8.96876 15.3626 9.01169 15.2894 9.01553L11.5674 9.17307C11.509 9.17652 11.4658 9.14624 11.447 9.12822C11.4294 9.11136 11.4002 9.07456 11.403 9.01936L11.5714 5.45373C11.5746 5.38473 11.6186 5.35368 11.6554 5.34026C11.669 5.3349 11.6885 5.32992 11.7109 5.32992C11.7429 5.32992 11.7805 5.34026 11.8173 5.37515L12.5108 6.03944C12.6671 6.18932 12.9199 6.18932 13.0763 6.03944L17.956 1.36755C18.1 1.22879 18.3295 1.22955 18.4751 1.36678L19.5565 2.40596C19.6257 2.47189 19.6641 2.56005 19.6641 2.65397C19.6641 2.74788 19.6257 2.83604 19.5565 2.90197V2.90274Z" fill="#1E3A8A"/>
<path d="M8.97273 8.24314C9.50701 7.73562 9.61499 6.94675 9.23627 6.32616L7.12712 2.82914C6.80199 2.2925 6.18932 1.98047 5.56425 2.03836C4.8804 2.1039 3.83022 2.40672 2.71206 3.47887C-0.0765494 6.15137 0.0746188 11.6899 6.69721 18.0389C10.7715 21.9426 14.5251 23.5 17.4605 23.5C19.2989 23.5 20.8166 22.8886 21.89 21.8598C23.0085 20.7876 23.3249 19.7807 23.3929 19.1248V19.1233C23.452 18.5261 23.1277 17.9403 22.5674 17.6306L18.9206 15.6052C18.2716 15.2441 17.4481 15.3483 16.9178 15.8566L15.2186 17.4853C14.9707 17.723 14.6047 17.7885 14.2856 17.6509C13.4482 17.2906 12.0581 16.4845 10.1889 14.6925C8.32087 12.8997 7.48024 11.5688 7.10312 10.7677C6.95956 10.4622 7.02714 10.1114 7.27549 9.87301L8.97273 8.24314ZM5.64144 2.80154C5.66503 2.79924 5.68863 2.79809 5.71222 2.79809C6.00096 2.79809 6.2789 2.95602 6.43527 3.21361L8.54522 6.71178C8.74038 7.03147 8.68479 7.4374 8.40805 7.69998L8.1393 7.95833L5.22992 2.87322C5.37989 2.83681 5.51906 2.81304 5.64144 2.80154ZM18.5199 16.2687L22.1675 18.2945C22.4579 18.4551 22.6262 18.7514 22.597 19.0501C22.5846 19.1685 22.5594 19.303 22.521 19.4483L17.2134 16.6578L17.4833 16.399C17.7581 16.1357 18.184 16.0828 18.5199 16.2687ZM6.37408 11.0831C6.77839 11.9422 7.6698 13.3601 9.62299 15.2349C11.5786 17.1093 13.0595 17.9637 13.9577 18.3505C14.5723 18.6154 15.3066 18.4862 15.7841 18.0277L16.6243 17.2224L22.2263 20.1682C22.0328 20.5224 21.7496 20.9107 21.3245 21.3181C18.8174 23.7208 13.4978 23.4705 7.26269 17.4972C1.03042 11.5224 0.770471 6.42352 3.27754 4.0205C3.70345 3.61188 4.10936 3.34049 4.47928 3.15496L7.55063 8.52334L6.70961 9.331C6.23171 9.78945 6.09694 10.4932 6.37408 11.0824V11.0831Z" stroke="#1E3A8A" stroke-width="0.68" mask="url(#path-1-outside-1_24679_60218)"/>
<path d="M15.139 12.0008C15.139 12.2998 15.261 12.5804 15.4805 12.7905L16.5639 13.8315C16.7919 14.047 17.0902 14.1551 17.3885 14.1551C17.6869 14.1551 17.986 14.047 18.2128 13.8296L22.8098 9.42874L23.2209 9.82241C23.4932 10.0831 23.884 10.1613 24.2387 10.0286C24.5882 9.89754 24.815 9.59242 24.8306 9.23402L24.9989 5.67145C25.0117 5.41655 24.9101 5.16624 24.721 4.98454C24.5306 4.8017 24.2631 4.70281 23.9991 4.71622L20.2751 4.87377C19.8996 4.8914 19.5825 5.11066 19.4473 5.44606C19.3105 5.78606 19.3933 6.1575 19.6633 6.41586L20.074 6.80914L15.4809 11.2096C15.2606 11.4209 15.1394 11.7018 15.1394 12.0004L15.139 12.0008ZM16.0464 11.7524L20.9222 7.08053C20.9974 7.00847 21.0394 6.91149 21.0394 6.80953C21.0394 6.70756 20.9974 6.6102 20.9222 6.53852L20.2287 5.87384C20.1659 5.81405 20.1835 5.74812 20.1935 5.72205C20.2079 5.6864 20.2403 5.64309 20.3123 5.63964L24.0359 5.48209H24.0439C24.1003 5.48209 24.1379 5.50969 24.1555 5.52694C24.1735 5.54381 24.2027 5.58099 24.1999 5.63504V5.63619L24.0315 9.20144C24.0283 9.27043 23.9843 9.30148 23.9475 9.31528C23.9132 9.32793 23.8476 9.33981 23.786 9.2804L23.0925 8.61611C22.9362 8.46623 22.6834 8.46623 22.527 8.61611L17.6473 13.288C17.5033 13.4268 17.2738 13.426 17.1282 13.2888L16.0464 12.2492C15.9776 12.1833 15.9396 12.0955 15.9392 12.0016C15.9392 11.9077 15.9776 11.8191 16.0468 11.7532L16.0464 11.7524Z" stroke="#1E3A8A" stroke-width="0.68" mask="url(#path-1-outside-1_24679_60218)"/>
<path d="M19.039 0.823618C18.5815 0.391617 17.8424 0.392 17.3905 0.825534L12.7935 5.22642L12.3828 4.83275C12.1101 4.57248 11.7197 4.49313 11.3646 4.62614C11.0151 4.75685 10.7883 5.06198 10.7727 5.42076L10.6044 8.98371C10.5916 9.23862 10.6928 9.48854 10.8815 9.67023C11.0619 9.84273 11.307 9.94009 11.5598 9.94009C11.5746 9.94009 11.5894 9.94009 11.6038 9.93894L15.3258 9.7814H15.3278C15.7033 9.76377 16.0204 9.54451 16.1556 9.2091C16.2924 8.8691 16.2096 8.49766 15.9404 8.24007L15.5285 7.84295L20.122 3.44514C20.3423 3.23393 20.4635 2.95334 20.4635 2.65473C20.4635 2.35613 20.3419 2.07477 20.122 1.86433L19.039 0.823618ZM19.5565 2.90274L14.6807 7.57118C14.5247 7.72067 14.5243 7.96255 14.6799 8.11243L15.3742 8.78132C15.437 8.8415 15.4194 8.90743 15.4094 8.93311C15.395 8.96876 15.3626 9.01169 15.2894 9.01553L11.5674 9.17307C11.509 9.17652 11.4658 9.14624 11.447 9.12822C11.4294 9.11136 11.4002 9.07456 11.403 9.01936L11.5714 5.45373C11.5746 5.38473 11.6186 5.35368 11.6554 5.34026C11.669 5.3349 11.6885 5.32992 11.7109 5.32992C11.7429 5.32992 11.7805 5.34026 11.8173 5.37515L12.5108 6.03944C12.6671 6.18932 12.9199 6.18932 13.0763 6.03944L17.956 1.36755C18.1 1.22879 18.3295 1.22955 18.4751 1.36678L19.5565 2.40596C19.6257 2.47189 19.6641 2.56005 19.6641 2.65397C19.6641 2.74788 19.6257 2.83604 19.5565 2.90197V2.90274Z" stroke="#1E3A8A" stroke-width="0.68" mask="url(#path-1-outside-1_24679_60218)"/>
</svg>
