<svg width="24" height="24" viewBox="0 0 24 24" fill="none" xmlns="http://www.w3.org/2000/svg">
<path d="M17.7437 6.25632H14.5783C14.2864 6.25632 14.0417 6.15821 13.8444 5.96198C13.6469 5.76553 13.5481 5.51958 13.5481 5.22414C13.5481 4.92871 13.6469 4.68342 13.8444 4.48828C14.0417 4.29314 14.2864 4.19558 14.5783 4.19558H17.7437V1.03054C17.7437 0.741435 17.8429 0.497459 18.0413 0.298606C18.2397 0.0995352 18.4855 0 18.7788 0C19.0701 0 19.3138 0.0995352 19.5101 0.298606C19.7063 0.497459 19.8044 0.741435 19.8044 1.03054V4.19558H22.9695C23.2614 4.19558 23.5061 4.29489 23.7037 4.49353C23.9012 4.69216 24 4.93821 24 5.23169C24 5.52975 23.9012 5.77503 23.7037 5.96755C23.5061 6.16007 23.2614 6.25632 22.9695 6.25632H19.8044V9.42955C19.8044 9.71909 19.7043 9.96187 19.5042 10.1579C19.304 10.3539 19.0584 10.4519 18.7673 10.4519C18.476 10.4519 18.2326 10.3543 18.037 10.1592C17.8415 9.96383 17.7437 9.71702 17.7437 9.41874V6.25632ZM22.3368 24C19.7701 24 17.1586 23.3829 14.5023 22.1487C11.8457 20.9145 9.3829 19.1629 7.11379 16.8937C4.84491 14.6249 3.09205 12.1608 1.85523 9.50167C0.61841 6.84272 0 4.2325 0 1.67102C0 1.19661 0.159191 0.799562 0.477574 0.479867C0.795739 0.159955 1.19093 0 1.66315 0H6.25206C6.64693 0 6.97842 0.126304 7.24655 0.378913C7.51467 0.631303 7.7003 0.963232 7.80344 1.3747L8.68615 5.36739C8.74187 5.7439 8.73455 6.07998 8.66419 6.37563C8.59383 6.67151 8.44786 6.92499 8.22628 7.13608L4.92456 10.3922C5.47173 11.3118 6.05179 12.1711 6.66474 12.9702C7.27747 13.7691 7.95837 14.5297 8.70746 15.2519C9.49522 16.0665 10.3174 16.8036 11.174 17.4631C12.0308 18.1228 12.9248 18.6992 13.8559 19.1921L17.0088 15.9566C17.264 15.6795 17.5562 15.4921 17.8853 15.3942C18.2146 15.2965 18.5467 15.2799 18.8817 15.3443L22.6253 16.1733C23.0368 16.2867 23.3687 16.4959 23.6211 16.801C23.8737 17.106 24 17.4606 24 17.8646V22.3368C24 22.8119 23.8399 23.2079 23.5198 23.5247C23.1997 23.8416 22.8054 24 22.3368 24ZM3.80814 8.36984L6.45529 5.73679L5.70926 2.24103H2.24889C2.28735 3.12756 2.42688 4.06566 2.66747 5.05534C2.90806 6.04501 3.28828 7.14985 3.80814 8.36984ZM15.9265 20.2997C16.7964 20.7044 17.744 21.0352 18.7693 21.2922C19.7948 21.5492 20.7914 21.7022 21.759 21.7511V18.2766L18.5002 17.6024L15.9265 20.2997Z" fill="#1E3A8A"/>
</svg>
