<svg width="30" height="30" viewBox="0 0 30 30" fill="none" xmlns="http://www.w3.org/2000/svg">
<path d="M15 18.4615C14.6577 18.4615 14.3231 18.36 14.0384 18.1698C13.7538 17.9797 13.532 17.7094 13.401 17.3931C13.27 17.0768 13.2357 16.7288 13.3025 16.3931C13.3693 16.0574 13.5341 15.749 13.7762 15.5069C14.0182 15.2649 14.3266 15.1 14.6623 15.0333C14.9981 14.9665 15.3461 15.0007 15.6623 15.1317C15.9786 15.2627 16.2489 15.4846 16.4391 15.7692C16.6293 16.0538 16.7308 16.3885 16.7308 16.7308C16.7308 17.1898 16.5484 17.63 16.2238 17.9546C15.8993 18.2792 15.459 18.4615 15 18.4615ZM30 15C30 17.9667 29.1203 20.8668 27.472 23.3335C25.8238 25.8003 23.4811 27.7229 20.7403 28.8582C17.9994 29.9935 14.9834 30.2906 12.0736 29.7118C9.16393 29.133 6.49119 27.7044 4.3934 25.6066C2.29562 23.5088 0.867006 20.8361 0.288227 17.9264C-0.290551 15.0166 0.00649927 12.0006 1.14181 9.25975C2.27713 6.51886 4.19971 4.17618 6.66645 2.52796C9.13319 0.879735 12.0333 0 15 0C18.977 0.00419974 22.7898 1.5859 25.602 4.39804C28.4141 7.21017 29.9958 11.023 30 15ZM2.3077 15V15.0476C5.85163 12.0373 10.3501 10.3846 15 10.3846C19.6499 10.3846 24.1484 12.0373 27.6923 15.0476V15C27.6923 11.6338 26.3551 8.40545 23.9748 6.02518C21.5946 3.64491 18.3662 2.30769 15 2.30769C11.6338 2.30769 8.40546 3.64491 6.02519 6.02518C3.64492 8.40545 2.3077 11.6338 2.3077 15ZM12.0433 27.3433L9.58414 20.7692H3.69664C4.53298 22.401 5.71164 23.8331 7.15212 24.9676C8.59259 26.1022 10.261 26.9125 12.0433 27.3433ZM15 27.6923C15.1197 27.6923 15.2394 27.6923 15.3591 27.6923L18.2538 19.9659C18.42 19.5262 18.7159 19.1474 19.1023 18.8797C19.4887 18.6121 19.9473 18.4683 20.4173 18.4673H27.2135C27.2683 18.2784 27.3173 18.0865 27.3577 17.8904C25.7463 16.2463 23.8231 14.9402 21.7006 14.0486C19.5782 13.1569 17.2992 12.6977 14.9971 12.6977C12.695 12.6977 10.416 13.1569 8.29361 14.0486C6.17118 14.9402 4.24796 16.2463 2.63654 17.8904C2.68126 18.0836 2.73029 18.2755 2.78078 18.4673H9.58414C10.0543 18.4686 10.513 18.6127 10.8993 18.8806C11.2857 19.1485 11.5815 19.5275 11.7476 19.9673L14.6322 27.6923C14.7563 27.6923 14.8774 27.6923 15 27.6923ZM26.3034 20.7692H20.4159L17.951 27.3447C19.7345 26.9146 21.4041 26.1045 22.8457 24.9696C24.2872 23.8348 25.4667 22.402 26.3034 20.7692Z" fill="#1E3A8A"/>
</svg>
