<svg width="26" height="20" viewBox="0 0 26 20" fill="none" xmlns="http://www.w3.org/2000/svg">
<path d="M25.1333 7.82609H23.9633L20.9538 1.03261C20.8176 0.725247 20.5955 0.464108 20.3144 0.280831C20.0333 0.0975539 19.7052 4.0263e-06 19.37 0H6.63C6.29475 4.0263e-06 5.9667 0.0975539 5.68558 0.280831C5.40447 0.464108 5.18236 0.725247 5.04617 1.03261L2.03667 7.82609H0.866667C0.636812 7.82609 0.416372 7.9177 0.253841 8.08078C0.0913092 8.24385 0 8.46503 0 8.69565C0 8.92628 0.0913092 9.14745 0.253841 9.31053C0.416372 9.4736 0.636812 9.56522 0.866667 9.56522H1.73333V18.2609C1.73333 18.7221 1.91595 19.1645 2.24101 19.4906C2.56608 19.8168 3.00696 20 3.46667 20H6.06667C6.52638 20 6.96726 19.8168 7.29232 19.4906C7.61738 19.1645 7.8 18.7221 7.8 18.2609V16.5217H18.2V18.2609C18.2 18.7221 18.3826 19.1645 18.7077 19.4906C19.0327 19.8168 19.4736 20 19.9333 20H22.5333C22.993 20 23.4339 19.8168 23.759 19.4906C24.084 19.1645 24.2667 18.7221 24.2667 18.2609V9.56522H25.1333C25.3632 9.56522 25.5836 9.4736 25.7462 9.31053C25.9087 9.14745 26 8.92628 26 8.69565C26 8.46503 25.9087 8.24385 25.7462 8.08078C25.5836 7.9177 25.3632 7.82609 25.1333 7.82609ZM6.63 1.73913H19.37L22.0664 7.82609H3.93358L6.63 1.73913ZM6.06667 18.2609H3.46667V16.5217H6.06667V18.2609ZM19.9333 18.2609V16.5217H22.5333V18.2609H19.9333ZM22.5333 14.7826H3.46667V9.56522H22.5333V14.7826ZM5.2 12.1739C5.2 11.9433 5.29131 11.7221 5.45384 11.559C5.61637 11.396 5.83681 11.3043 6.06667 11.3043H7.8C8.02985 11.3043 8.25029 11.396 8.41283 11.559C8.57536 11.7221 8.66667 11.9433 8.66667 12.1739C8.66667 12.4045 8.57536 12.6257 8.41283 12.7888C8.25029 12.9519 8.02985 13.0435 7.8 13.0435H6.06667C5.83681 13.0435 5.61637 12.9519 5.45384 12.7888C5.29131 12.6257 5.2 12.4045 5.2 12.1739ZM17.3333 12.1739C17.3333 11.9433 17.4246 11.7221 17.5872 11.559C17.7497 11.396 17.9701 11.3043 18.2 11.3043H19.9333C20.1632 11.3043 20.3836 11.396 20.5462 11.559C20.7087 11.7221 20.8 11.9433 20.8 12.1739C20.8 12.4045 20.7087 12.6257 20.5462 12.7888C20.3836 12.9519 20.1632 13.0435 19.9333 13.0435H18.2C17.9701 13.0435 17.7497 12.9519 17.5872 12.7888C17.4246 12.6257 17.3333 12.4045 17.3333 12.1739Z" fill="#1E3A8A"/>
</svg>
