<svg width="25" height="25" viewBox="0 0 25 25" fill="none" xmlns="http://www.w3.org/2000/svg">
<mask id="path-1-outside-1_25089_32021" maskUnits="userSpaceOnUse" x="-0.800781" y="-0.800781" width="26" height="26" fill="black">
<rect fill="white" x="-0.800781" y="-0.800781" width="26" height="26"/>
<path d="M22.2637 15.6831H11.425C11.2113 15.6831 11.0379 15.8561 11.0379 16.0702V22.2637C11.0379 22.4778 11.2113 22.6508 11.425 22.6508H22.2637C22.4774 22.6508 22.6508 22.4778 22.6508 22.2637V16.0702C22.6508 15.8561 22.4774 15.6831 22.2637 15.6831ZM21.8766 21.8766H11.8121V16.4573H21.8766V21.8766Z"/>
<path d="M23.8121 11.0379H21.8766V9.87664C21.8766 9.66257 21.7032 9.48954 21.4895 9.48954H19.167C18.9533 9.48954 18.7799 9.66257 18.7799 9.87664V11.0379H17.2315V4.45728C17.2315 4.35432 17.1908 4.25599 17.1181 4.18361L13.2471 0.312638C13.1743 0.239864 13.076 0.199219 12.9734 0.199219H0.586316C0.372638 0.199219 0.199219 0.372251 0.199219 0.586316V23.8121C0.199219 24.0262 0.372638 24.1992 0.586316 24.1992H23.8121C24.0258 24.1992 24.1992 24.0262 24.1992 23.8121V11.425C24.1992 11.211 24.0258 11.0379 23.8121 11.0379ZM19.5541 10.2637H21.1024V12.5863H19.5541V10.2637ZM19.167 13.3605H21.4895C21.7032 13.3605 21.8766 13.1875 21.8766 12.9734V11.8121H23.425V14.1347H10.2637V11.8121H11.8121V12.9734C11.8121 13.1875 11.9855 13.3605 12.1992 13.3605H14.5218C14.7355 13.3605 14.9089 13.1875 14.9089 12.9734V11.8121H18.7799V12.9734C18.7799 13.1875 18.9533 13.3605 19.167 13.3605ZM12.5863 12.5863V10.2637H14.1347V12.5863H12.5863ZM13.3605 1.52077L15.9099 4.07019H13.3605V1.52077ZM0.973412 0.973412H12.5863V4.45728C12.5863 4.67135 12.7597 4.84438 12.9734 4.84438H16.4573V11.0379H14.9089V9.87664C14.9089 9.66257 14.7355 9.48954 14.5218 9.48954H12.1992C11.9855 9.48954 11.8121 9.66257 11.8121 9.87664V11.0379H9.87664C9.66296 11.0379 9.48954 11.211 9.48954 11.425V11.8121H4.84438V12.5863H9.48954V15.6831H4.84438V16.4573H9.48954V19.5541H4.84438V20.3283H9.48954V23.425H0.973412V0.973412ZM10.2637 23.425V14.9089H23.425V23.425H10.2637Z"/>
<path d="M2.9089 14.9089C2.26864 14.9089 1.74761 15.4299 1.74761 16.0702C1.74761 16.7104 2.26864 17.2315 2.9089 17.2315C3.54915 17.2315 4.07019 16.7104 4.07019 16.0702C4.07019 15.4299 3.54915 14.9089 2.9089 14.9089ZM2.9089 16.4573C2.69561 16.4573 2.5218 16.2839 2.5218 16.0702C2.5218 15.8565 2.69561 15.6831 2.9089 15.6831C3.12219 15.6831 3.29599 15.8565 3.29599 16.0702C3.29599 16.2839 3.12219 16.4573 2.9089 16.4573Z"/>
<path d="M2.9089 18.7799C2.26864 18.7799 1.74761 19.3009 1.74761 19.9412C1.74761 20.5814 2.26864 21.1024 2.9089 21.1024C3.54915 21.1024 4.07019 20.5814 4.07019 19.9412C4.07019 19.3009 3.54915 18.7799 2.9089 18.7799ZM2.9089 20.3283C2.69561 20.3283 2.5218 20.1548 2.5218 19.9412C2.5218 19.7275 2.69561 19.5541 2.9089 19.5541C3.12219 19.5541 3.29599 19.7275 3.29599 19.9412C3.29599 20.1548 3.12219 20.3283 2.9089 20.3283Z"/>
<path d="M2.9089 7.16696C2.26864 7.16696 1.74761 7.68799 1.74761 8.32825C1.74761 8.96851 2.26864 9.48954 2.9089 9.48954C3.54915 9.48954 4.07019 8.96851 4.07019 8.32825C4.07019 7.68799 3.54915 7.16696 2.9089 7.16696ZM2.9089 8.71535C2.69561 8.71535 2.5218 8.54193 2.5218 8.32825C2.5218 8.11457 2.69561 7.94115 2.9089 7.94115C3.12219 7.94115 3.29599 8.11457 3.29599 8.32825C3.29599 8.54193 3.12219 8.71535 2.9089 8.71535Z"/>
<path d="M2.9089 11.0379C2.26864 11.0379 1.74761 11.559 1.74761 12.1992C1.74761 12.8395 2.26864 13.3605 2.9089 13.3605C3.54915 13.3605 4.07019 12.8395 4.07019 12.1992C4.07019 11.559 3.54915 11.0379 2.9089 11.0379ZM2.9089 12.5863C2.69561 12.5863 2.5218 12.4129 2.5218 12.1992C2.5218 11.9855 2.69561 11.8121 2.9089 11.8121C3.12219 11.8121 3.29599 11.9855 3.29599 12.1992C3.29599 12.4129 3.12219 12.5863 2.9089 12.5863Z"/>
<path d="M4.84438 7.94115H11.8121V8.71535H4.84438V7.94115Z"/>
<path d="M2.9089 3.29599C2.26864 3.29599 1.74761 3.81703 1.74761 4.45728C1.74761 5.09754 2.26864 5.61857 2.9089 5.61857C3.54915 5.61857 4.07019 5.09754 4.07019 4.45728C4.07019 3.81703 3.54915 3.29599 2.9089 3.29599ZM2.9089 4.84438C2.69561 4.84438 2.5218 4.67096 2.5218 4.45728C2.5218 4.24361 2.69561 4.07019 2.9089 4.07019C3.12219 4.07019 3.29599 4.24361 3.29599 4.45728C3.29599 4.67096 3.12219 4.84438 2.9089 4.84438Z"/>
<path d="M4.84438 4.07019H11.8121V4.84438H4.84438V4.07019Z"/>
<path d="M15.1826 21.3761L16.8444 19.7143L18.5062 21.3761L19.0535 20.8288L17.3917 19.167L19.0535 17.5052L18.5062 16.9578L16.8444 18.6196L15.1826 16.9578L14.6352 17.5052L16.297 19.167L14.6352 20.8288L15.1826 21.3761Z"/>
</mask>
<path d="M22.2637 15.6831H11.425C11.2113 15.6831 11.0379 15.8561 11.0379 16.0702V22.2637C11.0379 22.4778 11.2113 22.6508 11.425 22.6508H22.2637C22.4774 22.6508 22.6508 22.4778 22.6508 22.2637V16.0702C22.6508 15.8561 22.4774 15.6831 22.2637 15.6831ZM21.8766 21.8766H11.8121V16.4573H21.8766V21.8766Z" fill="#1E3A8A"/>
<path d="M23.8121 11.0379H21.8766V9.87664C21.8766 9.66257 21.7032 9.48954 21.4895 9.48954H19.167C18.9533 9.48954 18.7799 9.66257 18.7799 9.87664V11.0379H17.2315V4.45728C17.2315 4.35432 17.1908 4.25599 17.1181 4.18361L13.2471 0.312638C13.1743 0.239864 13.076 0.199219 12.9734 0.199219H0.586316C0.372638 0.199219 0.199219 0.372251 0.199219 0.586316V23.8121C0.199219 24.0262 0.372638 24.1992 0.586316 24.1992H23.8121C24.0258 24.1992 24.1992 24.0262 24.1992 23.8121V11.425C24.1992 11.211 24.0258 11.0379 23.8121 11.0379ZM19.5541 10.2637H21.1024V12.5863H19.5541V10.2637ZM19.167 13.3605H21.4895C21.7032 13.3605 21.8766 13.1875 21.8766 12.9734V11.8121H23.425V14.1347H10.2637V11.8121H11.8121V12.9734C11.8121 13.1875 11.9855 13.3605 12.1992 13.3605H14.5218C14.7355 13.3605 14.9089 13.1875 14.9089 12.9734V11.8121H18.7799V12.9734C18.7799 13.1875 18.9533 13.3605 19.167 13.3605ZM12.5863 12.5863V10.2637H14.1347V12.5863H12.5863ZM13.3605 1.52077L15.9099 4.07019H13.3605V1.52077ZM0.973412 0.973412H12.5863V4.45728C12.5863 4.67135 12.7597 4.84438 12.9734 4.84438H16.4573V11.0379H14.9089V9.87664C14.9089 9.66257 14.7355 9.48954 14.5218 9.48954H12.1992C11.9855 9.48954 11.8121 9.66257 11.8121 9.87664V11.0379H9.87664C9.66296 11.0379 9.48954 11.211 9.48954 11.425V11.8121H4.84438V12.5863H9.48954V15.6831H4.84438V16.4573H9.48954V19.5541H4.84438V20.3283H9.48954V23.425H0.973412V0.973412ZM10.2637 23.425V14.9089H23.425V23.425H10.2637Z" fill="#1E3A8A"/>
<path d="M2.9089 14.9089C2.26864 14.9089 1.74761 15.4299 1.74761 16.0702C1.74761 16.7104 2.26864 17.2315 2.9089 17.2315C3.54915 17.2315 4.07019 16.7104 4.07019 16.0702C4.07019 15.4299 3.54915 14.9089 2.9089 14.9089ZM2.9089 16.4573C2.69561 16.4573 2.5218 16.2839 2.5218 16.0702C2.5218 15.8565 2.69561 15.6831 2.9089 15.6831C3.12219 15.6831 3.29599 15.8565 3.29599 16.0702C3.29599 16.2839 3.12219 16.4573 2.9089 16.4573Z" fill="#1E3A8A"/>
<path d="M2.9089 18.7799C2.26864 18.7799 1.74761 19.3009 1.74761 19.9412C1.74761 20.5814 2.26864 21.1024 2.9089 21.1024C3.54915 21.1024 4.07019 20.5814 4.07019 19.9412C4.07019 19.3009 3.54915 18.7799 2.9089 18.7799ZM2.9089 20.3283C2.69561 20.3283 2.5218 20.1548 2.5218 19.9412C2.5218 19.7275 2.69561 19.5541 2.9089 19.5541C3.12219 19.5541 3.29599 19.7275 3.29599 19.9412C3.29599 20.1548 3.12219 20.3283 2.9089 20.3283Z" fill="#1E3A8A"/>
<path d="M2.9089 7.16696C2.26864 7.16696 1.74761 7.68799 1.74761 8.32825C1.74761 8.96851 2.26864 9.48954 2.9089 9.48954C3.54915 9.48954 4.07019 8.96851 4.07019 8.32825C4.07019 7.68799 3.54915 7.16696 2.9089 7.16696ZM2.9089 8.71535C2.69561 8.71535 2.5218 8.54193 2.5218 8.32825C2.5218 8.11457 2.69561 7.94115 2.9089 7.94115C3.12219 7.94115 3.29599 8.11457 3.29599 8.32825C3.29599 8.54193 3.12219 8.71535 2.9089 8.71535Z" fill="#1E3A8A"/>
<path d="M2.9089 11.0379C2.26864 11.0379 1.74761 11.559 1.74761 12.1992C1.74761 12.8395 2.26864 13.3605 2.9089 13.3605C3.54915 13.3605 4.07019 12.8395 4.07019 12.1992C4.07019 11.559 3.54915 11.0379 2.9089 11.0379ZM2.9089 12.5863C2.69561 12.5863 2.5218 12.4129 2.5218 12.1992C2.5218 11.9855 2.69561 11.8121 2.9089 11.8121C3.12219 11.8121 3.29599 11.9855 3.29599 12.1992C3.29599 12.4129 3.12219 12.5863 2.9089 12.5863Z" fill="#1E3A8A"/>
<path d="M4.84438 7.94115H11.8121V8.71535H4.84438V7.94115Z" fill="#1E3A8A"/>
<path d="M2.9089 3.29599C2.26864 3.29599 1.74761 3.81703 1.74761 4.45728C1.74761 5.09754 2.26864 5.61857 2.9089 5.61857C3.54915 5.61857 4.07019 5.09754 4.07019 4.45728C4.07019 3.81703 3.54915 3.29599 2.9089 3.29599ZM2.9089 4.84438C2.69561 4.84438 2.5218 4.67096 2.5218 4.45728C2.5218 4.24361 2.69561 4.07019 2.9089 4.07019C3.12219 4.07019 3.29599 4.24361 3.29599 4.45728C3.29599 4.67096 3.12219 4.84438 2.9089 4.84438Z" fill="#1E3A8A"/>
<path d="M4.84438 4.07019H11.8121V4.84438H4.84438V4.07019Z" fill="#1E3A8A"/>
<path d="M15.1826 21.3761L16.8444 19.7143L18.5062 21.3761L19.0535 20.8288L17.3917 19.167L19.0535 17.5052L18.5062 16.9578L16.8444 18.6196L15.1826 16.9578L14.6352 17.5052L16.297 19.167L14.6352 20.8288L15.1826 21.3761Z" fill="#1E3A8A"/>
<path d="M22.2637 15.6831H11.425C11.2113 15.6831 11.0379 15.8561 11.0379 16.0702V22.2637C11.0379 22.4778 11.2113 22.6508 11.425 22.6508H22.2637C22.4774 22.6508 22.6508 22.4778 22.6508 22.2637V16.0702C22.6508 15.8561 22.4774 15.6831 22.2637 15.6831ZM21.8766 21.8766H11.8121V16.4573H21.8766V21.8766Z" stroke="#1E3A8A" stroke-width="0.4" mask="url(#path-1-outside-1_25089_32021)"/>
<path d="M23.8121 11.0379H21.8766V9.87664C21.8766 9.66257 21.7032 9.48954 21.4895 9.48954H19.167C18.9533 9.48954 18.7799 9.66257 18.7799 9.87664V11.0379H17.2315V4.45728C17.2315 4.35432 17.1908 4.25599 17.1181 4.18361L13.2471 0.312638C13.1743 0.239864 13.076 0.199219 12.9734 0.199219H0.586316C0.372638 0.199219 0.199219 0.372251 0.199219 0.586316V23.8121C0.199219 24.0262 0.372638 24.1992 0.586316 24.1992H23.8121C24.0258 24.1992 24.1992 24.0262 24.1992 23.8121V11.425C24.1992 11.211 24.0258 11.0379 23.8121 11.0379ZM19.5541 10.2637H21.1024V12.5863H19.5541V10.2637ZM19.167 13.3605H21.4895C21.7032 13.3605 21.8766 13.1875 21.8766 12.9734V11.8121H23.425V14.1347H10.2637V11.8121H11.8121V12.9734C11.8121 13.1875 11.9855 13.3605 12.1992 13.3605H14.5218C14.7355 13.3605 14.9089 13.1875 14.9089 12.9734V11.8121H18.7799V12.9734C18.7799 13.1875 18.9533 13.3605 19.167 13.3605ZM12.5863 12.5863V10.2637H14.1347V12.5863H12.5863ZM13.3605 1.52077L15.9099 4.07019H13.3605V1.52077ZM0.973412 0.973412H12.5863V4.45728C12.5863 4.67135 12.7597 4.84438 12.9734 4.84438H16.4573V11.0379H14.9089V9.87664C14.9089 9.66257 14.7355 9.48954 14.5218 9.48954H12.1992C11.9855 9.48954 11.8121 9.66257 11.8121 9.87664V11.0379H9.87664C9.66296 11.0379 9.48954 11.211 9.48954 11.425V11.8121H4.84438V12.5863H9.48954V15.6831H4.84438V16.4573H9.48954V19.5541H4.84438V20.3283H9.48954V23.425H0.973412V0.973412ZM10.2637 23.425V14.9089H23.425V23.425H10.2637Z" stroke="#1E3A8A" stroke-width="0.4" mask="url(#path-1-outside-1_25089_32021)"/>
<path d="M2.9089 14.9089C2.26864 14.9089 1.74761 15.4299 1.74761 16.0702C1.74761 16.7104 2.26864 17.2315 2.9089 17.2315C3.54915 17.2315 4.07019 16.7104 4.07019 16.0702C4.07019 15.4299 3.54915 14.9089 2.9089 14.9089ZM2.9089 16.4573C2.69561 16.4573 2.5218 16.2839 2.5218 16.0702C2.5218 15.8565 2.69561 15.6831 2.9089 15.6831C3.12219 15.6831 3.29599 15.8565 3.29599 16.0702C3.29599 16.2839 3.12219 16.4573 2.9089 16.4573Z" stroke="#1E3A8A" stroke-width="0.4" mask="url(#path-1-outside-1_25089_32021)"/>
<path d="M2.9089 18.7799C2.26864 18.7799 1.74761 19.3009 1.74761 19.9412C1.74761 20.5814 2.26864 21.1024 2.9089 21.1024C3.54915 21.1024 4.07019 20.5814 4.07019 19.9412C4.07019 19.3009 3.54915 18.7799 2.9089 18.7799ZM2.9089 20.3283C2.69561 20.3283 2.5218 20.1548 2.5218 19.9412C2.5218 19.7275 2.69561 19.5541 2.9089 19.5541C3.12219 19.5541 3.29599 19.7275 3.29599 19.9412C3.29599 20.1548 3.12219 20.3283 2.9089 20.3283Z" stroke="#1E3A8A" stroke-width="0.4" mask="url(#path-1-outside-1_25089_32021)"/>
<path d="M2.9089 7.16696C2.26864 7.16696 1.74761 7.68799 1.74761 8.32825C1.74761 8.96851 2.26864 9.48954 2.9089 9.48954C3.54915 9.48954 4.07019 8.96851 4.07019 8.32825C4.07019 7.68799 3.54915 7.16696 2.9089 7.16696ZM2.9089 8.71535C2.69561 8.71535 2.5218 8.54193 2.5218 8.32825C2.5218 8.11457 2.69561 7.94115 2.9089 7.94115C3.12219 7.94115 3.29599 8.11457 3.29599 8.32825C3.29599 8.54193 3.12219 8.71535 2.9089 8.71535Z" stroke="#1E3A8A" stroke-width="0.4" mask="url(#path-1-outside-1_25089_32021)"/>
<path d="M2.9089 11.0379C2.26864 11.0379 1.74761 11.559 1.74761 12.1992C1.74761 12.8395 2.26864 13.3605 2.9089 13.3605C3.54915 13.3605 4.07019 12.8395 4.07019 12.1992C4.07019 11.559 3.54915 11.0379 2.9089 11.0379ZM2.9089 12.5863C2.69561 12.5863 2.5218 12.4129 2.5218 12.1992C2.5218 11.9855 2.69561 11.8121 2.9089 11.8121C3.12219 11.8121 3.29599 11.9855 3.29599 12.1992C3.29599 12.4129 3.12219 12.5863 2.9089 12.5863Z" stroke="#1E3A8A" stroke-width="0.4" mask="url(#path-1-outside-1_25089_32021)"/>
<path d="M4.84438 7.94115H11.8121V8.71535H4.84438V7.94115Z" stroke="#1E3A8A" stroke-width="0.4" mask="url(#path-1-outside-1_25089_32021)"/>
<path d="M2.9089 3.29599C2.26864 3.29599 1.74761 3.81703 1.74761 4.45728C1.74761 5.09754 2.26864 5.61857 2.9089 5.61857C3.54915 5.61857 4.07019 5.09754 4.07019 4.45728C4.07019 3.81703 3.54915 3.29599 2.9089 3.29599ZM2.9089 4.84438C2.69561 4.84438 2.5218 4.67096 2.5218 4.45728C2.5218 4.24361 2.69561 4.07019 2.9089 4.07019C3.12219 4.07019 3.29599 4.24361 3.29599 4.45728C3.29599 4.67096 3.12219 4.84438 2.9089 4.84438Z" stroke="#1E3A8A" stroke-width="0.4" mask="url(#path-1-outside-1_25089_32021)"/>
<path d="M4.84438 4.07019H11.8121V4.84438H4.84438V4.07019Z" stroke="#1E3A8A" stroke-width="0.4" mask="url(#path-1-outside-1_25089_32021)"/>
<path d="M15.1826 21.3761L16.8444 19.7143L18.5062 21.3761L19.0535 20.8288L17.3917 19.167L19.0535 17.5052L18.5062 16.9578L16.8444 18.6196L15.1826 16.9578L14.6352 17.5052L16.297 19.167L14.6352 20.8288L15.1826 21.3761Z" stroke="#1E3A8A" stroke-width="0.4" mask="url(#path-1-outside-1_25089_32021)"/>
</svg>
