<svg width="24" height="23" viewBox="0 0 24 23" fill="none" xmlns="http://www.w3.org/2000/svg">
<path d="M15.4909 21.1961H1.52727C1.12237 21.1956 0.734184 21.0291 0.447871 20.7332C0.161559 20.4373 0.000491932 20.0361 0 19.6176V1.57843C0.000491932 1.15996 0.161559 0.758777 0.447871 0.462873C0.734184 0.16697 1.12237 0.00050841 1.52727 0H15.4909C15.8958 0.00050841 16.284 0.16697 16.5703 0.462873C16.8566 0.758777 17.0177 1.15996 17.0182 1.57843V14.2059C17.0182 14.3853 16.9492 14.5574 16.8265 14.6842C16.7037 14.8111 16.5372 14.8824 16.3636 14.8824C16.19 14.8824 16.0236 14.8111 15.9008 14.6842C15.7781 14.5574 15.7091 14.3853 15.7091 14.2059V1.57843C15.7084 1.51885 15.6852 1.4619 15.6444 1.41976C15.6037 1.37763 15.5486 1.35364 15.4909 1.35294H1.52727C1.46962 1.35364 1.41452 1.37763 1.37375 1.41976C1.33298 1.4619 1.30977 1.51885 1.30909 1.57843V19.6176C1.30977 19.6772 1.33298 19.7342 1.37375 19.7763C1.41452 19.8185 1.46962 19.8424 1.52727 19.8431H15.4909C15.6645 19.8431 15.831 19.9144 15.9537 20.0413C16.0765 20.1681 16.1455 20.3402 16.1455 20.5196C16.1455 20.699 16.0765 20.8711 15.9537 20.9979C15.831 21.1248 15.6645 21.1961 15.4909 21.1961Z" fill="#1E3A8A"/>
<path d="M4.71648 6.90344C4.56781 6.9036 4.42351 6.85141 4.30739 6.75546L3.3 5.92308C3.16438 5.81095 3.07741 5.64772 3.05823 5.46932C3.03905 5.29092 3.08922 5.11195 3.19772 4.97178C3.30622 4.83162 3.46415 4.74173 3.63677 4.72191C3.80939 4.70209 3.98256 4.75395 4.11818 4.86608L4.6142 5.2761L5.81591 3.72323C5.92429 3.58307 6.08211 3.49314 6.25465 3.47323C6.42719 3.45333 6.60031 3.50507 6.73594 3.61709C6.87156 3.7291 6.95857 3.89221 6.97783 4.07053C6.99709 4.24885 6.94702 4.42777 6.83864 4.56794L5.22784 6.64932C5.16659 6.72871 5.0888 6.79279 5.00027 6.83679C4.91173 6.88079 4.81472 6.90357 4.71648 6.90344Z" fill="#1E3A8A"/>
<path d="M12.4364 5.86275H8.94545C8.77186 5.86275 8.60537 5.79147 8.48262 5.66461C8.35987 5.53775 8.29091 5.36569 8.29091 5.18627C8.29091 5.00686 8.35987 4.8348 8.48262 4.70794C8.60537 4.58108 8.77186 4.5098 8.94545 4.5098H12.4364C12.61 4.5098 12.7764 4.58108 12.8992 4.70794C13.0219 4.8348 13.0909 5.00686 13.0909 5.18627C13.0909 5.36569 13.0219 5.53775 12.8992 5.66461C12.7764 5.79147 12.61 5.86275 12.4364 5.86275Z" fill="#1E3A8A"/>
<path d="M4.71648 10.5113C4.56781 10.5114 4.42351 10.4593 4.30739 10.3633L3.3 9.53092C3.16438 9.41879 3.07741 9.25557 3.05823 9.07717C3.03905 8.89877 3.08923 8.7198 3.19773 8.57964C3.30623 8.43947 3.46416 8.34959 3.63677 8.32977C3.80939 8.30995 3.98256 8.36181 4.11818 8.47394L4.6142 8.88396L5.81591 7.33107C5.92429 7.19091 6.08211 7.10098 6.25465 7.08108C6.42719 7.06117 6.60031 7.11292 6.73594 7.22493C6.87156 7.33695 6.95857 7.50005 6.97783 7.67837C6.99709 7.85669 6.94702 8.03561 6.83864 8.17578L5.22784 10.2572C5.16659 10.3366 5.0888 10.4006 5.00027 10.4446C4.91173 10.4886 4.81472 10.5114 4.71648 10.5113Z" fill="#1E3A8A"/>
<path d="M12.4364 9.47059H8.94545C8.77186 9.47059 8.60537 9.39932 8.48262 9.27245C8.35987 9.14559 8.29091 8.97353 8.29091 8.79412C8.29091 8.61471 8.35987 8.44264 8.48262 8.31578C8.60537 8.18892 8.77186 8.11765 8.94545 8.11765H12.4364C12.61 8.11765 12.7764 8.18892 12.8992 8.31578C13.0219 8.44264 13.0909 8.61471 13.0909 8.79412C13.0909 8.97353 13.0219 9.14559 12.8992 9.27245C12.7764 9.39932 12.61 9.47059 12.4364 9.47059Z" fill="#1E3A8A"/>
<path d="M4.71648 14.1191C4.56781 14.1193 4.42351 14.0671 4.30739 13.9711L3.3 13.1388C3.16438 13.0266 3.07741 12.8634 3.05823 12.685C3.03905 12.5066 3.08923 12.3276 3.19773 12.1875C3.30623 12.0473 3.46416 11.9574 3.63677 11.9376C3.80939 11.9178 3.98256 11.9697 4.11818 12.0818L4.6142 12.4918L5.81591 10.9389C5.86957 10.8695 5.93594 10.8117 6.01122 10.7688C6.0865 10.7259 6.16922 10.6988 6.25465 10.6889C6.34008 10.6791 6.42656 10.6867 6.50914 10.7114C6.59172 10.7361 6.66878 10.7773 6.73594 10.8328C6.80309 10.8882 6.85901 10.9568 6.90052 11.0346C6.94202 11.1124 6.96829 11.1979 6.97783 11.2862C6.98737 11.3745 6.97998 11.4639 6.9561 11.5492C6.93222 11.6346 6.89231 11.7142 6.83864 11.7836L5.22784 13.865C5.16659 13.9444 5.0888 14.0085 5.00027 14.0525C4.91173 14.0965 4.81472 14.1193 4.71648 14.1191Z" fill="#1E3A8A"/>
<path d="M12.4364 13.0784H8.94545C8.77186 13.0784 8.60537 13.0072 8.48262 12.8803C8.35987 12.7534 8.29091 12.5814 8.29091 12.402C8.29091 12.2225 8.35987 12.0505 8.48262 11.9236C8.60537 11.7968 8.77186 11.7255 8.94545 11.7255H12.4364C12.61 11.7255 12.7764 11.7968 12.8992 11.9236C13.0219 12.0505 13.0909 12.2225 13.0909 12.402C13.0909 12.5814 13.0219 12.7534 12.8992 12.8803C12.7764 13.0072 12.61 13.0784 12.4364 13.0784Z" fill="#1E3A8A"/>
<path d="M4.71648 17.727C4.56781 17.7271 4.42351 17.6749 4.30739 17.579L3.3 16.7466C3.16438 16.6345 3.07741 16.4713 3.05823 16.2929C3.04874 16.2045 3.05617 16.1151 3.0801 16.0297C3.10404 15.9444 3.14401 15.8647 3.19773 15.7953C3.25145 15.7259 3.31788 15.6681 3.39321 15.6253C3.46854 15.5824 3.5513 15.5553 3.63677 15.5455C3.80939 15.5256 3.98256 15.5775 4.11818 15.6896L4.61421 16.0996L5.81591 14.5468C5.86957 14.4774 5.93594 14.4196 6.01122 14.3767C6.0865 14.3338 6.16922 14.3066 6.25465 14.2968C6.34008 14.2869 6.42656 14.2945 6.50914 14.3192C6.59172 14.3439 6.66878 14.3852 6.73594 14.4406C6.80309 14.4961 6.85901 14.5647 6.90052 14.6425C6.94202 14.7203 6.96829 14.8058 6.97783 14.8941C6.98737 14.9824 6.97998 15.0717 6.9561 15.1571C6.93222 15.2424 6.89231 15.3221 6.83864 15.3915L5.22784 17.4728C5.16659 17.5522 5.0888 17.6163 5.00027 17.6603C4.91173 17.7043 4.81472 17.7271 4.71648 17.727Z" fill="#1E3A8A"/>
<path d="M12.4364 16.6863H8.94545C8.77186 16.6863 8.60537 16.615 8.48262 16.4881C8.35987 16.3613 8.29091 16.1892 8.29091 16.0098C8.29091 15.8304 8.35987 15.6583 8.48262 15.5315C8.60537 15.4046 8.77186 15.3333 8.94545 15.3333H12.4364C12.61 15.3333 12.7764 15.4046 12.8992 15.5315C13.0219 15.6583 13.0909 15.8304 13.0909 16.0098C13.0909 16.1892 13.0219 16.3613 12.8992 16.4881C12.7764 16.615 12.61 16.6863 12.4364 16.6863Z" fill="#1E3A8A"/>
<path d="M18.9818 23C17.9893 23 17.0191 22.6958 16.1939 22.126C15.3686 21.5561 14.7254 20.7461 14.3456 19.7984C13.9658 18.8508 13.8664 17.808 14.0601 16.8019C14.2537 15.7959 14.7316 14.8718 15.4334 14.1465C16.1352 13.4212 17.0294 12.9272 18.0028 12.7271C18.9763 12.527 19.9852 12.6297 20.9022 13.0222C21.8191 13.4148 22.6029 14.0795 23.1543 14.9324C23.7057 15.7853 24 16.788 24 17.8137C23.9985 19.1887 23.4693 20.507 22.5286 21.4793C21.5878 22.4516 20.3123 22.9985 18.9818 23ZM18.9818 13.9804C18.2482 13.9804 17.5311 14.2052 16.9212 14.6264C16.3112 15.0476 15.8358 15.6463 15.5551 16.3468C15.2743 17.0472 15.2009 17.818 15.344 18.5616C15.4871 19.3052 15.8404 19.9882 16.3591 20.5243C16.8778 21.0604 17.5387 21.4255 18.2582 21.5734C18.9777 21.7213 19.7235 21.6454 20.4012 21.3553C21.079 21.0651 21.6583 20.5738 22.0658 19.9434C22.4734 19.313 22.6909 18.5719 22.6909 17.8137C22.6898 16.7974 22.2987 15.823 21.6033 15.1044C20.908 14.3858 19.9652 13.9815 18.9818 13.9804Z" fill="#1E3A8A"/>
<path d="M19.8545 19.3922C19.7686 19.3923 19.6834 19.3749 19.604 19.3409C19.5246 19.3068 19.4524 19.2569 19.3918 19.194L18.519 18.292C18.3963 18.1652 18.3273 17.9931 18.3273 17.8137V16.0098C18.3273 15.8304 18.3962 15.6583 18.519 15.5315C18.6417 15.4046 18.8082 15.3333 18.9818 15.3333C19.1554 15.3333 19.3219 15.4046 19.4447 15.5315C19.5674 15.6583 19.6364 15.8304 19.6364 16.0098V17.5336L20.3173 18.2374C20.4088 18.332 20.4712 18.4525 20.4964 18.5837C20.5217 18.715 20.5087 18.851 20.4592 18.9745C20.4096 19.0981 20.3258 19.2038 20.2181 19.2781C20.1105 19.3524 19.984 19.3921 19.8545 19.3922Z" fill="#1E3A8A"/>
</svg>
