<svg width="24" height="24" viewBox="0 0 24 24" fill="none" xmlns="http://www.w3.org/2000/svg">
<path d="M13.44 20.5714H2.85714C2.09966 20.5705 1.37346 20.2692 0.83784 19.7336C0.302218 19.198 0.000907347 18.4718 0 17.7143V2.85714C0.000907347 2.09966 0.302218 1.37346 0.83784 0.83784C1.37346 0.302218 2.09966 0.000907347 2.85714 0H17.7143C18.4718 0.000907347 19.198 0.302218 19.7336 0.83784C20.2692 1.37346 20.5705 2.09966 20.5714 2.85714V13.2686C20.5714 13.4201 20.5112 13.5655 20.4041 13.6726C20.2969 13.7798 20.1516 13.84 20 13.84C19.8484 13.84 19.7031 13.7798 19.5959 13.6726C19.4888 13.5655 19.4286 13.4201 19.4286 13.2686V2.85714C19.4286 2.40249 19.248 1.96645 18.9265 1.64496C18.605 1.32347 18.1689 1.14286 17.7143 1.14286H2.85714C2.40249 1.14286 1.96645 1.32347 1.64496 1.64496C1.32347 1.96645 1.14286 2.40249 1.14286 2.85714V17.7143C1.14286 18.1689 1.32347 18.605 1.64496 18.9265C1.96645 19.248 2.40249 19.4286 2.85714 19.4286H13.44C13.5916 19.4286 13.7369 19.4888 13.8441 19.5959C13.9512 19.7031 14.0114 19.8484 14.0114 20C14.0114 20.1516 13.9512 20.2969 13.8441 20.4041C13.7369 20.5112 13.5916 20.5714 13.44 20.5714Z" fill="#1E3A8A"/>
<path d="M5.14286 6.85714C4.99132 6.85711 4.846 6.79689 4.73886 6.68971L3.596 5.54686C3.49191 5.43909 3.43431 5.29474 3.43561 5.14491C3.43692 4.99509 3.49701 4.85177 3.60296 4.74582C3.70891 4.63987 3.85223 4.57977 4.00206 4.57847C4.15188 4.57717 4.29623 4.63477 4.404 4.73886L5.18514 5.52L7.64229 3.55371C7.70089 3.50681 7.76816 3.47192 7.84026 3.45101C7.91235 3.43011 7.98786 3.42361 8.06246 3.43189C8.13707 3.44017 8.20931 3.46306 8.27507 3.49926C8.34083 3.53545 8.39881 3.58425 8.44571 3.64286C8.49262 3.70146 8.52751 3.76874 8.54842 3.84083C8.56932 3.91292 8.57582 3.98843 8.56754 4.06303C8.55926 4.13764 8.53637 4.20988 8.50017 4.27564C8.46397 4.3414 8.41518 4.39939 8.35657 4.44629L5.49943 6.732C5.3982 6.81295 5.27247 6.85707 5.14286 6.85714Z" fill="#1E3A8A"/>
<path d="M16.5714 5.71429H11.4286C11.277 5.71429 11.1317 5.65408 11.0245 5.54692C10.9173 5.43975 10.8571 5.29441 10.8571 5.14286C10.8571 4.9913 10.9173 4.84596 11.0245 4.7388C11.1317 4.63163 11.277 4.57143 11.4286 4.57143H16.5714C16.723 4.57143 16.8683 4.63163 16.9755 4.7388C17.0827 4.84596 17.1429 4.9913 17.1429 5.14286C17.1429 5.29441 17.0827 5.43975 16.9755 5.54692C16.8683 5.65408 16.723 5.71429 16.5714 5.71429Z" fill="#1E3A8A"/>
<path d="M5.14286 6.85714C4.99132 6.85711 4.846 6.79689 4.73886 6.68971L3.596 5.54686C3.49191 5.43909 3.43431 5.29474 3.43561 5.14491C3.43692 4.99509 3.49701 4.85177 3.60296 4.74582C3.70891 4.63987 3.85223 4.57977 4.00206 4.57847C4.15188 4.57717 4.29623 4.63477 4.404 4.73886L5.18514 5.52L7.64229 3.55371C7.70089 3.50681 7.76816 3.47192 7.84026 3.45101C7.91235 3.43011 7.98786 3.42361 8.06246 3.43189C8.13707 3.44017 8.20931 3.46306 8.27507 3.49926C8.34083 3.53545 8.39881 3.58425 8.44571 3.64286C8.49262 3.70146 8.52751 3.76874 8.54842 3.84083C8.56932 3.91292 8.57582 3.98843 8.56754 4.06303C8.55926 4.13764 8.53637 4.20988 8.50017 4.27564C8.46397 4.3414 8.41518 4.39939 8.35657 4.44629L5.49943 6.732C5.3982 6.81295 5.27247 6.85707 5.14286 6.85714Z" fill="#1E3A8A"/>
<path d="M16.5714 5.71429H11.4286C11.277 5.71429 11.1317 5.65408 11.0245 5.54692C10.9173 5.43975 10.8571 5.29441 10.8571 5.14286C10.8571 4.9913 10.9173 4.84596 11.0245 4.7388C11.1317 4.63163 11.277 4.57143 11.4286 4.57143H16.5714C16.723 4.57143 16.8683 4.63163 16.9755 4.7388C17.0827 4.84596 17.1429 4.9913 17.1429 5.14286C17.1429 5.29441 17.0827 5.43975 16.9755 5.54692C16.8683 5.65408 16.723 5.71429 16.5714 5.71429Z" fill="#1E3A8A"/>
<path d="M5.14286 12C4.99132 12 4.846 11.9397 4.73886 11.8326L3.596 10.6897C3.49191 10.5819 3.43431 10.4376 3.43561 10.2878C3.43692 10.1379 3.49701 9.99462 3.60296 9.88868C3.70891 9.78273 3.85223 9.72263 4.00206 9.72133C4.15188 9.72003 4.29623 9.77762 4.404 9.88171L5.18514 10.6629L7.64229 8.69657C7.76065 8.60185 7.91179 8.55803 8.06246 8.57475C8.21313 8.59147 8.351 8.66735 8.44571 8.78572C8.54044 8.90408 8.58426 9.05522 8.56754 9.20589C8.55082 9.35656 8.47493 9.49442 8.35657 9.58914L5.49943 11.8749C5.3982 11.9558 5.27247 11.9999 5.14286 12Z" fill="#1E3A8A"/>
<path d="M16.5714 10.8571H11.4286C11.277 10.8571 11.1317 10.7969 11.0245 10.6898C10.9173 10.5826 10.8571 10.4373 10.8571 10.2857C10.8571 10.1342 10.9173 9.98882 11.0245 9.88165C11.1317 9.77449 11.277 9.71429 11.4286 9.71429H16.5714C16.723 9.71429 16.8683 9.77449 16.9755 9.88165C17.0827 9.98882 17.1429 10.1342 17.1429 10.2857C17.1429 10.4373 17.0827 10.5826 16.9755 10.6898C16.8683 10.7969 16.723 10.8571 16.5714 10.8571Z" fill="#1E3A8A"/>
<path d="M5.14286 17.1429C4.99132 17.1428 4.846 17.0826 4.73886 16.9754L3.596 15.8326C3.49191 15.7248 3.43431 15.5805 3.43561 15.4306C3.43692 15.2808 3.49701 15.1375 3.60296 15.0315C3.70891 14.9256 3.85223 14.8655 4.00206 14.8642C4.15188 14.8629 4.29623 14.9205 4.404 15.0246L5.18514 15.8057L7.64229 13.8394C7.76065 13.7447 7.91179 13.7009 8.06246 13.7176C8.21313 13.7343 8.351 13.8102 8.44571 13.9286C8.54044 14.0469 8.58426 14.1981 8.56754 14.3487C8.55082 14.4994 8.47493 14.6373 8.35657 14.732L5.49943 17.0177C5.3982 17.0987 5.27247 17.1428 5.14286 17.1429Z" fill="#1E3A8A"/>
<path d="M14.0114 16H11.4286C11.277 16 11.1317 15.9398 11.0245 15.8326C10.9173 15.7255 10.8571 15.5801 10.8571 15.4286C10.8571 15.277 10.9173 15.1317 11.0245 15.0245C11.1317 14.9173 11.277 14.8571 11.4286 14.8571H14.0114C14.163 14.8571 14.3083 14.9173 14.4155 15.0245C14.5227 15.1317 14.5829 15.277 14.5829 15.4286C14.5829 15.5801 14.5227 15.7255 14.4155 15.8326C14.3083 15.9398 14.163 16 14.0114 16Z" fill="#1E3A8A"/>
<path d="M18.2857 24C17.1555 24 16.0507 23.6649 15.111 23.037C14.1713 22.4091 13.4389 21.5166 13.0064 20.4725C12.5739 19.4283 12.4607 18.2794 12.6812 17.1709C12.9017 16.0624 13.4459 15.0443 14.2451 14.2451C15.0443 13.4459 16.0624 12.9017 17.1709 12.6812C18.2794 12.4607 19.4283 12.5739 20.4725 13.0064C21.5166 13.4389 22.4091 14.1713 23.037 15.111C23.6649 16.0507 24 17.1555 24 18.2857C23.9983 19.8007 23.3958 21.2532 22.3245 22.3245C21.2532 23.3958 19.8007 23.9983 18.2857 24ZM18.2857 13.7143C17.3816 13.7143 16.4977 13.9824 15.746 14.4847C14.9942 14.987 14.4083 15.701 14.0623 16.5363C13.7163 17.3716 13.6257 18.2908 13.8021 19.1776C13.9785 20.0643 14.4139 20.8789 15.0532 21.5182C15.6926 22.1575 16.5071 22.5929 17.3939 22.7693C18.2806 22.9457 19.1998 22.8552 20.0351 22.5092C20.8704 22.1632 21.5844 21.5772 22.0867 20.8255C22.589 20.0737 22.8571 19.1899 22.8571 18.2857C22.8558 17.0737 22.3737 15.9117 21.5167 15.0547C20.6597 14.1977 19.4977 13.7156 18.2857 13.7143Z" fill="#1E3A8A"/>
<path d="M17.7143 20.5714C17.5627 20.5714 17.4174 20.5112 17.3103 20.404L15.596 18.6897C15.4919 18.5819 15.4343 18.4376 15.4356 18.2878C15.4369 18.1379 15.497 17.9946 15.603 17.8887C15.7089 17.7827 15.8522 17.7226 16.0021 17.7213C16.1519 17.72 16.2962 17.7776 16.404 17.8817L17.7143 19.192L20.1674 16.7389C20.2752 16.6348 20.4195 16.5772 20.5694 16.5785C20.7192 16.5798 20.8625 16.6399 20.9685 16.7458C21.0744 16.8518 21.1345 16.9951 21.1358 17.1449C21.1371 17.2947 21.0795 17.4391 20.9754 17.5469L18.1183 20.404C18.0111 20.5112 17.8658 20.5714 17.7143 20.5714Z" fill="#1E3A8A"/>
</svg>
