<svg width="23" height="25" viewBox="0 0 23 25" fill="none" xmlns="http://www.w3.org/2000/svg">
<path d="M20.5381 0.25C21.7481 0.250088 22.7499 1.1966 22.75 2.38184V22.6182C22.7499 23.8038 21.7481 24.7499 20.5381 24.75H4.1084C2.89811 24.7498 1.89656 23.8034 1.89648 22.6182V21.0273H0.916992C0.558119 21.0273 0.25 20.7454 0.25 20.377C0.250176 20.0087 0.558222 19.7276 0.916992 19.7275H1.89648V17.0889H0.916992C0.558119 17.0888 0.25 16.8069 0.25 16.4385C0.250256 16.0703 0.558268 15.7891 0.916992 15.7891H1.89648V13.1504H0.916992C0.558119 13.1503 0.25 12.8684 0.25 12.5C0.250112 12.1317 0.558185 11.8506 0.916992 11.8506H1.89648V9.21191H0.916992C0.558138 9.21185 0.250032 8.92993 0.25 8.56152C0.25 8.19309 0.55812 7.91119 0.916992 7.91113H1.89648V5.27246H0.916992C0.558222 5.2724 0.250176 4.99133 0.25 4.62305C0.25 4.25461 0.558119 3.97272 0.916992 3.97266H1.89648V2.38184C1.89656 1.19622 2.89814 0.250224 4.1084 0.25H20.5381ZM4.1084 1.5498C3.61484 1.55003 3.23054 1.93347 3.23047 2.38184V3.97266H4.20996C4.56872 3.97276 4.87681 4.25379 4.87695 4.62207C4.87695 4.99048 4.5688 5.27236 4.20996 5.27246H3.23047V7.91113H4.20996C4.5688 7.91123 4.87695 8.19311 4.87695 8.56152C4.8767 8.92971 4.56865 9.21084 4.20996 9.21094H3.23047V11.8496H4.20996C4.5688 11.8497 4.87695 12.1316 4.87695 12.5C4.87684 12.8683 4.56874 13.1493 4.20996 13.1494H3.23047V15.7881H4.20996C4.56878 15.7882 4.87692 16.0701 4.87695 16.4385C4.87695 16.8069 4.5688 17.0888 4.20996 17.0889H3.23047V19.7266H4.20996C4.5688 19.7267 4.87695 20.0085 4.87695 20.377C4.87691 20.7453 4.56877 21.0272 4.20996 21.0273H3.23047V22.6172C3.23047 23.0659 3.61473 23.449 4.1084 23.4492H20.5381C21.0317 23.4491 21.416 23.0658 21.416 22.6172V2.38184C21.4159 1.93294 21.0317 1.54989 20.5381 1.5498H4.1084ZM12.7764 6.50391C14.5237 6.50391 15.9629 7.86974 15.9629 9.57031C15.9628 10.3723 15.64 11.0997 15.1182 11.6445C16.9079 12.305 18.1924 13.9709 18.1924 15.9326V17.8457C18.1924 18.2141 17.8842 18.496 17.5254 18.4961H8.02832C7.6694 18.4961 7.36133 18.2142 7.36133 17.8457V15.9326C7.36133 13.971 8.64504 12.3051 10.4346 11.6445C9.91263 11.0997 9.58997 10.3722 9.58984 9.57031C9.58984 7.86941 11.0293 6.50412 12.7764 6.50391ZM12.1436 12.6357C10.2328 12.6357 8.69531 14.1249 8.69531 15.9326V17.1953H16.8574V15.9326C16.8574 14.1249 15.3203 12.6357 13.4092 12.6357H12.1436ZM12.7764 7.80371C11.7455 7.80392 10.9238 8.6067 10.9238 9.57031C10.9241 10.5341 11.7456 11.3357 12.7764 11.3359C13.8072 11.3359 14.6286 10.5343 14.6289 9.57031C14.6289 8.60614 13.8074 7.80371 12.7764 7.80371Z" fill="#1E3A8A" stroke="#1E3A8A" stroke-width="0.5"/>
</svg>
