<svg width="26" height="26" viewBox="0 0 26 26" fill="none" xmlns="http://www.w3.org/2000/svg">
<g clip-path="url(#clip0_25166_112068)">
<path d="M23.6956 11.5679C22.454 11.0505 20.8197 10.7656 19.0938 10.7656C17.3678 10.7656 15.7335 11.0505 14.4919 11.5679C13.8717 11.8263 13.3709 12.1362 13 12.4845C12.6291 12.1362 12.1283 11.8263 11.5081 11.5679C10.2665 11.0505 8.6322 10.7656 6.90625 10.7656C5.1803 10.7656 3.54595 11.0505 2.30435 11.5679C0.851144 12.1734 0.0507812 13.0607 0.0507812 14.0664V20.1602C0.0507812 21.1658 0.851144 22.0531 2.30435 22.6586C3.3998 23.1151 4.80116 23.3903 6.30124 23.4489C6.59984 24.1426 7.31865 24.7479 8.3981 25.1977C9.6397 25.7151 11.274 26 13 26C14.726 26 16.3603 25.7151 17.6019 25.1977C18.6814 24.7479 19.4002 24.1426 19.6988 23.4489C21.1988 23.3903 22.6002 23.1152 23.6956 22.6586C25.1489 22.0531 25.9492 21.1658 25.9492 20.1602V14.0664C25.9492 13.0607 25.1489 12.1734 23.6956 11.5679ZM19.0938 12.2891C22.5437 12.2891 24.4258 13.4632 24.4258 14.0664C24.4258 14.634 22.759 15.7068 19.6879 15.8315C19.3832 15.1479 18.6687 14.5515 17.6019 14.107C16.6874 13.7259 15.5594 13.4715 14.339 13.3636C15.1391 12.8283 16.7558 12.2891 19.0938 12.2891ZM13 14.8281C16.45 14.8281 18.332 16.0022 18.332 16.6055C18.332 17.2087 16.45 18.3828 13 18.3828C9.54997 18.3828 7.66797 17.2087 7.66797 16.6055C7.66797 16.0022 9.55002 14.8281 13 14.8281ZM7.66797 18.7447C7.88902 18.8732 8.13252 18.9933 8.3981 19.104C9.6397 19.6214 11.274 19.9062 13 19.9062C14.726 19.9062 16.3603 19.6214 17.6019 19.104C17.8674 18.9933 18.111 18.8732 18.332 18.7447V19.6523C18.332 20.2556 16.45 21.4297 13 21.4297C9.54997 21.4297 7.66797 20.2556 7.66797 19.6523V18.7447ZM6.90625 12.2891C9.24417 12.2891 10.8609 12.8283 11.661 13.3635C10.4406 13.4714 9.31262 13.7259 8.39805 14.1069C7.33124 14.5514 6.61685 15.1479 6.31206 15.8315C3.24106 15.7068 1.57422 14.634 1.57422 14.0664C1.57422 13.4632 3.45627 12.2891 6.90625 12.2891ZM1.57422 16.2056C1.79527 16.3341 2.03877 16.4542 2.30435 16.5649C3.36152 17.0054 4.70382 17.2766 6.14453 17.3477V18.8701C3.18094 18.7139 1.57422 17.6705 1.57422 17.1133V16.2056ZM1.57422 20.1602V19.2525C1.79527 19.381 2.03877 19.5011 2.30435 19.6118C3.36152 20.0523 4.70382 20.3235 6.14453 20.3946V21.917C3.18094 21.7607 1.57422 20.7173 1.57422 20.1602ZM13 24.4766C9.55002 24.4766 7.66797 23.3024 7.66797 22.6992V21.7916C7.88902 21.92 8.13252 22.0402 8.3981 22.1508C9.6397 22.6682 11.274 22.9531 13 22.9531C14.726 22.9531 16.3603 22.6682 17.6019 22.1508C17.8674 22.0402 18.111 21.92 18.332 21.7916V22.6992C18.332 23.3024 16.45 24.4766 13 24.4766ZM19.8555 21.917V20.3946C21.2962 20.3235 22.6385 20.0523 23.6956 19.6118C23.9612 19.5011 24.2047 19.381 24.4258 19.2525V20.1602C24.4258 20.7173 22.8191 21.7607 19.8555 21.917ZM19.8555 18.8701V17.3477C21.2962 17.2766 22.6385 17.0054 23.6956 16.5649C23.9612 16.4542 24.2047 16.3341 24.4258 16.2056V17.1133C24.4258 17.6705 22.8191 18.7139 19.8555 18.8701Z" fill="#1E3A8A"/>
<path d="M9.95317 4.57034H10.7149V8.37893C10.7149 8.7996 11.0559 9.14065 11.4766 9.14065H14.5235C14.9442 9.14065 15.2852 8.7996 15.2852 8.37893V4.57034H16.0469C16.355 4.57034 16.6327 4.38478 16.7506 4.1001C16.8685 3.81547 16.8034 3.48783 16.5855 3.26998L13.5386 0.223107C13.2412 -0.0743691 12.7589 -0.0743691 12.4614 0.223107L9.41453 3.26998C9.19668 3.48783 9.13153 3.81542 9.24939 4.1001C9.36735 4.38473 9.64508 4.57034 9.95317 4.57034ZM13 1.83892L14.2562 3.09504C13.9674 3.20336 13.7618 3.48194 13.7618 3.80862V7.61721H12.2383V3.80862C12.2383 3.48194 12.0327 3.20336 11.7439 3.09509L13 1.83892Z" fill="#1E3A8A"/>
<path d="M0.812542 5.58592H1.57426V8.37889C1.57426 8.79957 1.91531 9.14061 2.33598 9.14061H5.38285C5.80353 9.14061 6.14457 8.79957 6.14457 8.37889V5.58592H6.90629C7.21438 5.58592 7.4921 5.40037 7.61002 5.11569C7.72788 4.83106 7.66273 4.50342 7.44488 4.28557L4.398 1.23869C4.10058 0.941269 3.61826 0.941269 3.32078 1.23869L0.273905 4.28557C0.0560539 4.50342 -0.0090985 4.83101 0.108765 5.11569C0.22673 5.40032 0.504452 5.58592 0.812542 5.58592ZM3.85942 2.85455L5.11554 4.11068C4.82675 4.21894 4.62114 4.49753 4.62114 4.82421V7.61718H3.0977V4.82421C3.0977 4.49753 2.89209 4.21894 2.60329 4.11068L3.85942 2.85455Z" fill="#1E3A8A"/>
<path d="M19.0938 5.58592H19.8555V8.37889C19.8555 8.79957 20.1966 9.14061 20.6172 9.14061H23.6641C24.0848 9.14061 24.4258 8.79957 24.4258 8.37889V5.58592H25.1875C25.4956 5.58592 25.7734 5.40037 25.8913 5.11569C26.0091 4.83106 25.944 4.50342 25.7261 4.28557L22.6793 1.23869C22.3818 0.941269 21.8995 0.941269 21.602 1.23869L18.5552 4.28557C18.3373 4.50342 18.2722 4.83101 18.39 5.11569C18.508 5.40032 18.7857 5.58592 19.0938 5.58592ZM22.1407 2.85455L23.3968 4.11068C23.108 4.21894 22.9024 4.49753 22.9024 4.82421V7.61718H21.3789V4.82421C21.3789 4.49753 21.1733 4.21894 20.8845 4.11068L22.1407 2.85455Z" fill="#1E3A8A"/>
</g>
<defs>
<clipPath id="clip0_25166_112068">
<rect width="26" height="26" fill="white"/>
</clipPath>
</defs>
</svg>
