<svg width="28" height="20" viewBox="0 0 28 20" fill="none" xmlns="http://www.w3.org/2000/svg">
<path d="M13.4896 11.0294C13.4896 11.0294 13.079 10.603 12.5263 10.603C11.9736 10.603 11.5709 11.0057 11.5709 11.4203C11.5709 11.8348 12.0921 12.1664 12.7514 12.3401C13.4107 12.5139 13.5502 12.8547 13.5502 13.2179C13.5502 13.5811 13.2291 14.0496 12.4764 14.0496C11.7236 14.0496 11.3867 13.5021 11.3867 13.5021" stroke="#1E3A8A" stroke-miterlimit="10" stroke-linecap="round" stroke-linejoin="round"/>
<path d="M12.4668 9.96387V10.4271" stroke="#1E3A8A" stroke-miterlimit="10" stroke-linecap="round" stroke-linejoin="round"/>
<path d="M12.4668 14.2266V14.6898" stroke="#1E3A8A" stroke-miterlimit="10" stroke-linecap="round" stroke-linejoin="round"/>
<path d="M23.1913 5.55029H1.74276C1.33424 5.55029 1 5.88452 1 6.29304V18.3599C1 18.7684 1.33424 19.1026 1.74276 19.1026H23.1913C23.5998 19.1026 23.9341 18.7684 23.9341 18.3599V6.29304C23.9341 5.88458 23.5998 5.55029 23.1913 5.55029Z" stroke="#1E3A8A" stroke-miterlimit="10" stroke-linecap="round" stroke-linejoin="round"/>
<path d="M1 6.29303V9.62213C3.24887 9.62213 5.07191 7.79913 5.07191 5.55029H1.74275C1.33423 5.55029 1 5.88457 1 6.29303Z" stroke="#1E3A8A" stroke-miterlimit="10" stroke-linecap="round" stroke-linejoin="round"/>
<path d="M1 18.3604V15.0312C3.24887 15.0312 5.07191 16.8543 5.07191 19.1031H1.74275C1.33423 19.1031 1 18.7689 1 18.3604Z" stroke="#1E3A8A" stroke-miterlimit="10" stroke-linecap="round" stroke-linejoin="round"/>
<path d="M23.9332 6.29303V9.62213C21.6844 9.62213 19.8613 7.79913 19.8613 5.55029H23.1905C23.599 5.55029 23.9332 5.88457 23.9332 6.29303Z" stroke="#1E3A8A" stroke-miterlimit="10" stroke-linecap="round" stroke-linejoin="round"/>
<path d="M23.9332 18.3604V15.0312C21.6844 15.0312 19.8613 16.8543 19.8613 19.1031H23.1905C23.599 19.1031 23.9332 18.7689 23.9332 18.3604Z" stroke="#1E3A8A" stroke-miterlimit="10" stroke-linecap="round" stroke-linejoin="round"/>
<path d="M4.06641 1.63923V4.96833C6.31528 4.96833 8.13831 3.14532 8.13831 0.896484H4.80916C4.40064 0.896484 4.06641 1.23071 4.06641 1.63923Z" stroke="#1E3A8A" stroke-miterlimit="10" stroke-linecap="round" stroke-linejoin="round"/>
<path d="M26.9996 1.63923V4.96833C24.7508 4.96833 22.9277 3.14532 22.9277 0.896484H26.2569C26.6654 0.896484 26.9996 1.23071 26.9996 1.63923Z" stroke="#1E3A8A" stroke-miterlimit="10" stroke-linecap="round" stroke-linejoin="round"/>
<path d="M23.9336 11.7703V14.4483H26.2567C26.6652 14.4483 26.9995 14.1141 26.9995 13.7056V10.3765C25.7764 10.3765 24.68 10.9165 23.9336 11.7703Z" stroke="#1E3A8A" stroke-miterlimit="10" stroke-linecap="round" stroke-linejoin="round"/>
<path d="M18.9309 5.54958C18.2228 4.41809 16.9661 3.66504 15.5328 3.66504C14.0996 3.66504 12.8429 4.41809 12.1348 5.54958H18.9309Z" stroke="#1E3A8A" stroke-miterlimit="10" stroke-linecap="round" stroke-linejoin="round"/>
<path d="M11.5501 8.42676C9.77867 8.84103 8.45898 10.4294 8.45898 12.327C8.45898 14.5397 10.2528 16.3335 12.4656 16.3335C14.6784 16.3335 16.4722 14.5397 16.4722 12.327C16.4722 10.4294 15.1524 8.84103 13.3811 8.42676" stroke="#1E3A8A" stroke-miterlimit="10" stroke-linecap="round" stroke-linejoin="round"/>
<path d="M27.0005 6.75717V1.63923C27.0005 1.23072 26.6663 0.896484 26.2577 0.896484H4.80917C4.40064 0.896484 4.06641 1.23072 4.06641 1.63923V5.55066H23.1918C23.6003 5.55066 23.9346 5.88489 23.9346 6.29341V14.4488H26.2577C26.6662 14.4488 27.0004 14.1146 27.0004 13.7061V8.58814" stroke="#1E3A8A" stroke-miterlimit="10" stroke-linecap="round" stroke-linejoin="round"/>
</svg>
