<svg width="28" height="28" viewBox="0 0 28 28" fill="none" xmlns="http://www.w3.org/2000/svg">
<path d="M13.4885 15.1331C13.4885 15.1331 13.0779 14.7068 12.5252 14.7068C11.9726 14.7068 11.5698 15.1095 11.5698 15.524C11.5698 15.9386 12.091 16.2702 12.7503 16.4439C13.4096 16.6176 13.5491 16.9585 13.5491 17.3217C13.5491 17.6849 13.228 18.1534 12.4753 18.1534C11.7225 18.1534 11.3857 17.6059 11.3857 17.6059" stroke="#8DD3A0" stroke-width="1.2" stroke-miterlimit="10" stroke-linecap="round" stroke-linejoin="round"/>
<path d="M12.4667 14.0674V14.5306" stroke="#8DD3A0" stroke-width="1.2" stroke-miterlimit="10" stroke-linecap="round" stroke-linejoin="round"/>
<path d="M12.4666 18.3301V18.7933" stroke="#8DD3A0" stroke-width="1.2" stroke-miterlimit="10" stroke-linecap="round" stroke-linejoin="round"/>
<path d="M23.1911 9.65405H1.74275C1.33423 9.65405 1 9.98829 1 10.3968V22.4637C1 22.8723 1.33423 23.2065 1.74275 23.2065H23.1911C23.5996 23.2065 23.9339 22.8723 23.9339 22.4637V10.3968C23.9339 9.98834 23.5996 9.65405 23.1911 9.65405Z" stroke="#8DD3A0" stroke-width="1.2" stroke-miterlimit="10" stroke-linecap="round" stroke-linejoin="round"/>
<path d="M1 10.3968V13.7259C3.24885 13.7259 5.07187 11.9029 5.07187 9.65405H1.74275C1.33423 9.65405 1 9.98834 1 10.3968Z" stroke="#8DD3A0" stroke-width="1.2" stroke-miterlimit="10" stroke-linecap="round" stroke-linejoin="round"/>
<path d="M1 22.464V19.1349C3.24885 19.1349 5.07187 20.9579 5.07187 23.2068H1.74275C1.33423 23.2068 1 22.8725 1 22.464Z" stroke="#8DD3A0" stroke-width="1.2" stroke-miterlimit="10" stroke-linecap="round" stroke-linejoin="round"/>
<path d="M23.9339 10.3968V13.7259C21.685 13.7259 19.862 11.9029 19.862 9.65405H23.1911C23.5996 9.65405 23.9339 9.98834 23.9339 10.3968Z" stroke="#8DD3A0" stroke-width="1.2" stroke-miterlimit="10" stroke-linecap="round" stroke-linejoin="round"/>
<path d="M23.9339 22.464V19.1349C21.685 19.1349 19.862 20.9579 19.862 23.2068H23.1911C23.5996 23.2068 23.9339 22.8725 23.9339 22.464Z" stroke="#8DD3A0" stroke-width="1.2" stroke-miterlimit="10" stroke-linecap="round" stroke-linejoin="round"/>
<path d="M4.06616 5.74275V9.07188C6.31501 9.07188 8.13803 7.24885 8.13803 5H4.80891C4.40039 5 4.06616 5.33423 4.06616 5.74275Z" stroke="#8DD3A0" stroke-width="1.2" stroke-miterlimit="10" stroke-linecap="round" stroke-linejoin="round"/>
<path d="M26.9995 5.74275V9.07188C24.7507 9.07188 22.9276 7.24885 22.9276 5H26.2568C26.6653 5 26.9995 5.33423 26.9995 5.74275Z" stroke="#8DD3A0" stroke-width="1.2" stroke-miterlimit="10" stroke-linecap="round" stroke-linejoin="round"/>
<path d="M23.9336 15.8737V18.5517H26.2566C26.6652 18.5517 26.9994 18.2175 26.9994 17.809V14.4799C25.7763 14.4799 24.68 15.0199 23.9336 15.8737Z" stroke="#8DD3A0" stroke-width="1.2" stroke-miterlimit="10" stroke-linecap="round" stroke-linejoin="round"/>
<path d="M18.9308 9.65372C18.2226 8.52222 16.966 7.76917 15.5327 7.76917C14.0995 7.76917 12.8428 8.52222 12.1347 9.65372H18.9308Z" stroke="#8DD3A0" stroke-width="1.2" stroke-miterlimit="10" stroke-linecap="round" stroke-linejoin="round"/>
<path d="M11.5508 12.5298C9.77935 12.9441 8.45969 14.5324 8.45969 16.4301C8.45969 18.6428 10.2535 20.4366 12.4662 20.4366C14.679 20.4366 16.4728 18.6428 16.4728 16.4301C16.4728 14.5324 15.1531 12.9441 13.3817 12.5298" stroke="#8DD3A0" stroke-width="1.2" stroke-miterlimit="10" stroke-linecap="round" stroke-linejoin="round"/>
<path d="M27 10.8607V5.74275C27 5.33423 26.6658 5 26.2573 5H4.80891C4.40039 5 4.06616 5.33423 4.06616 5.74275V9.65422H23.1914C23.5999 9.65422 23.9341 9.98845 23.9341 10.397V18.5525H26.2572C26.6657 18.5525 27 18.2182 27 17.8097V12.6917" stroke="#8DD3A0" stroke-width="1.2" stroke-miterlimit="10" stroke-linecap="round" stroke-linejoin="round"/>
</svg>
