<svg width="25" height="16" viewBox="0 0 25 16" fill="none" xmlns="http://www.w3.org/2000/svg">
<mask id="path-1-outside-1_25037_33661" maskUnits="userSpaceOnUse" x="-0.900391" y="-0.900391" width="26" height="17" fill="black">
<rect fill="white" x="-0.900391" y="-0.900391" width="26" height="17"/>
<path d="M12.0996 15.0996C11.4856 15.0996 10.6926 14.7596 10.3246 14.5176C9.87861 14.2246 7.64061 12.5415 5.77861 10.9825C5.46861 10.7225 5.00761 10.2405 4.56161 9.77448C4.23061 9.42947 3.93061 9.11246 3.77561 8.98146C3.56461 8.80345 3.53861 8.48745 3.71661 8.27644C3.89361 8.06444 4.20861 8.03744 4.42161 8.21744C4.59161 8.36144 4.92261 8.70445 5.28461 9.08246C5.69261 9.50847 6.15461 9.99048 6.42161 10.2155C8.32261 11.8075 10.5236 13.4496 10.8746 13.6806C11.1676 13.8746 11.7666 14.0996 12.0996 14.0996C12.5676 14.0996 12.6106 13.9796 12.6296 13.9296C12.6866 13.7726 12.8176 13.6546 12.9806 13.6146C13.1416 13.5756 13.3136 13.6186 13.4376 13.7306C13.6366 13.9126 13.8586 13.8776 14.0116 13.8196C14.3286 13.6966 14.5716 13.3816 14.6016 13.0536C14.6196 12.8636 14.7436 12.6996 14.9216 12.6325C15.0996 12.5665 15.3006 12.6045 15.4406 12.7346C15.5656 12.8506 15.8996 12.8786 16.2196 12.7166C16.3456 12.6535 16.6366 12.4715 16.6026 12.1535C16.5816 11.9595 16.6756 11.7705 16.8436 11.6705C17.0106 11.5705 17.2216 11.5775 17.3836 11.6885C17.5306 11.7915 17.8016 11.7375 17.9996 11.5675C18.1346 11.4525 18.3336 11.2015 18.1486 10.8165C17.7736 10.0365 16.1066 8.68845 14.6366 7.49942C13.8236 6.84241 13.0516 6.21739 12.4796 5.68038C12.3336 5.73938 12.2236 5.78838 12.1296 5.83038C11.8696 5.94738 11.6966 6.01939 11.3786 6.06839C10.6086 7.09041 9.57461 7.44842 8.44161 7.07441C7.98961 6.92541 7.68561 6.6054 7.58261 6.17339C7.34261 5.15842 8.27161 3.77438 8.95561 3.09036C10.7526 1.29232 12.0106 0.617304 14.3036 1.64233C16.2716 2.52335 18.2436 3.21237 18.2636 3.21937C18.5246 3.31037 18.6616 3.59538 18.5716 3.85638C18.4806 4.11739 18.1976 4.25539 17.9346 4.16439C17.9146 4.15739 15.9026 3.45437 13.8946 2.55635C12.1246 1.76533 11.2866 2.17234 9.66161 3.79838C8.97861 4.4814 8.45161 5.50342 8.55661 5.94238C8.57161 6.00639 8.59961 6.07339 8.75561 6.12539C9.24461 6.28939 9.97661 6.3794 10.6836 5.32242C10.7666 5.19842 10.9006 5.11841 11.0496 5.10341C11.3866 5.06941 11.4706 5.03141 11.7206 4.91941C11.8846 4.84641 12.0926 4.75241 12.4296 4.6304C12.6106 4.5654 12.8156 4.6094 12.9526 4.74741C13.4996 5.29442 14.3576 5.98839 15.2656 6.7224C16.8936 8.03944 18.5786 9.40247 19.0496 10.3845C19.3816 11.0735 19.2236 11.8375 18.6496 12.3285C18.3106 12.6195 17.9006 12.7606 17.5026 12.7396C17.3586 13.1006 17.0686 13.4096 16.6676 13.6116C16.2576 13.8176 15.8066 13.8766 15.4126 13.7926C15.2006 14.2226 14.8266 14.5776 14.3716 14.7536C13.9866 14.9036 13.5866 14.9026 13.2346 14.7656C12.9716 14.9866 12.5926 15.0996 12.0996 15.0996Z"/>
<path d="M10.0996 3.09936H5.59961C5.32361 3.09936 5.09961 2.87536 5.09961 2.59935C5.09961 2.32335 5.32361 2.09934 5.59961 2.09934H10.0996C10.3756 2.09934 10.5996 2.32335 10.5996 2.59935C10.5996 2.87536 10.3756 3.09936 10.0996 3.09936Z"/>
<path d="M18.6386 11.0815C18.4776 11.0815 18.3196 11.0035 18.2226 10.8605C18.0686 10.6315 18.1296 10.3205 18.3586 10.1665L19.8206 9.18446C20.0496 9.02846 20.3596 9.09146 20.5146 9.32047C20.6686 9.54947 20.6076 9.86048 20.3786 10.0145L18.9166 10.9965C18.8306 11.0545 18.7336 11.0815 18.6386 11.0815Z"/>
<path d="M17.0996 12.5995C16.9916 12.5995 16.8816 12.5645 16.7906 12.4925C16.2636 12.0765 13.9966 9.71348 13.7396 9.44547C13.5486 9.24646 13.5546 8.92946 13.7546 8.73845C13.9536 8.54645 14.2706 8.55345 14.4616 8.75345C15.4516 9.78548 17.0526 11.4245 17.4106 11.7065C17.6276 11.8775 17.6646 12.1925 17.4936 12.4085C17.3936 12.5335 17.2466 12.5995 17.0996 12.5995Z"/>
<path d="M15.0996 13.5996C14.9906 13.5996 14.8796 13.5636 14.7876 13.4906C14.0456 12.8966 12.2496 10.9575 12.2316 10.9385C12.0446 10.7355 12.0586 10.4185 12.2616 10.2315C12.4656 10.0455 12.7806 10.0575 12.9686 10.2615C13.3086 10.6315 14.8136 12.2305 15.4126 12.7095C15.6276 12.8816 15.6626 13.1966 15.4906 13.4126C15.3916 13.5346 15.2456 13.5996 15.0996 13.5996Z"/>
<path d="M13.0996 14.5996C12.9856 14.5996 12.8716 14.5606 12.7776 14.4816C12.0406 13.8596 10.6446 12.3795 10.2346 11.9405C10.0466 11.7385 10.0566 11.4225 10.2586 11.2335C10.4596 11.0445 10.7766 11.0555 10.9656 11.2575C11.2506 11.5625 12.7096 13.1156 13.4226 13.7166C13.6336 13.8946 13.6606 14.2096 13.4826 14.4216C13.3836 14.5386 13.2416 14.5996 13.0996 14.5996Z"/>
<path d="M3.59961 10.0995H0.599609C0.323609 10.0995 0.0996094 9.87548 0.0996094 9.59947V0.599304C0.0996094 0.4613 0.156609 0.329297 0.256609 0.235295C0.356609 0.140293 0.487609 0.0932914 0.629609 0.100292C1.65961 0.161293 5.08661 0.4243 5.94361 1.23632C6.05461 1.34032 6.11061 1.49033 6.09761 1.64233C5.87061 4.24239 4.14761 9.53047 4.07461 9.75448C4.00761 9.96048 3.81561 10.0995 3.59961 10.0995ZM1.09961 9.09946H3.23461C3.60661 7.92543 4.80561 4.03439 5.07061 1.84433C4.44061 1.53833 2.70661 1.26232 1.09961 1.13532V9.09946Z"/>
<path d="M23.5996 11.0995H20.5996C20.3746 11.0995 20.1776 10.9495 20.1176 10.7325C19.7456 9.38447 17.8106 3.85838 17.1926 2.86336C17.1176 2.74136 17.0976 2.59435 17.1376 2.45735C17.1776 2.32035 17.2746 2.20734 17.4046 2.14634C17.4956 2.10434 19.6736 1.09932 23.5996 1.09932C23.8756 1.09932 24.0996 1.32232 24.0996 1.59933V10.5995C24.0996 10.8755 23.8756 11.0995 23.5996 11.0995ZM20.9736 10.0995H23.0996V2.10534C20.7206 2.16134 19.0816 2.60635 18.3186 2.86536C19.0996 4.5294 20.4996 8.55545 20.9736 10.0995Z"/>
</mask>
<path d="M12.0996 15.0996C11.4856 15.0996 10.6926 14.7596 10.3246 14.5176C9.87861 14.2246 7.64061 12.5415 5.77861 10.9825C5.46861 10.7225 5.00761 10.2405 4.56161 9.77448C4.23061 9.42947 3.93061 9.11246 3.77561 8.98146C3.56461 8.80345 3.53861 8.48745 3.71661 8.27644C3.89361 8.06444 4.20861 8.03744 4.42161 8.21744C4.59161 8.36144 4.92261 8.70445 5.28461 9.08246C5.69261 9.50847 6.15461 9.99048 6.42161 10.2155C8.32261 11.8075 10.5236 13.4496 10.8746 13.6806C11.1676 13.8746 11.7666 14.0996 12.0996 14.0996C12.5676 14.0996 12.6106 13.9796 12.6296 13.9296C12.6866 13.7726 12.8176 13.6546 12.9806 13.6146C13.1416 13.5756 13.3136 13.6186 13.4376 13.7306C13.6366 13.9126 13.8586 13.8776 14.0116 13.8196C14.3286 13.6966 14.5716 13.3816 14.6016 13.0536C14.6196 12.8636 14.7436 12.6996 14.9216 12.6325C15.0996 12.5665 15.3006 12.6045 15.4406 12.7346C15.5656 12.8506 15.8996 12.8786 16.2196 12.7166C16.3456 12.6535 16.6366 12.4715 16.6026 12.1535C16.5816 11.9595 16.6756 11.7705 16.8436 11.6705C17.0106 11.5705 17.2216 11.5775 17.3836 11.6885C17.5306 11.7915 17.8016 11.7375 17.9996 11.5675C18.1346 11.4525 18.3336 11.2015 18.1486 10.8165C17.7736 10.0365 16.1066 8.68845 14.6366 7.49942C13.8236 6.84241 13.0516 6.21739 12.4796 5.68038C12.3336 5.73938 12.2236 5.78838 12.1296 5.83038C11.8696 5.94738 11.6966 6.01939 11.3786 6.06839C10.6086 7.09041 9.57461 7.44842 8.44161 7.07441C7.98961 6.92541 7.68561 6.6054 7.58261 6.17339C7.34261 5.15842 8.27161 3.77438 8.95561 3.09036C10.7526 1.29232 12.0106 0.617304 14.3036 1.64233C16.2716 2.52335 18.2436 3.21237 18.2636 3.21937C18.5246 3.31037 18.6616 3.59538 18.5716 3.85638C18.4806 4.11739 18.1976 4.25539 17.9346 4.16439C17.9146 4.15739 15.9026 3.45437 13.8946 2.55635C12.1246 1.76533 11.2866 2.17234 9.66161 3.79838C8.97861 4.4814 8.45161 5.50342 8.55661 5.94238C8.57161 6.00639 8.59961 6.07339 8.75561 6.12539C9.24461 6.28939 9.97661 6.3794 10.6836 5.32242C10.7666 5.19842 10.9006 5.11841 11.0496 5.10341C11.3866 5.06941 11.4706 5.03141 11.7206 4.91941C11.8846 4.84641 12.0926 4.75241 12.4296 4.6304C12.6106 4.5654 12.8156 4.6094 12.9526 4.74741C13.4996 5.29442 14.3576 5.98839 15.2656 6.7224C16.8936 8.03944 18.5786 9.40247 19.0496 10.3845C19.3816 11.0735 19.2236 11.8375 18.6496 12.3285C18.3106 12.6195 17.9006 12.7606 17.5026 12.7396C17.3586 13.1006 17.0686 13.4096 16.6676 13.6116C16.2576 13.8176 15.8066 13.8766 15.4126 13.7926C15.2006 14.2226 14.8266 14.5776 14.3716 14.7536C13.9866 14.9036 13.5866 14.9026 13.2346 14.7656C12.9716 14.9866 12.5926 15.0996 12.0996 15.0996Z" fill="#1E3A8A"/>
<path d="M10.0996 3.09936H5.59961C5.32361 3.09936 5.09961 2.87536 5.09961 2.59935C5.09961 2.32335 5.32361 2.09934 5.59961 2.09934H10.0996C10.3756 2.09934 10.5996 2.32335 10.5996 2.59935C10.5996 2.87536 10.3756 3.09936 10.0996 3.09936Z" fill="#1E3A8A"/>
<path d="M18.6386 11.0815C18.4776 11.0815 18.3196 11.0035 18.2226 10.8605C18.0686 10.6315 18.1296 10.3205 18.3586 10.1665L19.8206 9.18446C20.0496 9.02846 20.3596 9.09146 20.5146 9.32047C20.6686 9.54947 20.6076 9.86048 20.3786 10.0145L18.9166 10.9965C18.8306 11.0545 18.7336 11.0815 18.6386 11.0815Z" fill="#1E3A8A"/>
<path d="M17.0996 12.5995C16.9916 12.5995 16.8816 12.5645 16.7906 12.4925C16.2636 12.0765 13.9966 9.71348 13.7396 9.44547C13.5486 9.24646 13.5546 8.92946 13.7546 8.73845C13.9536 8.54645 14.2706 8.55345 14.4616 8.75345C15.4516 9.78548 17.0526 11.4245 17.4106 11.7065C17.6276 11.8775 17.6646 12.1925 17.4936 12.4085C17.3936 12.5335 17.2466 12.5995 17.0996 12.5995Z" fill="#1E3A8A"/>
<path d="M15.0996 13.5996C14.9906 13.5996 14.8796 13.5636 14.7876 13.4906C14.0456 12.8966 12.2496 10.9575 12.2316 10.9385C12.0446 10.7355 12.0586 10.4185 12.2616 10.2315C12.4656 10.0455 12.7806 10.0575 12.9686 10.2615C13.3086 10.6315 14.8136 12.2305 15.4126 12.7095C15.6276 12.8816 15.6626 13.1966 15.4906 13.4126C15.3916 13.5346 15.2456 13.5996 15.0996 13.5996Z" fill="#1E3A8A"/>
<path d="M13.0996 14.5996C12.9856 14.5996 12.8716 14.5606 12.7776 14.4816C12.0406 13.8596 10.6446 12.3795 10.2346 11.9405C10.0466 11.7385 10.0566 11.4225 10.2586 11.2335C10.4596 11.0445 10.7766 11.0555 10.9656 11.2575C11.2506 11.5625 12.7096 13.1156 13.4226 13.7166C13.6336 13.8946 13.6606 14.2096 13.4826 14.4216C13.3836 14.5386 13.2416 14.5996 13.0996 14.5996Z" fill="#1E3A8A"/>
<path d="M3.59961 10.0995H0.599609C0.323609 10.0995 0.0996094 9.87548 0.0996094 9.59947V0.599304C0.0996094 0.4613 0.156609 0.329297 0.256609 0.235295C0.356609 0.140293 0.487609 0.0932914 0.629609 0.100292C1.65961 0.161293 5.08661 0.4243 5.94361 1.23632C6.05461 1.34032 6.11061 1.49033 6.09761 1.64233C5.87061 4.24239 4.14761 9.53047 4.07461 9.75448C4.00761 9.96048 3.81561 10.0995 3.59961 10.0995ZM1.09961 9.09946H3.23461C3.60661 7.92543 4.80561 4.03439 5.07061 1.84433C4.44061 1.53833 2.70661 1.26232 1.09961 1.13532V9.09946Z" fill="#1E3A8A"/>
<path d="M23.5996 11.0995H20.5996C20.3746 11.0995 20.1776 10.9495 20.1176 10.7325C19.7456 9.38447 17.8106 3.85838 17.1926 2.86336C17.1176 2.74136 17.0976 2.59435 17.1376 2.45735C17.1776 2.32035 17.2746 2.20734 17.4046 2.14634C17.4956 2.10434 19.6736 1.09932 23.5996 1.09932C23.8756 1.09932 24.0996 1.32232 24.0996 1.59933V10.5995C24.0996 10.8755 23.8756 11.0995 23.5996 11.0995ZM20.9736 10.0995H23.0996V2.10534C20.7206 2.16134 19.0816 2.60635 18.3186 2.86536C19.0996 4.5294 20.4996 8.55545 20.9736 10.0995Z" fill="#1E3A8A"/>
<path d="M12.0996 15.0996C11.4856 15.0996 10.6926 14.7596 10.3246 14.5176C9.87861 14.2246 7.64061 12.5415 5.77861 10.9825C5.46861 10.7225 5.00761 10.2405 4.56161 9.77448C4.23061 9.42947 3.93061 9.11246 3.77561 8.98146C3.56461 8.80345 3.53861 8.48745 3.71661 8.27644C3.89361 8.06444 4.20861 8.03744 4.42161 8.21744C4.59161 8.36144 4.92261 8.70445 5.28461 9.08246C5.69261 9.50847 6.15461 9.99048 6.42161 10.2155C8.32261 11.8075 10.5236 13.4496 10.8746 13.6806C11.1676 13.8746 11.7666 14.0996 12.0996 14.0996C12.5676 14.0996 12.6106 13.9796 12.6296 13.9296C12.6866 13.7726 12.8176 13.6546 12.9806 13.6146C13.1416 13.5756 13.3136 13.6186 13.4376 13.7306C13.6366 13.9126 13.8586 13.8776 14.0116 13.8196C14.3286 13.6966 14.5716 13.3816 14.6016 13.0536C14.6196 12.8636 14.7436 12.6996 14.9216 12.6325C15.0996 12.5665 15.3006 12.6045 15.4406 12.7346C15.5656 12.8506 15.8996 12.8786 16.2196 12.7166C16.3456 12.6535 16.6366 12.4715 16.6026 12.1535C16.5816 11.9595 16.6756 11.7705 16.8436 11.6705C17.0106 11.5705 17.2216 11.5775 17.3836 11.6885C17.5306 11.7915 17.8016 11.7375 17.9996 11.5675C18.1346 11.4525 18.3336 11.2015 18.1486 10.8165C17.7736 10.0365 16.1066 8.68845 14.6366 7.49942C13.8236 6.84241 13.0516 6.21739 12.4796 5.68038C12.3336 5.73938 12.2236 5.78838 12.1296 5.83038C11.8696 5.94738 11.6966 6.01939 11.3786 6.06839C10.6086 7.09041 9.57461 7.44842 8.44161 7.07441C7.98961 6.92541 7.68561 6.6054 7.58261 6.17339C7.34261 5.15842 8.27161 3.77438 8.95561 3.09036C10.7526 1.29232 12.0106 0.617304 14.3036 1.64233C16.2716 2.52335 18.2436 3.21237 18.2636 3.21937C18.5246 3.31037 18.6616 3.59538 18.5716 3.85638C18.4806 4.11739 18.1976 4.25539 17.9346 4.16439C17.9146 4.15739 15.9026 3.45437 13.8946 2.55635C12.1246 1.76533 11.2866 2.17234 9.66161 3.79838C8.97861 4.4814 8.45161 5.50342 8.55661 5.94238C8.57161 6.00639 8.59961 6.07339 8.75561 6.12539C9.24461 6.28939 9.97661 6.3794 10.6836 5.32242C10.7666 5.19842 10.9006 5.11841 11.0496 5.10341C11.3866 5.06941 11.4706 5.03141 11.7206 4.91941C11.8846 4.84641 12.0926 4.75241 12.4296 4.6304C12.6106 4.5654 12.8156 4.6094 12.9526 4.74741C13.4996 5.29442 14.3576 5.98839 15.2656 6.7224C16.8936 8.03944 18.5786 9.40247 19.0496 10.3845C19.3816 11.0735 19.2236 11.8375 18.6496 12.3285C18.3106 12.6195 17.9006 12.7606 17.5026 12.7396C17.3586 13.1006 17.0686 13.4096 16.6676 13.6116C16.2576 13.8176 15.8066 13.8766 15.4126 13.7926C15.2006 14.2226 14.8266 14.5776 14.3716 14.7536C13.9866 14.9036 13.5866 14.9026 13.2346 14.7656C12.9716 14.9866 12.5926 15.0996 12.0996 15.0996Z" stroke="#1E3A8A" stroke-width="0.2" mask="url(#path-1-outside-1_25037_33661)"/>
<path d="M10.0996 3.09936H5.59961C5.32361 3.09936 5.09961 2.87536 5.09961 2.59935C5.09961 2.32335 5.32361 2.09934 5.59961 2.09934H10.0996C10.3756 2.09934 10.5996 2.32335 10.5996 2.59935C10.5996 2.87536 10.3756 3.09936 10.0996 3.09936Z" stroke="#1E3A8A" stroke-width="0.2" mask="url(#path-1-outside-1_25037_33661)"/>
<path d="M18.6386 11.0815C18.4776 11.0815 18.3196 11.0035 18.2226 10.8605C18.0686 10.6315 18.1296 10.3205 18.3586 10.1665L19.8206 9.18446C20.0496 9.02846 20.3596 9.09146 20.5146 9.32047C20.6686 9.54947 20.6076 9.86048 20.3786 10.0145L18.9166 10.9965C18.8306 11.0545 18.7336 11.0815 18.6386 11.0815Z" stroke="#1E3A8A" stroke-width="0.2" mask="url(#path-1-outside-1_25037_33661)"/>
<path d="M17.0996 12.5995C16.9916 12.5995 16.8816 12.5645 16.7906 12.4925C16.2636 12.0765 13.9966 9.71348 13.7396 9.44547C13.5486 9.24646 13.5546 8.92946 13.7546 8.73845C13.9536 8.54645 14.2706 8.55345 14.4616 8.75345C15.4516 9.78548 17.0526 11.4245 17.4106 11.7065C17.6276 11.8775 17.6646 12.1925 17.4936 12.4085C17.3936 12.5335 17.2466 12.5995 17.0996 12.5995Z" stroke="#1E3A8A" stroke-width="0.2" mask="url(#path-1-outside-1_25037_33661)"/>
<path d="M15.0996 13.5996C14.9906 13.5996 14.8796 13.5636 14.7876 13.4906C14.0456 12.8966 12.2496 10.9575 12.2316 10.9385C12.0446 10.7355 12.0586 10.4185 12.2616 10.2315C12.4656 10.0455 12.7806 10.0575 12.9686 10.2615C13.3086 10.6315 14.8136 12.2305 15.4126 12.7095C15.6276 12.8816 15.6626 13.1966 15.4906 13.4126C15.3916 13.5346 15.2456 13.5996 15.0996 13.5996Z" stroke="#1E3A8A" stroke-width="0.2" mask="url(#path-1-outside-1_25037_33661)"/>
<path d="M13.0996 14.5996C12.9856 14.5996 12.8716 14.5606 12.7776 14.4816C12.0406 13.8596 10.6446 12.3795 10.2346 11.9405C10.0466 11.7385 10.0566 11.4225 10.2586 11.2335C10.4596 11.0445 10.7766 11.0555 10.9656 11.2575C11.2506 11.5625 12.7096 13.1156 13.4226 13.7166C13.6336 13.8946 13.6606 14.2096 13.4826 14.4216C13.3836 14.5386 13.2416 14.5996 13.0996 14.5996Z" stroke="#1E3A8A" stroke-width="0.2" mask="url(#path-1-outside-1_25037_33661)"/>
<path d="M3.59961 10.0995H0.599609C0.323609 10.0995 0.0996094 9.87548 0.0996094 9.59947V0.599304C0.0996094 0.4613 0.156609 0.329297 0.256609 0.235295C0.356609 0.140293 0.487609 0.0932914 0.629609 0.100292C1.65961 0.161293 5.08661 0.4243 5.94361 1.23632C6.05461 1.34032 6.11061 1.49033 6.09761 1.64233C5.87061 4.24239 4.14761 9.53047 4.07461 9.75448C4.00761 9.96048 3.81561 10.0995 3.59961 10.0995ZM1.09961 9.09946H3.23461C3.60661 7.92543 4.80561 4.03439 5.07061 1.84433C4.44061 1.53833 2.70661 1.26232 1.09961 1.13532V9.09946Z" stroke="#1E3A8A" stroke-width="0.2" mask="url(#path-1-outside-1_25037_33661)"/>
<path d="M23.5996 11.0995H20.5996C20.3746 11.0995 20.1776 10.9495 20.1176 10.7325C19.7456 9.38447 17.8106 3.85838 17.1926 2.86336C17.1176 2.74136 17.0976 2.59435 17.1376 2.45735C17.1776 2.32035 17.2746 2.20734 17.4046 2.14634C17.4956 2.10434 19.6736 1.09932 23.5996 1.09932C23.8756 1.09932 24.0996 1.32232 24.0996 1.59933V10.5995C24.0996 10.8755 23.8756 11.0995 23.5996 11.0995ZM20.9736 10.0995H23.0996V2.10534C20.7206 2.16134 19.0816 2.60635 18.3186 2.86536C19.0996 4.5294 20.4996 8.55545 20.9736 10.0995Z" stroke="#1E3A8A" stroke-width="0.2" mask="url(#path-1-outside-1_25037_33661)"/>
</svg>
