<svg width="25" height="25" viewBox="0 0 25 25" fill="none" xmlns="http://www.w3.org/2000/svg">
<path d="M13.8887 7.11816L13.8174 7.18848L6.50293 14.5029C5.56782 15.438 5.56782 16.9614 6.50293 17.8965C7.43868 18.8324 8.96073 18.8325 9.89648 17.8965L17.2119 10.582L17.2822 10.5117L17.3535 10.582L17.54 10.7695H17.541L21.0195 14.249L21.3125 14.542L13.9277 21.9268C10.7648 25.0902 5.63566 25.0901 2.47266 21.9268C-0.69034 18.7639 -0.690331 13.6358 2.47266 10.4727L9.78711 3.1582L9.8584 3.08789L13.8887 7.11816ZM3.32031 11.3213C2.66179 11.9802 2.15211 12.7481 1.80566 13.6025C1.47063 14.4299 1.2998 15.3034 1.2998 16.2002C1.29981 17.0962 1.47072 17.9701 1.80566 18.7959C2.15208 19.6511 2.66179 20.4188 3.32031 21.0781C3.97959 21.7374 4.74724 22.2473 5.60254 22.5938C6.42928 22.9287 7.30333 23.0996 8.2002 23.0996C9.09691 23.0996 9.97026 22.9286 10.7969 22.5938C11.6516 22.2473 12.4197 21.7375 13.0791 21.0781L16.7861 17.3691L14.4531 15.0361L10.7461 18.7451C9.34031 20.1508 7.06013 20.1507 5.6543 18.7451C4.24853 17.3394 4.24863 15.06 5.6543 13.6543L9.3623 9.94531L7.0293 7.6123L3.32031 11.3213ZM15.3027 14.1875L17.6357 16.5215L18.2012 15.9551L15.8682 13.6221L15.3027 14.1875ZM16.7158 12.7734L19.0498 15.1074L19.6152 14.541L17.2822 12.208L16.7158 12.7734ZM23.7002 12.3496C23.8537 12.3496 24.008 12.4084 24.125 12.5254C24.3585 12.7598 24.3586 13.1391 24.125 13.373C24.0369 13.4611 23.9282 13.5173 23.8145 13.5391L23.6992 13.5488H21.7002C21.5471 13.5487 21.3935 13.4909 21.2764 13.373C21.0425 13.1391 21.0428 12.7599 21.2764 12.5254C21.3933 12.4085 21.5469 12.3497 21.7002 12.3496H23.7002ZM21.7002 9.52148C22.0315 9.52148 22.2996 9.78999 22.2998 10.1211C22.2998 10.2866 22.2331 10.4373 22.124 10.5459L20.7109 11.96C20.6023 12.0682 20.4523 12.1357 20.2861 12.1357C19.9549 12.1357 19.6855 11.8664 19.6855 11.5352C19.6856 11.3694 19.7536 11.2195 19.8613 11.1113L21.2764 9.69727C21.3845 9.58888 21.5346 9.52161 21.7002 9.52148ZM18.542 7.62109C18.7745 7.4672 19.0906 7.49265 19.2959 7.69727C19.4128 7.81413 19.4717 7.96873 19.4717 8.12207V10.1211C19.4717 10.2744 19.4128 10.429 19.2959 10.5459C19.0906 10.7505 18.7745 10.776 18.542 10.6221L18.4482 10.5459C18.3303 10.4284 18.2725 10.2745 18.2725 10.1211V8.12207C18.2725 7.96862 18.3303 7.81474 18.4482 7.69727L18.542 7.62109ZM7.87695 6.76367L10.2109 9.09668L10.7773 8.53125L8.44336 6.19824L7.87695 6.76367ZM9.29199 5.34961L11.625 7.68262L12.1904 7.11719L9.85742 4.78418L9.29199 5.34961ZM16.2773 4.92676C16.43 4.92676 16.5842 4.98536 16.7012 5.10254C16.9358 5.33673 16.9357 5.7169 16.7012 5.95117C16.5843 6.06806 16.4302 6.1274 16.2764 6.12695H14.2783C14.1248 6.12695 13.9705 6.06819 13.8535 5.95117C13.6484 5.74626 13.6225 5.43008 13.7764 5.19727L13.8535 5.10254C13.9706 4.98531 14.125 4.92676 14.2783 4.92676H16.2773ZM14.2773 2.09863C14.6086 2.09874 14.877 2.36795 14.877 2.69922C14.8769 2.86495 14.8098 3.01485 14.7021 3.12305H14.7012L13.2871 4.53711C13.179 4.64561 13.0285 4.71289 12.8633 4.71289C12.5322 4.71275 12.2637 4.44457 12.2637 4.11328C12.2637 3.94784 12.3303 3.79714 12.4395 3.68848L13.8525 2.27441C13.9613 2.16614 14.112 2.09863 14.2773 2.09863ZM11.0244 0.274414C11.259 0.0403008 11.6394 0.0402795 11.874 0.274414V0.275391C11.9905 0.392445 12.0498 0.545664 12.0498 0.699219V2.69922C12.0497 2.85239 11.9905 3.00601 11.874 3.12305C11.6394 3.35719 11.259 3.35719 11.0244 3.12305C10.9078 3.00588 10.8486 2.85184 10.8486 2.69824V0.699219C10.8487 0.546003 10.9079 0.392476 11.0244 0.275391V0.274414Z" fill="#1E3A8A" stroke="#1E3A8A" stroke-width="0.2"/>
</svg>
