<svg width="24" height="23" viewBox="0 0 24 23" fill="none" xmlns="http://www.w3.org/2000/svg">
<path d="M24 16.1092C23.8084 16.8246 23.3563 17.5064 22.6731 17.8227C22.5335 17.8872 22.0457 18.0504 21.9142 18.0504H14.5786V19.6602H15.5398C16.4703 19.6602 17.4922 20.7317 17.6137 21.6375C17.6625 22.0038 17.7545 22.9026 17.2993 23H6.70319C6.2536 22.9032 6.33939 22.0436 6.38134 21.678C6.48779 20.7545 7.51847 19.6608 8.46212 19.6608H9.42329V18.051H2.08766C1.16343 18.051 0.0920476 16.9561 0.00688791 16.0339L0 2.11684C0.142142 0.975745 1.05322 0.107274 2.18222 0.0117612L9.91609 0.00986359C10.5141 0.0781774 10.5185 0.932733 9.91609 1.00674L2.09831 1.01686C1.51659 1.10478 0.938635 1.76135 0.938635 2.35467V7.44469H3.18848C3.15654 6.46868 3.78835 5.4775 4.68817 5.12391C4.71509 5.08723 4.48341 4.67924 4.4521 4.58183C3.93488 2.98784 5.42705 1.54946 6.96994 2.18009C8.15842 2.66651 8.40513 4.06568 7.78147 5.12328C8.68378 5.47497 9.30808 6.47058 9.28115 7.44405H11.531V2.21235C11.531 2.06307 11.8741 1.89482 12.0219 1.90114C12.154 1.90684 12.4684 2.08015 12.4684 2.21235V7.44405H14.7182C14.6863 6.46805 15.3181 5.47687 16.2179 5.12328C16.2448 5.08659 16.0131 4.67861 15.9818 4.5812C15.4646 2.98721 16.9568 1.54882 18.4997 2.17946C19.6882 2.66588 19.9349 4.06505 19.3112 5.12265C20.2135 5.47434 20.8378 6.46995 20.8109 7.44342H23.0607V2.35467C23.0607 1.76135 22.4828 1.10478 21.9011 1.01686L14.0407 1.00231C13.5153 0.920715 13.4671 0.192034 13.9662 0.0332674C16.7007 0.0199842 19.454 -0.0527574 22.1803 0.0712195C23.1158 0.287547 23.7608 1.03204 23.9981 1.95175V16.1085L24 16.1092ZM6.21979 3.01124C5.01753 3.03402 5.0551 4.89241 6.25172 4.87027C7.45398 4.8475 7.41641 2.98911 6.21979 3.01124ZM17.7502 3.01124C16.5479 3.03402 16.5855 4.89241 17.7821 4.87027C18.9843 4.8475 18.9468 2.98911 17.7502 3.01124ZM8.29806 7.44405C8.28428 6.42757 7.5335 5.8975 6.58923 5.83235C5.35316 5.74759 4.30369 6.05564 4.12649 7.44405H8.29806ZM19.8284 7.44405C19.8147 6.42757 19.0639 5.8975 18.1196 5.83235C16.8835 5.74759 15.8341 6.05564 15.6569 7.44405H19.8284ZM11.5322 8.4384H0.939261V14.8776H3.1891C3.15717 13.9016 3.78898 12.9104 4.68879 12.5568C4.71572 12.5202 4.48403 12.1122 4.45272 12.0148C3.9355 10.4208 5.42768 8.98238 6.97057 9.61302C8.15905 10.0994 8.40576 11.4986 7.78209 12.5562C8.68441 12.9079 9.3087 13.9035 9.28178 14.877H11.5316V8.43777L11.5322 8.4384ZM23.0626 8.4384H12.4696V14.8776H23.0626V8.4384ZM6.21979 10.4448C5.01753 10.4676 5.0551 12.326 6.25172 12.3038C7.44834 12.2817 7.41641 10.4227 6.21979 10.4448ZM8.29806 14.8776C8.28428 13.8611 7.5335 13.3311 6.58923 13.2659C5.35316 13.1812 4.30369 13.4892 4.12649 14.8776H8.29806ZM23.0157 15.872H0.986224C1.06575 16.5266 1.62367 17.0181 2.27301 17.058L21.8209 17.0561C22.4321 16.958 22.938 16.5045 23.0157 15.872ZM13.6412 18.0504H10.36V19.6602H11.7896C11.9054 19.6602 12.1165 19.8784 12.1384 20.0182C12.2004 20.4091 12.0357 20.6198 11.6512 20.6571C10.6738 20.7526 9.36631 20.5053 8.43582 20.6761C7.77708 20.7975 7.38572 21.3896 7.31309 22.0278H16.6875C16.6055 21.4882 16.3895 21.0214 15.876 20.7874C15.226 20.4914 14.2336 20.7418 13.5222 20.6558C13.1378 20.609 12.9612 20.2668 13.1133 19.9088C13.2354 19.6216 13.6406 19.6912 13.6406 19.6602V18.0504H13.6412Z" fill="#1E3A8A"/>
<path d="M11.8948 0.0206167C12.5748 -0.112216 12.6744 0.9321 12.0664 1.00358C11.4289 1.07885 11.3056 0.135738 11.8948 0.0206167Z" fill="#1E3A8A"/>
<path d="M15.5028 10.2481L19.99 10.2405C20.4884 10.3518 20.4759 11.1235 19.9468 11.1861L15.5423 11.1823C15.082 11.109 15.0532 10.3822 15.5028 10.2481Z" fill="#1E3A8A"/>
<path d="M13.7214 12.1419L16.8491 12.1343C17.3231 12.2102 17.3388 12.9794 16.8491 13.0761H13.7608C13.3006 13.0028 13.2718 12.276 13.7214 12.1419Z" fill="#1E3A8A"/>
<path d="M18.69 12.1419L21.7708 12.1343C22.2486 12.2108 22.2542 12.999 21.7708 13.0761C20.8848 13.2178 19.6531 12.9787 18.7295 13.0761C18.2693 13.0028 18.2405 12.276 18.69 12.1419Z" fill="#1E3A8A"/>
</svg>
