<svg width="18" height="20" viewBox="0 0 18 20" fill="none" xmlns="http://www.w3.org/2000/svg">
<path d="M7.39395 20C7.64351 20 7.89618 19.9492 8.13949 19.8349L8.98173 19.4317H6.10564C6.4363 19.7968 6.91045 20 7.39395 20Z" fill="#434343"/>
<path d="M13.8979 1.48317H4.1061C3.13909 1.48317 2.353 2.28328 2.353 3.26754V16.7361C2.353 17.7203 3.13909 18.5204 4.1061 18.5204H13.8979C14.8649 18.5204 15.651 17.7203 15.651 16.7361V3.26754C15.651 2.28645 14.8649 1.48317 13.8979 1.48317ZM15.0552 16.7392C15.0552 17.3901 14.5374 17.9172 13.8979 17.9172H4.1061C3.46662 17.9172 2.9488 17.3901 2.9488 16.7392V3.26754C2.9488 2.61665 3.46662 2.0896 4.1061 2.0896H13.8979C14.5374 2.0896 15.0552 2.61665 15.0552 3.26754V16.7392Z" fill="#434343"/>
<path d="M13.0931 11.3321H4.91091C4.74558 11.3321 4.61457 11.4687 4.61457 11.6338C4.61457 11.802 4.7487 11.9354 4.91091 11.9354H13.0931C13.2584 11.9354 13.3895 11.7989 13.3895 11.6338C13.3895 11.4687 13.2584 11.3321 13.0931 11.3321Z" fill="#434343"/>
<path d="M4.91091 13.4372H11.6457C11.811 13.4372 11.942 13.3007 11.942 13.1356C11.942 12.9673 11.8079 12.8339 11.6457 12.8339H4.91091C4.74558 12.8339 4.61457 12.9705 4.61457 13.1356C4.61145 13.3038 4.74558 13.4372 4.91091 13.4372Z" fill="#434343"/>
<path d="M12.6657 14.3326H4.91091C4.74558 14.3326 4.61457 14.4691 4.61457 14.6342C4.61457 14.8025 4.7487 14.9358 4.91091 14.9358H12.6689C12.8342 14.9358 12.9652 14.7993 12.9652 14.6342C12.9652 14.4691 12.8311 14.3326 12.6657 14.3326Z" fill="#434343"/>
<path d="M10.1952 15.8312H4.91091C4.74558 15.8312 4.61457 15.9677 4.61457 16.1328C4.61457 16.3011 4.7487 16.4344 4.91091 16.4344H10.1952C10.3605 16.4344 10.4915 16.2979 10.4915 16.1328C10.4946 15.9677 10.3605 15.8312 10.1952 15.8312Z" fill="#434343"/>
<path d="M0.103907 5.42974C-0.0551827 5.87742 -0.0302275 6.3632 0.169414 6.79183L1.46085 9.58587V4.201L1.00853 4.42008C0.584295 4.62328 0.262996 4.97888 0.103907 5.42974Z" fill="#434343"/>
<path d="M11.2059 0.108373C10.7629 -0.0567292 10.2888 -0.031329 9.86764 0.171874L9.0254 0.575104H11.8984C11.7081 0.368726 11.4741 0.206799 11.2059 0.108373Z" fill="#434343"/>
<path d="M17.8346 13.2149L16.5432 10.4209V15.8026L16.9955 15.5867C17.8689 15.1708 18.2432 14.104 17.8346 13.2149Z" fill="#434343"/>
<path d="M9.00045 10.4368C11.0187 10.4368 12.6626 8.76671 12.6626 6.70928C12.6626 4.65186 11.0218 2.98496 9.00045 2.98496C6.97907 2.98496 5.33827 4.65503 5.33827 6.71246C5.33827 8.76988 6.98219 10.4368 9.00045 10.4368ZM9.00045 3.59139C10.6912 3.59139 12.0668 4.99158 12.0668 6.71246C12.0668 8.43333 10.6912 9.83352 9.00045 9.83352C7.30973 9.83352 5.93407 8.43333 5.93407 6.71246C5.93407 4.99158 7.31285 3.59139 9.00045 3.59139Z" fill="#434343"/>
<path d="M9.00357 9.23661C10.3699 9.23661 11.4835 8.10312 11.4835 6.70928C11.4835 5.31861 10.3699 4.18512 9.00357 4.18512C7.63415 4.18512 6.52052 5.31861 6.52052 6.70928C6.52052 8.10312 7.63415 9.23661 9.00357 9.23661ZM8.08646 7.18871C8.10206 7.17601 8.11766 7.16966 8.13325 7.16966H8.52318C8.55437 7.16966 8.57309 7.17284 8.59181 7.18554C8.6074 7.19506 8.623 7.21094 8.63236 7.22364C8.64795 7.25539 8.66979 7.28714 8.70099 7.31572C8.73218 7.34747 8.76961 7.36969 8.81952 7.38874C8.86631 7.40779 8.92558 7.41732 9.00045 7.41732C9.11899 7.41732 9.20945 7.39509 9.27184 7.36017C9.3311 7.32524 9.3623 7.27126 9.3623 7.20459C9.3623 7.15696 9.3467 7.11569 9.31551 7.09029C9.28119 7.05854 9.22817 7.03314 9.1533 7.00774C9.07843 6.98234 8.98485 6.96011 8.86007 6.93471C8.70098 6.89978 8.56685 6.85533 8.45767 6.80136C8.34849 6.75056 8.26427 6.67753 8.205 6.59181C8.14885 6.5029 8.11766 6.39495 8.11766 6.26478C8.11766 6.09967 8.17693 5.95362 8.29546 5.83615C8.414 5.71867 8.57933 5.64247 8.78521 5.61389V5.39164C8.78521 5.36624 8.79145 5.35036 8.80705 5.33449C8.82264 5.31861 8.83824 5.31226 8.86319 5.31226H9.11899C9.14082 5.31226 9.15642 5.31861 9.17202 5.33449C9.19073 5.35036 9.19697 5.36624 9.19697 5.39164V5.62024C9.34046 5.64564 9.459 5.69009 9.5557 5.75677C9.6524 5.82027 9.72415 5.8933 9.77718 5.97585C9.82709 6.0584 9.85516 6.13777 9.85828 6.2108C9.85828 6.22985 9.85205 6.24573 9.83645 6.25525C9.82397 6.27113 9.80837 6.27748 9.79278 6.27748H9.38413C9.35918 6.27748 9.34046 6.2743 9.32487 6.26478C9.30615 6.25525 9.29367 6.24255 9.2812 6.22668C9.26872 6.17905 9.23752 6.13777 9.18449 6.10285C9.13146 6.0711 9.06284 6.05205 8.97861 6.05205C8.88815 6.05205 8.8164 6.0711 8.76649 6.09967C8.71658 6.13142 8.69163 6.1854 8.69163 6.25208C8.69163 6.29335 8.7041 6.33145 8.73218 6.36003C8.76025 6.39495 8.80705 6.42035 8.86943 6.44258C8.93494 6.46798 9.0254 6.4902 9.1377 6.5156C9.32487 6.55053 9.47772 6.59816 9.59314 6.64896C9.70855 6.70293 9.7959 6.77278 9.84893 6.85851C9.90196 6.94424 9.93003 7.04901 9.93003 7.17919C9.93003 7.30301 9.89884 7.41097 9.83645 7.50622C9.77406 7.60147 9.68984 7.67449 9.58066 7.738C9.47148 7.79515 9.34358 7.83642 9.19697 7.8523V8.07455C9.19697 8.09678 9.19073 8.11265 9.17202 8.12853C9.15642 8.14758 9.14082 8.15393 9.11899 8.15393H8.86319C8.83824 8.15393 8.82264 8.14758 8.80705 8.12853C8.79145 8.11265 8.78521 8.09678 8.78521 8.07455V7.8523C8.623 7.83325 8.49199 7.79515 8.38593 7.73165C8.27987 7.67132 8.19876 7.59512 8.14573 7.50939C8.0927 7.42049 8.06463 7.33159 8.05839 7.23316C8.06463 7.22046 8.07399 7.20459 8.08646 7.18871Z" fill="#434343"/>
</svg>
