<svg width="20" height="25" viewBox="0 0 20 25" fill="none" xmlns="http://www.w3.org/2000/svg">
<path d="M19.5 4.78688H16.3431C15.7718 4.78688 15.3087 4.31316 15.3087 3.72886V0.500015M19.5 4.78688L15.3087 0.500015M19.5 4.78688V20.4788C19.5 21.0633 19.0368 21.537 18.4654 21.537H4.84541C4.27398 21.537 3.81077 21.0633 3.81077 20.4788V6.10648M15.3087 0.500015L4.84541 0.5C4.27398 0.5 3.81077 0.97377 3.81077 1.55822V4.52809M6.93037 8.33418H16.3804M6.93037 11.0185H16.3804M6.93037 13.7028H16.3804M13.7413 23.2301H16.81C17.3814 23.2301 17.8446 22.7564 17.8446 22.1719V21.537M3.81077 2.19311H3.19001C2.61863 2.19311 2.15537 2.66688 2.15537 3.25133V22.172C2.15537 22.7564 2.61863 23.2301 3.19001 23.2301H12.1981M0.5 18.2739V23.4418C0.5 24.0262 0.963211 24.5 1.53464 24.5H15.1546C15.726 24.5 16.1892 24.0262 16.1892 23.4418V23.2301M2.1554 3.46295H1.53464C0.963212 3.46295 0.5 3.93672 0.5 4.52117V16.6955" stroke="#1E3A8A" stroke-miterlimit="10" stroke-linecap="round" stroke-linejoin="round"/>
</svg>
