<svg width="22" height="25" viewBox="0 0 22 25" fill="none" xmlns="http://www.w3.org/2000/svg">
<mask id="path-1-outside-1_25166_112109" maskUnits="userSpaceOnUse" x="-0.800781" y="-0.800781" width="23" height="26" fill="black">
<rect fill="white" x="-0.800781" y="-0.800781" width="23" height="26"/>
<path d="M19.2804 8.37255H17.6251V5.10633C17.6249 5.0583 17.6152 5.01077 17.5963 4.9665C17.5775 4.92223 17.5499 4.88209 17.5152 4.84841L12.9366 0.313134C12.8691 0.255282 12.7842 0.221163 12.695 0.216129C12.6915 0.175044 0.579552 0.224117 0.565681 0.205857C0.517169 0.205854 0.469139 0.21536 0.424377 0.233826C0.379615 0.252291 0.339013 0.279348 0.304925 0.313427C0.270838 0.347505 0.243943 0.387928 0.225803 0.432348C0.207662 0.476768 0.198636 0.524303 0.199248 0.572194V20.8988C0.198636 20.9467 0.207662 20.9942 0.225803 21.0386C0.243943 21.083 0.270838 21.1234 0.304925 21.1575C0.339013 21.1916 0.379615 21.2187 0.424377 21.2371C0.469139 21.2556 0.517169 21.2651 0.565681 21.2651H9.04104V22.3013C9.04073 22.5503 9.0901 22.7968 9.18631 23.0269C9.28251 23.257 9.42369 23.4662 9.60176 23.6424C9.77984 23.8186 9.99133 23.9585 10.2242 24.0541C10.457 24.1496 10.7066 24.1989 10.9587 24.1992H19.2815C19.7906 24.1983 20.2786 23.9979 20.6382 23.6421C20.9977 23.2862 21.1995 22.804 21.1992 22.3013V10.2716C21.1995 9.76861 20.9976 9.2861 20.6378 8.93003C20.278 8.57397 19.7898 8.37345 19.2804 8.37255ZM16.3685 4.73657H13.0452V1.44638L16.3685 4.73657ZM9.04104 10.2716V20.5313H0.936738V0.939673H12.3077V5.10633C12.3086 5.20147 12.3477 5.29238 12.4164 5.35912C12.4851 5.42586 12.5778 5.463 12.6742 5.46239H16.8864V8.37255H10.9587C10.4494 8.37345 9.9613 8.574 9.60169 8.9301C9.24209 9.28621 9.04042 9.76872 9.04104 10.2716ZM20.4606 22.3013C20.4607 22.4544 20.4303 22.606 20.371 22.7474C20.3118 22.8889 20.2249 23.0174 20.1152 23.1256C20.0056 23.2338 19.8754 23.3196 19.7322 23.3782C19.5889 23.4367 19.4354 23.4667 19.2804 23.4665H10.9576C10.8026 23.4667 10.649 23.4367 10.5058 23.3782C10.3625 23.3196 10.2323 23.2338 10.1227 23.1256C10.0131 23.0174 9.92616 22.8889 9.8669 22.7474C9.80764 22.606 9.77722 22.4544 9.77737 22.3013V10.2716C9.77722 10.1184 9.80768 9.96673 9.86701 9.82522C9.92634 9.68371 10.0134 9.55515 10.1231 9.4469C10.2329 9.33866 10.3632 9.25286 10.5066 9.19442C10.65 9.13599 10.8036 9.10606 10.9587 9.10636H19.2815C19.4365 9.10621 19.5901 9.13625 19.7333 9.19475C19.8766 9.25326 20.0068 9.33908 20.1164 9.44731C20.226 9.55554 20.3129 9.68405 20.3722 9.82548C20.4315 9.96692 20.4619 10.1185 20.4617 10.2716L20.4606 22.3013Z"/>
<path d="M18.9636 10.3254H11.2754C11.2269 10.3256 11.1788 10.3352 11.1341 10.3538C11.0893 10.3724 11.0487 10.3996 11.0146 10.4337C10.9805 10.4679 10.9537 10.5084 10.9355 10.5529C10.9174 10.5974 10.9084 10.6449 10.909 10.6929V12.4949C10.9086 12.5428 10.9177 12.5902 10.9359 12.6346C10.9541 12.6789 10.981 12.7193 11.015 12.7533C11.0491 12.7874 11.0896 12.8144 11.1343 12.833C11.179 12.8515 11.227 12.8611 11.2754 12.8612H18.9636C19.012 12.8611 19.0599 12.8515 19.1046 12.8329C19.1492 12.8144 19.1896 12.7873 19.2236 12.7533C19.2576 12.7192 19.2844 12.6788 19.3024 12.6345C19.3205 12.5901 19.3295 12.5427 19.3289 12.4949V10.6986C19.3304 10.6502 19.3221 10.6021 19.3045 10.5569C19.2868 10.5118 19.2602 10.4706 19.2261 10.4358C19.1921 10.401 19.1513 10.3733 19.1062 10.3543C19.0611 10.3354 19.0126 10.3255 18.9636 10.3254ZM18.5914 12.1377H11.643V11.0592H18.5879L18.5914 12.1377Z"/>
<path d="M13.1111 14.0082H12.3782C11.9882 14.0103 11.6149 14.1646 11.3396 14.4374C11.0644 14.7102 10.9096 15.0794 10.909 15.4644V16.1868C10.9096 16.572 11.0644 16.9413 11.3396 17.2142C11.6148 17.4872 11.9881 17.6418 12.3782 17.6442H13.1111C13.5021 17.643 13.8767 17.489 14.1531 17.2159C14.4295 16.9428 14.5851 16.5728 14.5861 16.1868V15.4644C14.5851 15.0785 14.4294 14.7086 14.153 14.4357C13.8766 14.1628 13.502 14.0091 13.1111 14.0082ZM13.8497 16.1868C13.8197 17.0085 12.9793 16.9229 12.3782 16.9103C11.5402 16.8727 11.6372 16.0624 11.6465 15.4644C11.687 14.6302 12.4973 14.7192 13.1111 14.7306C13.9468 14.7603 13.8624 15.5888 13.8497 16.1834V16.1868Z"/>
<path d="M17.8539 14.0082H17.121C16.731 14.0103 16.3577 14.1646 16.0825 14.4374C15.8072 14.7102 15.6524 15.0794 15.6518 15.4644V16.1868C15.6524 16.572 15.8072 16.9413 16.0824 17.2142C16.3576 17.4872 16.7309 17.6418 17.121 17.6442H17.8539C18.2449 17.643 18.6195 17.489 18.8959 17.2159C19.1723 16.9428 19.328 16.5728 19.3289 16.1868V15.4644C19.328 15.0785 19.1723 14.7086 18.8959 14.4357C18.6194 14.1628 18.2448 14.0091 17.8539 14.0082ZM18.5914 16.1868C18.5613 17.0085 17.7221 16.9229 17.121 16.9103C16.283 16.8727 16.3801 16.0624 16.3893 15.4644C16.4298 14.6302 17.2412 14.7192 17.8539 14.7306C18.6943 14.7603 18.6053 15.5899 18.5914 16.1834V16.1868Z"/>
<path d="M13.1111 18.7626H12.3782C11.9894 18.7626 11.6164 18.9148 11.341 19.1858C11.0656 19.4568 10.9102 19.8246 10.909 20.2085V20.9309C10.9096 21.3161 11.0644 21.6854 11.3396 21.9584C11.6148 22.2313 11.9881 22.3859 12.3782 22.3883H13.1111C13.5021 22.3871 13.8767 22.2331 14.1531 21.96C14.4295 21.687 14.5851 21.317 14.5861 20.9309V20.2085C14.5845 19.8237 14.4283 19.4553 14.1517 19.1841C13.8751 18.913 13.5008 18.7614 13.1111 18.7626ZM13.8497 20.9309C13.8197 21.7515 12.9793 21.667 12.3782 21.6545C11.5402 21.6168 11.6372 20.8054 11.6465 20.2085C11.6846 19.38 12.5054 19.477 13.1111 19.4861C13.9549 19.5158 13.8613 20.3363 13.8497 20.9309Z"/>
<path d="M17.8539 18.7626H17.121C16.7322 18.7626 16.3592 18.9148 16.0838 19.1858C15.8084 19.4568 15.6531 19.8246 15.6518 20.2085V20.9309C15.6524 21.3161 15.8072 21.6854 16.0824 21.9584C16.3576 22.2313 16.7309 22.3859 17.121 22.3883H17.8539C18.2449 22.3871 18.6195 22.2331 18.8959 21.96C19.1723 21.687 19.328 21.317 19.3289 20.9309V20.2085C19.3273 19.8237 19.1711 19.4553 18.8945 19.1841C18.618 18.913 18.2437 18.7614 17.8539 18.7626ZM18.5914 20.9309C18.5613 21.7526 17.7221 21.667 17.121 21.6545C16.283 21.6168 16.3801 20.8054 16.3893 20.2085C16.4275 19.38 17.2493 19.477 17.8539 19.4861C18.6943 19.5158 18.6041 20.3363 18.5914 20.9309Z"/>
<path d="M7.43887 8.37276H3.25437C3.15939 8.37799 3.07004 8.41892 3.00468 8.48716C2.93931 8.55539 2.90289 8.64575 2.90289 8.73966C2.90289 8.83358 2.93931 8.92393 3.00468 8.99217C3.07004 9.0604 3.15939 9.10134 3.25437 9.10657H7.43887C7.53385 9.10134 7.6232 9.0604 7.68857 8.99217C7.75393 8.92393 7.79035 8.83358 7.79035 8.73966C7.79035 8.64575 7.75393 8.55539 7.68857 8.48716C7.6232 8.41892 7.53385 8.37799 7.43887 8.37276Z"/>
<path d="M10.3842 6.19299H3.25437C3.15719 6.19299 3.06398 6.23111 2.99526 6.29895C2.92654 6.3668 2.88794 6.45882 2.88794 6.55477C2.88794 6.65071 2.92654 6.74273 2.99526 6.81058C3.06398 6.87842 3.15719 6.91654 3.25437 6.91654H10.3842C10.4814 6.91654 10.5746 6.87842 10.6433 6.81058C10.712 6.74273 10.7506 6.65071 10.7506 6.55477C10.7506 6.45882 10.712 6.3668 10.6433 6.29895C10.5746 6.23111 10.4814 6.19299 10.3842 6.19299Z"/>
<path d="M10.3842 4.01437H3.25437C3.16089 4.01956 3.07298 4.05988 3.00866 4.12705C2.94434 4.19422 2.90851 4.28314 2.90851 4.37557C2.90851 4.46801 2.94434 4.55693 3.00866 4.6241C3.07298 4.69127 3.16089 4.73159 3.25437 4.73678H10.3842C10.4777 4.73159 10.5656 4.69127 10.6299 4.6241C10.6942 4.55693 10.7301 4.46801 10.7301 4.37557C10.7301 4.28314 10.6942 4.19422 10.6299 4.12705C10.5656 4.05988 10.4777 4.01956 10.3842 4.01437Z"/>
<path d="M7.43887 10.5628H3.25437C3.15719 10.5628 3.06398 10.6009 2.99526 10.6687C2.92654 10.7366 2.88794 10.8286 2.88794 10.9246C2.88794 11.0205 2.92654 11.1125 2.99526 11.1804C3.06398 11.2482 3.15719 11.2863 3.25437 11.2863H7.43887C7.53606 11.2863 7.62926 11.2482 7.69798 11.1804C7.7667 11.1125 7.80531 11.0205 7.80531 10.9246C7.80531 10.8286 7.7667 10.7366 7.69798 10.6687C7.62926 10.6009 7.53606 10.5628 7.43887 10.5628Z"/>
<path d="M3.25437 13.4661H6.33611C6.38463 13.4656 6.43259 13.4558 6.47723 13.437C6.52187 13.4182 6.56232 13.3909 6.59625 13.3566C6.63019 13.3224 6.65694 13.2819 6.67498 13.2374C6.69302 13.1929 6.70199 13.1454 6.70138 13.0975C6.70051 13.0016 6.66193 12.9097 6.59377 12.8414C6.52562 12.773 6.43323 12.7335 6.33611 12.7311H3.25437C3.15565 12.7311 3.06098 12.7699 2.99118 12.8388C2.92137 12.9077 2.88216 13.0012 2.88216 13.0986C2.88216 13.1961 2.92137 13.2895 2.99118 13.3585C3.06098 13.4274 3.15565 13.4661 3.25437 13.4661Z"/>
<path d="M7.43887 14.9212H3.25437C3.16089 14.9264 3.07298 14.9667 3.00866 15.0338C2.94434 15.101 2.90851 15.1899 2.90851 15.2824C2.90851 15.3748 2.94434 15.4637 3.00866 15.5309C3.07298 15.5981 3.16089 15.6384 3.25437 15.6436H7.43887C7.53235 15.6384 7.62027 15.5981 7.68458 15.5309C7.7489 15.4637 7.78473 15.3748 7.78473 15.2824C7.78473 15.1899 7.7489 15.101 7.68458 15.0338C7.62027 14.9667 7.53235 14.9264 7.43887 14.9212Z"/>
<path d="M5.59862 17.1021H3.25437C3.20459 17.0993 3.15477 17.1066 3.10795 17.1235C3.06113 17.1404 3.0183 17.1666 2.98207 17.2004C2.94584 17.2342 2.91698 17.2749 2.89726 17.3202C2.87754 17.3654 2.86736 17.4141 2.86736 17.4633C2.86736 17.5125 2.87754 17.5612 2.89726 17.6064C2.91698 17.6516 2.94584 17.6924 2.98207 17.7262C3.0183 17.76 3.06113 17.7861 3.10795 17.803C3.15477 17.8199 3.20459 17.8272 3.25437 17.8245H5.59862C5.69209 17.8193 5.78001 17.779 5.84433 17.7118C5.90864 17.6446 5.94448 17.5557 5.94448 17.4633C5.94448 17.3708 5.90864 17.2819 5.84433 17.2147C5.78001 17.1476 5.69209 17.1073 5.59862 17.1021Z"/>
</mask>
<path d="M19.2804 8.37255H17.6251V5.10633C17.6249 5.0583 17.6152 5.01077 17.5963 4.9665C17.5775 4.92223 17.5499 4.88209 17.5152 4.84841L12.9366 0.313134C12.8691 0.255282 12.7842 0.221163 12.695 0.216129C12.6915 0.175044 0.579552 0.224117 0.565681 0.205857C0.517169 0.205854 0.469139 0.21536 0.424377 0.233826C0.379615 0.252291 0.339013 0.279348 0.304925 0.313427C0.270838 0.347505 0.243943 0.387928 0.225803 0.432348C0.207662 0.476768 0.198636 0.524303 0.199248 0.572194V20.8988C0.198636 20.9467 0.207662 20.9942 0.225803 21.0386C0.243943 21.083 0.270838 21.1234 0.304925 21.1575C0.339013 21.1916 0.379615 21.2187 0.424377 21.2371C0.469139 21.2556 0.517169 21.2651 0.565681 21.2651H9.04104V22.3013C9.04073 22.5503 9.0901 22.7968 9.18631 23.0269C9.28251 23.257 9.42369 23.4662 9.60176 23.6424C9.77984 23.8186 9.99133 23.9585 10.2242 24.0541C10.457 24.1496 10.7066 24.1989 10.9587 24.1992H19.2815C19.7906 24.1983 20.2786 23.9979 20.6382 23.6421C20.9977 23.2862 21.1995 22.804 21.1992 22.3013V10.2716C21.1995 9.76861 20.9976 9.2861 20.6378 8.93003C20.278 8.57397 19.7898 8.37345 19.2804 8.37255ZM16.3685 4.73657H13.0452V1.44638L16.3685 4.73657ZM9.04104 10.2716V20.5313H0.936738V0.939673H12.3077V5.10633C12.3086 5.20147 12.3477 5.29238 12.4164 5.35912C12.4851 5.42586 12.5778 5.463 12.6742 5.46239H16.8864V8.37255H10.9587C10.4494 8.37345 9.9613 8.574 9.60169 8.9301C9.24209 9.28621 9.04042 9.76872 9.04104 10.2716ZM20.4606 22.3013C20.4607 22.4544 20.4303 22.606 20.371 22.7474C20.3118 22.8889 20.2249 23.0174 20.1152 23.1256C20.0056 23.2338 19.8754 23.3196 19.7322 23.3782C19.5889 23.4367 19.4354 23.4667 19.2804 23.4665H10.9576C10.8026 23.4667 10.649 23.4367 10.5058 23.3782C10.3625 23.3196 10.2323 23.2338 10.1227 23.1256C10.0131 23.0174 9.92616 22.8889 9.8669 22.7474C9.80764 22.606 9.77722 22.4544 9.77737 22.3013V10.2716C9.77722 10.1184 9.80768 9.96673 9.86701 9.82522C9.92634 9.68371 10.0134 9.55515 10.1231 9.4469C10.2329 9.33866 10.3632 9.25286 10.5066 9.19442C10.65 9.13599 10.8036 9.10606 10.9587 9.10636H19.2815C19.4365 9.10621 19.5901 9.13625 19.7333 9.19475C19.8766 9.25326 20.0068 9.33908 20.1164 9.44731C20.226 9.55554 20.3129 9.68405 20.3722 9.82548C20.4315 9.96692 20.4619 10.1185 20.4617 10.2716L20.4606 22.3013Z" fill="#1E3A8A"/>
<path d="M18.9636 10.3254H11.2754C11.2269 10.3256 11.1788 10.3352 11.1341 10.3538C11.0893 10.3724 11.0487 10.3996 11.0146 10.4337C10.9805 10.4679 10.9537 10.5084 10.9355 10.5529C10.9174 10.5974 10.9084 10.6449 10.909 10.6929V12.4949C10.9086 12.5428 10.9177 12.5902 10.9359 12.6346C10.9541 12.6789 10.981 12.7193 11.015 12.7533C11.0491 12.7874 11.0896 12.8144 11.1343 12.833C11.179 12.8515 11.227 12.8611 11.2754 12.8612H18.9636C19.012 12.8611 19.0599 12.8515 19.1046 12.8329C19.1492 12.8144 19.1896 12.7873 19.2236 12.7533C19.2576 12.7192 19.2844 12.6788 19.3024 12.6345C19.3205 12.5901 19.3295 12.5427 19.3289 12.4949V10.6986C19.3304 10.6502 19.3221 10.6021 19.3045 10.5569C19.2868 10.5118 19.2602 10.4706 19.2261 10.4358C19.1921 10.401 19.1513 10.3733 19.1062 10.3543C19.0611 10.3354 19.0126 10.3255 18.9636 10.3254ZM18.5914 12.1377H11.643V11.0592H18.5879L18.5914 12.1377Z" fill="#1E3A8A"/>
<path d="M13.1111 14.0082H12.3782C11.9882 14.0103 11.6149 14.1646 11.3396 14.4374C11.0644 14.7102 10.9096 15.0794 10.909 15.4644V16.1868C10.9096 16.572 11.0644 16.9413 11.3396 17.2142C11.6148 17.4872 11.9881 17.6418 12.3782 17.6442H13.1111C13.5021 17.643 13.8767 17.489 14.1531 17.2159C14.4295 16.9428 14.5851 16.5728 14.5861 16.1868V15.4644C14.5851 15.0785 14.4294 14.7086 14.153 14.4357C13.8766 14.1628 13.502 14.0091 13.1111 14.0082ZM13.8497 16.1868C13.8197 17.0085 12.9793 16.9229 12.3782 16.9103C11.5402 16.8727 11.6372 16.0624 11.6465 15.4644C11.687 14.6302 12.4973 14.7192 13.1111 14.7306C13.9468 14.7603 13.8624 15.5888 13.8497 16.1834V16.1868Z" fill="#1E3A8A"/>
<path d="M17.8539 14.0082H17.121C16.731 14.0103 16.3577 14.1646 16.0825 14.4374C15.8072 14.7102 15.6524 15.0794 15.6518 15.4644V16.1868C15.6524 16.572 15.8072 16.9413 16.0824 17.2142C16.3576 17.4872 16.7309 17.6418 17.121 17.6442H17.8539C18.2449 17.643 18.6195 17.489 18.8959 17.2159C19.1723 16.9428 19.328 16.5728 19.3289 16.1868V15.4644C19.328 15.0785 19.1723 14.7086 18.8959 14.4357C18.6194 14.1628 18.2448 14.0091 17.8539 14.0082ZM18.5914 16.1868C18.5613 17.0085 17.7221 16.9229 17.121 16.9103C16.283 16.8727 16.3801 16.0624 16.3893 15.4644C16.4298 14.6302 17.2412 14.7192 17.8539 14.7306C18.6943 14.7603 18.6053 15.5899 18.5914 16.1834V16.1868Z" fill="#1E3A8A"/>
<path d="M13.1111 18.7626H12.3782C11.9894 18.7626 11.6164 18.9148 11.341 19.1858C11.0656 19.4568 10.9102 19.8246 10.909 20.2085V20.9309C10.9096 21.3161 11.0644 21.6854 11.3396 21.9584C11.6148 22.2313 11.9881 22.3859 12.3782 22.3883H13.1111C13.5021 22.3871 13.8767 22.2331 14.1531 21.96C14.4295 21.687 14.5851 21.317 14.5861 20.9309V20.2085C14.5845 19.8237 14.4283 19.4553 14.1517 19.1841C13.8751 18.913 13.5008 18.7614 13.1111 18.7626ZM13.8497 20.9309C13.8197 21.7515 12.9793 21.667 12.3782 21.6545C11.5402 21.6168 11.6372 20.8054 11.6465 20.2085C11.6846 19.38 12.5054 19.477 13.1111 19.4861C13.9549 19.5158 13.8613 20.3363 13.8497 20.9309Z" fill="#1E3A8A"/>
<path d="M17.8539 18.7626H17.121C16.7322 18.7626 16.3592 18.9148 16.0838 19.1858C15.8084 19.4568 15.6531 19.8246 15.6518 20.2085V20.9309C15.6524 21.3161 15.8072 21.6854 16.0824 21.9584C16.3576 22.2313 16.7309 22.3859 17.121 22.3883H17.8539C18.2449 22.3871 18.6195 22.2331 18.8959 21.96C19.1723 21.687 19.328 21.317 19.3289 20.9309V20.2085C19.3273 19.8237 19.1711 19.4553 18.8945 19.1841C18.618 18.913 18.2437 18.7614 17.8539 18.7626ZM18.5914 20.9309C18.5613 21.7526 17.7221 21.667 17.121 21.6545C16.283 21.6168 16.3801 20.8054 16.3893 20.2085C16.4275 19.38 17.2493 19.477 17.8539 19.4861C18.6943 19.5158 18.6041 20.3363 18.5914 20.9309Z" fill="#1E3A8A"/>
<path d="M7.43887 8.37276H3.25437C3.15939 8.37799 3.07004 8.41892 3.00468 8.48716C2.93931 8.55539 2.90289 8.64575 2.90289 8.73966C2.90289 8.83358 2.93931 8.92393 3.00468 8.99217C3.07004 9.0604 3.15939 9.10134 3.25437 9.10657H7.43887C7.53385 9.10134 7.6232 9.0604 7.68857 8.99217C7.75393 8.92393 7.79035 8.83358 7.79035 8.73966C7.79035 8.64575 7.75393 8.55539 7.68857 8.48716C7.6232 8.41892 7.53385 8.37799 7.43887 8.37276Z" fill="#1E3A8A"/>
<path d="M10.3842 6.19299H3.25437C3.15719 6.19299 3.06398 6.23111 2.99526 6.29895C2.92654 6.3668 2.88794 6.45882 2.88794 6.55477C2.88794 6.65071 2.92654 6.74273 2.99526 6.81058C3.06398 6.87842 3.15719 6.91654 3.25437 6.91654H10.3842C10.4814 6.91654 10.5746 6.87842 10.6433 6.81058C10.712 6.74273 10.7506 6.65071 10.7506 6.55477C10.7506 6.45882 10.712 6.3668 10.6433 6.29895C10.5746 6.23111 10.4814 6.19299 10.3842 6.19299Z" fill="#1E3A8A"/>
<path d="M10.3842 4.01437H3.25437C3.16089 4.01956 3.07298 4.05988 3.00866 4.12705C2.94434 4.19422 2.90851 4.28314 2.90851 4.37557C2.90851 4.46801 2.94434 4.55693 3.00866 4.6241C3.07298 4.69127 3.16089 4.73159 3.25437 4.73678H10.3842C10.4777 4.73159 10.5656 4.69127 10.6299 4.6241C10.6942 4.55693 10.7301 4.46801 10.7301 4.37557C10.7301 4.28314 10.6942 4.19422 10.6299 4.12705C10.5656 4.05988 10.4777 4.01956 10.3842 4.01437Z" fill="#1E3A8A"/>
<path d="M7.43887 10.5628H3.25437C3.15719 10.5628 3.06398 10.6009 2.99526 10.6687C2.92654 10.7366 2.88794 10.8286 2.88794 10.9246C2.88794 11.0205 2.92654 11.1125 2.99526 11.1804C3.06398 11.2482 3.15719 11.2863 3.25437 11.2863H7.43887C7.53606 11.2863 7.62926 11.2482 7.69798 11.1804C7.7667 11.1125 7.80531 11.0205 7.80531 10.9246C7.80531 10.8286 7.7667 10.7366 7.69798 10.6687C7.62926 10.6009 7.53606 10.5628 7.43887 10.5628Z" fill="#1E3A8A"/>
<path d="M3.25437 13.4661H6.33611C6.38463 13.4656 6.43259 13.4558 6.47723 13.437C6.52187 13.4182 6.56232 13.3909 6.59625 13.3566C6.63019 13.3224 6.65694 13.2819 6.67498 13.2374C6.69302 13.1929 6.70199 13.1454 6.70138 13.0975C6.70051 13.0016 6.66193 12.9097 6.59377 12.8414C6.52562 12.773 6.43323 12.7335 6.33611 12.7311H3.25437C3.15565 12.7311 3.06098 12.7699 2.99118 12.8388C2.92137 12.9077 2.88216 13.0012 2.88216 13.0986C2.88216 13.1961 2.92137 13.2895 2.99118 13.3585C3.06098 13.4274 3.15565 13.4661 3.25437 13.4661Z" fill="#1E3A8A"/>
<path d="M7.43887 14.9212H3.25437C3.16089 14.9264 3.07298 14.9667 3.00866 15.0338C2.94434 15.101 2.90851 15.1899 2.90851 15.2824C2.90851 15.3748 2.94434 15.4637 3.00866 15.5309C3.07298 15.5981 3.16089 15.6384 3.25437 15.6436H7.43887C7.53235 15.6384 7.62027 15.5981 7.68458 15.5309C7.7489 15.4637 7.78473 15.3748 7.78473 15.2824C7.78473 15.1899 7.7489 15.101 7.68458 15.0338C7.62027 14.9667 7.53235 14.9264 7.43887 14.9212Z" fill="#1E3A8A"/>
<path d="M5.59862 17.1021H3.25437C3.20459 17.0993 3.15477 17.1066 3.10795 17.1235C3.06113 17.1404 3.0183 17.1666 2.98207 17.2004C2.94584 17.2342 2.91698 17.2749 2.89726 17.3202C2.87754 17.3654 2.86736 17.4141 2.86736 17.4633C2.86736 17.5125 2.87754 17.5612 2.89726 17.6064C2.91698 17.6516 2.94584 17.6924 2.98207 17.7262C3.0183 17.76 3.06113 17.7861 3.10795 17.803C3.15477 17.8199 3.20459 17.8272 3.25437 17.8245H5.59862C5.69209 17.8193 5.78001 17.779 5.84433 17.7118C5.90864 17.6446 5.94448 17.5557 5.94448 17.4633C5.94448 17.3708 5.90864 17.2819 5.84433 17.2147C5.78001 17.1476 5.69209 17.1073 5.59862 17.1021Z" fill="#1E3A8A"/>
<path d="M19.2804 8.37255H17.6251V5.10633C17.6249 5.0583 17.6152 5.01077 17.5963 4.9665C17.5775 4.92223 17.5499 4.88209 17.5152 4.84841L12.9366 0.313134C12.8691 0.255282 12.7842 0.221163 12.695 0.216129C12.6915 0.175044 0.579552 0.224117 0.565681 0.205857C0.517169 0.205854 0.469139 0.21536 0.424377 0.233826C0.379615 0.252291 0.339013 0.279348 0.304925 0.313427C0.270838 0.347505 0.243943 0.387928 0.225803 0.432348C0.207662 0.476768 0.198636 0.524303 0.199248 0.572194V20.8988C0.198636 20.9467 0.207662 20.9942 0.225803 21.0386C0.243943 21.083 0.270838 21.1234 0.304925 21.1575C0.339013 21.1916 0.379615 21.2187 0.424377 21.2371C0.469139 21.2556 0.517169 21.2651 0.565681 21.2651H9.04104V22.3013C9.04073 22.5503 9.0901 22.7968 9.18631 23.0269C9.28251 23.257 9.42369 23.4662 9.60176 23.6424C9.77984 23.8186 9.99133 23.9585 10.2242 24.0541C10.457 24.1496 10.7066 24.1989 10.9587 24.1992H19.2815C19.7906 24.1983 20.2786 23.9979 20.6382 23.6421C20.9977 23.2862 21.1995 22.804 21.1992 22.3013V10.2716C21.1995 9.76861 20.9976 9.2861 20.6378 8.93003C20.278 8.57397 19.7898 8.37345 19.2804 8.37255ZM16.3685 4.73657H13.0452V1.44638L16.3685 4.73657ZM9.04104 10.2716V20.5313H0.936738V0.939673H12.3077V5.10633C12.3086 5.20147 12.3477 5.29238 12.4164 5.35912C12.4851 5.42586 12.5778 5.463 12.6742 5.46239H16.8864V8.37255H10.9587C10.4494 8.37345 9.9613 8.574 9.60169 8.9301C9.24209 9.28621 9.04042 9.76872 9.04104 10.2716ZM20.4606 22.3013C20.4607 22.4544 20.4303 22.606 20.371 22.7474C20.3118 22.8889 20.2249 23.0174 20.1152 23.1256C20.0056 23.2338 19.8754 23.3196 19.7322 23.3782C19.5889 23.4367 19.4354 23.4667 19.2804 23.4665H10.9576C10.8026 23.4667 10.649 23.4367 10.5058 23.3782C10.3625 23.3196 10.2323 23.2338 10.1227 23.1256C10.0131 23.0174 9.92616 22.8889 9.8669 22.7474C9.80764 22.606 9.77722 22.4544 9.77737 22.3013V10.2716C9.77722 10.1184 9.80768 9.96673 9.86701 9.82522C9.92634 9.68371 10.0134 9.55515 10.1231 9.4469C10.2329 9.33866 10.3632 9.25286 10.5066 9.19442C10.65 9.13599 10.8036 9.10606 10.9587 9.10636H19.2815C19.4365 9.10621 19.5901 9.13625 19.7333 9.19475C19.8766 9.25326 20.0068 9.33908 20.1164 9.44731C20.226 9.55554 20.3129 9.68405 20.3722 9.82548C20.4315 9.96692 20.4619 10.1185 20.4617 10.2716L20.4606 22.3013Z" stroke="#1E3A8A" stroke-width="0.4" mask="url(#path-1-outside-1_25166_112109)"/>
<path d="M18.9636 10.3254H11.2754C11.2269 10.3256 11.1788 10.3352 11.1341 10.3538C11.0893 10.3724 11.0487 10.3996 11.0146 10.4337C10.9805 10.4679 10.9537 10.5084 10.9355 10.5529C10.9174 10.5974 10.9084 10.6449 10.909 10.6929V12.4949C10.9086 12.5428 10.9177 12.5902 10.9359 12.6346C10.9541 12.6789 10.981 12.7193 11.015 12.7533C11.0491 12.7874 11.0896 12.8144 11.1343 12.833C11.179 12.8515 11.227 12.8611 11.2754 12.8612H18.9636C19.012 12.8611 19.0599 12.8515 19.1046 12.8329C19.1492 12.8144 19.1896 12.7873 19.2236 12.7533C19.2576 12.7192 19.2844 12.6788 19.3024 12.6345C19.3205 12.5901 19.3295 12.5427 19.3289 12.4949V10.6986C19.3304 10.6502 19.3221 10.6021 19.3045 10.5569C19.2868 10.5118 19.2602 10.4706 19.2261 10.4358C19.1921 10.401 19.1513 10.3733 19.1062 10.3543C19.0611 10.3354 19.0126 10.3255 18.9636 10.3254ZM18.5914 12.1377H11.643V11.0592H18.5879L18.5914 12.1377Z" stroke="#1E3A8A" stroke-width="0.4" mask="url(#path-1-outside-1_25166_112109)"/>
<path d="M13.1111 14.0082H12.3782C11.9882 14.0103 11.6149 14.1646 11.3396 14.4374C11.0644 14.7102 10.9096 15.0794 10.909 15.4644V16.1868C10.9096 16.572 11.0644 16.9413 11.3396 17.2142C11.6148 17.4872 11.9881 17.6418 12.3782 17.6442H13.1111C13.5021 17.643 13.8767 17.489 14.1531 17.2159C14.4295 16.9428 14.5851 16.5728 14.5861 16.1868V15.4644C14.5851 15.0785 14.4294 14.7086 14.153 14.4357C13.8766 14.1628 13.502 14.0091 13.1111 14.0082ZM13.8497 16.1868C13.8197 17.0085 12.9793 16.9229 12.3782 16.9103C11.5402 16.8727 11.6372 16.0624 11.6465 15.4644C11.687 14.6302 12.4973 14.7192 13.1111 14.7306C13.9468 14.7603 13.8624 15.5888 13.8497 16.1834V16.1868Z" stroke="#1E3A8A" stroke-width="0.4" mask="url(#path-1-outside-1_25166_112109)"/>
<path d="M17.8539 14.0082H17.121C16.731 14.0103 16.3577 14.1646 16.0825 14.4374C15.8072 14.7102 15.6524 15.0794 15.6518 15.4644V16.1868C15.6524 16.572 15.8072 16.9413 16.0824 17.2142C16.3576 17.4872 16.7309 17.6418 17.121 17.6442H17.8539C18.2449 17.643 18.6195 17.489 18.8959 17.2159C19.1723 16.9428 19.328 16.5728 19.3289 16.1868V15.4644C19.328 15.0785 19.1723 14.7086 18.8959 14.4357C18.6194 14.1628 18.2448 14.0091 17.8539 14.0082ZM18.5914 16.1868C18.5613 17.0085 17.7221 16.9229 17.121 16.9103C16.283 16.8727 16.3801 16.0624 16.3893 15.4644C16.4298 14.6302 17.2412 14.7192 17.8539 14.7306C18.6943 14.7603 18.6053 15.5899 18.5914 16.1834V16.1868Z" stroke="#1E3A8A" stroke-width="0.4" mask="url(#path-1-outside-1_25166_112109)"/>
<path d="M13.1111 18.7626H12.3782C11.9894 18.7626 11.6164 18.9148 11.341 19.1858C11.0656 19.4568 10.9102 19.8246 10.909 20.2085V20.9309C10.9096 21.3161 11.0644 21.6854 11.3396 21.9584C11.6148 22.2313 11.9881 22.3859 12.3782 22.3883H13.1111C13.5021 22.3871 13.8767 22.2331 14.1531 21.96C14.4295 21.687 14.5851 21.317 14.5861 20.9309V20.2085C14.5845 19.8237 14.4283 19.4553 14.1517 19.1841C13.8751 18.913 13.5008 18.7614 13.1111 18.7626ZM13.8497 20.9309C13.8197 21.7515 12.9793 21.667 12.3782 21.6545C11.5402 21.6168 11.6372 20.8054 11.6465 20.2085C11.6846 19.38 12.5054 19.477 13.1111 19.4861C13.9549 19.5158 13.8613 20.3363 13.8497 20.9309Z" stroke="#1E3A8A" stroke-width="0.4" mask="url(#path-1-outside-1_25166_112109)"/>
<path d="M17.8539 18.7626H17.121C16.7322 18.7626 16.3592 18.9148 16.0838 19.1858C15.8084 19.4568 15.6531 19.8246 15.6518 20.2085V20.9309C15.6524 21.3161 15.8072 21.6854 16.0824 21.9584C16.3576 22.2313 16.7309 22.3859 17.121 22.3883H17.8539C18.2449 22.3871 18.6195 22.2331 18.8959 21.96C19.1723 21.687 19.328 21.317 19.3289 20.9309V20.2085C19.3273 19.8237 19.1711 19.4553 18.8945 19.1841C18.618 18.913 18.2437 18.7614 17.8539 18.7626ZM18.5914 20.9309C18.5613 21.7526 17.7221 21.667 17.121 21.6545C16.283 21.6168 16.3801 20.8054 16.3893 20.2085C16.4275 19.38 17.2493 19.477 17.8539 19.4861C18.6943 19.5158 18.6041 20.3363 18.5914 20.9309Z" stroke="#1E3A8A" stroke-width="0.4" mask="url(#path-1-outside-1_25166_112109)"/>
<path d="M7.43887 8.37276H3.25437C3.15939 8.37799 3.07004 8.41892 3.00468 8.48716C2.93931 8.55539 2.90289 8.64575 2.90289 8.73966C2.90289 8.83358 2.93931 8.92393 3.00468 8.99217C3.07004 9.0604 3.15939 9.10134 3.25437 9.10657H7.43887C7.53385 9.10134 7.6232 9.0604 7.68857 8.99217C7.75393 8.92393 7.79035 8.83358 7.79035 8.73966C7.79035 8.64575 7.75393 8.55539 7.68857 8.48716C7.6232 8.41892 7.53385 8.37799 7.43887 8.37276Z" stroke="#1E3A8A" stroke-width="0.4" mask="url(#path-1-outside-1_25166_112109)"/>
<path d="M10.3842 6.19299H3.25437C3.15719 6.19299 3.06398 6.23111 2.99526 6.29895C2.92654 6.3668 2.88794 6.45882 2.88794 6.55477C2.88794 6.65071 2.92654 6.74273 2.99526 6.81058C3.06398 6.87842 3.15719 6.91654 3.25437 6.91654H10.3842C10.4814 6.91654 10.5746 6.87842 10.6433 6.81058C10.712 6.74273 10.7506 6.65071 10.7506 6.55477C10.7506 6.45882 10.712 6.3668 10.6433 6.29895C10.5746 6.23111 10.4814 6.19299 10.3842 6.19299Z" stroke="#1E3A8A" stroke-width="0.4" mask="url(#path-1-outside-1_25166_112109)"/>
<path d="M10.3842 4.01437H3.25437C3.16089 4.01956 3.07298 4.05988 3.00866 4.12705C2.94434 4.19422 2.90851 4.28314 2.90851 4.37557C2.90851 4.46801 2.94434 4.55693 3.00866 4.6241C3.07298 4.69127 3.16089 4.73159 3.25437 4.73678H10.3842C10.4777 4.73159 10.5656 4.69127 10.6299 4.6241C10.6942 4.55693 10.7301 4.46801 10.7301 4.37557C10.7301 4.28314 10.6942 4.19422 10.6299 4.12705C10.5656 4.05988 10.4777 4.01956 10.3842 4.01437Z" stroke="#1E3A8A" stroke-width="0.4" mask="url(#path-1-outside-1_25166_112109)"/>
<path d="M7.43887 10.5628H3.25437C3.15719 10.5628 3.06398 10.6009 2.99526 10.6687C2.92654 10.7366 2.88794 10.8286 2.88794 10.9246C2.88794 11.0205 2.92654 11.1125 2.99526 11.1804C3.06398 11.2482 3.15719 11.2863 3.25437 11.2863H7.43887C7.53606 11.2863 7.62926 11.2482 7.69798 11.1804C7.7667 11.1125 7.80531 11.0205 7.80531 10.9246C7.80531 10.8286 7.7667 10.7366 7.69798 10.6687C7.62926 10.6009 7.53606 10.5628 7.43887 10.5628Z" stroke="#1E3A8A" stroke-width="0.4" mask="url(#path-1-outside-1_25166_112109)"/>
<path d="M3.25437 13.4661H6.33611C6.38463 13.4656 6.43259 13.4558 6.47723 13.437C6.52187 13.4182 6.56232 13.3909 6.59625 13.3566C6.63019 13.3224 6.65694 13.2819 6.67498 13.2374C6.69302 13.1929 6.70199 13.1454 6.70138 13.0975C6.70051 13.0016 6.66193 12.9097 6.59377 12.8414C6.52562 12.773 6.43323 12.7335 6.33611 12.7311H3.25437C3.15565 12.7311 3.06098 12.7699 2.99118 12.8388C2.92137 12.9077 2.88216 13.0012 2.88216 13.0986C2.88216 13.1961 2.92137 13.2895 2.99118 13.3585C3.06098 13.4274 3.15565 13.4661 3.25437 13.4661Z" stroke="#1E3A8A" stroke-width="0.4" mask="url(#path-1-outside-1_25166_112109)"/>
<path d="M7.43887 14.9212H3.25437C3.16089 14.9264 3.07298 14.9667 3.00866 15.0338C2.94434 15.101 2.90851 15.1899 2.90851 15.2824C2.90851 15.3748 2.94434 15.4637 3.00866 15.5309C3.07298 15.5981 3.16089 15.6384 3.25437 15.6436H7.43887C7.53235 15.6384 7.62027 15.5981 7.68458 15.5309C7.7489 15.4637 7.78473 15.3748 7.78473 15.2824C7.78473 15.1899 7.7489 15.101 7.68458 15.0338C7.62027 14.9667 7.53235 14.9264 7.43887 14.9212Z" stroke="#1E3A8A" stroke-width="0.4" mask="url(#path-1-outside-1_25166_112109)"/>
<path d="M5.59862 17.1021H3.25437C3.20459 17.0993 3.15477 17.1066 3.10795 17.1235C3.06113 17.1404 3.0183 17.1666 2.98207 17.2004C2.94584 17.2342 2.91698 17.2749 2.89726 17.3202C2.87754 17.3654 2.86736 17.4141 2.86736 17.4633C2.86736 17.5125 2.87754 17.5612 2.89726 17.6064C2.91698 17.6516 2.94584 17.6924 2.98207 17.7262C3.0183 17.76 3.06113 17.7861 3.10795 17.803C3.15477 17.8199 3.20459 17.8272 3.25437 17.8245H5.59862C5.69209 17.8193 5.78001 17.779 5.84433 17.7118C5.90864 17.6446 5.94448 17.5557 5.94448 17.4633C5.94448 17.3708 5.90864 17.2819 5.84433 17.2147C5.78001 17.1476 5.69209 17.1073 5.59862 17.1021Z" stroke="#1E3A8A" stroke-width="0.4" mask="url(#path-1-outside-1_25166_112109)"/>
</svg>
