<svg width="24" height="26" viewBox="0 0 24 26" fill="none" xmlns="http://www.w3.org/2000/svg">
<path d="M3.85716 15.1887L0.947516 20.1098C0.421594 20.9993 1.00248 22.1391 2.02212 22.2184L4.0373 22.3751L5.12279 24.1042C5.67201 24.979 6.93704 24.9618 7.46297 24.0723L10.1811 19.475M21.0123 10.241C21.0126 10.209 21.0135 10.1772 21.0135 10.1451C21.0135 4.95636 16.8661 0.75 11.75 0.75C6.63391 0.75 2.48649 4.95636 2.48649 10.1451C2.48649 15.3339 6.63391 19.5402 11.75 19.5402C15.0465 19.5402 17.9403 17.7936 19.5822 15.1634L22.5525 20.1098C23.0784 20.9993 22.4975 22.1391 21.4779 22.2184L19.4627 22.3751L18.3772 24.1042C17.828 24.979 16.563 24.9618 16.037 24.0723L13.3574 19.5402M9.19203 10.0762L10.6877 11.6781C11.0631 12.0802 11.6996 12.0412 12.0259 11.5961L14.8764 7.70746" stroke="#1E3A8A" stroke-width="1.5" stroke-miterlimit="10" stroke-linecap="round" stroke-linejoin="round"/>
</svg>
