<svg width="26" height="25" viewBox="0 0 26 25" fill="none" xmlns="http://www.w3.org/2000/svg">
<path d="M10.693 19.6943L12.6768 17.7102C13.7043 16.6825 14.0286 15.1452 13.5037 13.79L13.7898 13.5038C15.1447 14.0288 16.6818 13.7045 17.7093 12.6768L19.6931 10.6927M14.307 5.3057L12.3232 7.28983C11.2957 8.31748 10.9714 9.85483 11.4964 11.21L11.2102 11.4962C9.85527 10.9712 8.31818 11.2955 7.29071 12.3232L5.30692 14.3073M20.5534 11.5535L16.0666 7.06596M15.5543 6.5536L13.4463 4.44527M11.5537 20.5547L7.15818 16.1584M6.64591 15.6461L4.44669 13.4465M13.7013 15.7195L6.94091 12.6734M9.23258 15.7193L9.74471 16.2315M10.2568 16.7437L10.7689 17.2559M19.4656 20.4243C17.5392 22.1232 15.0908 23.0513 12.5 23.0513C4.00246 23.0513 -0.700248 13.6912 3.52355 6.94571L4.74526 7.72627L4.00738 4.80928L1.26567 5.50306L2.30459 6.16685C-2.54054 13.8906 2.87962 24.5 12.5 24.5C15.2912 24.5 17.8593 23.5468 19.8977 21.9479L19.4656 20.4243ZM12.5 0.5C9.70888 0.5 7.14079 1.45324 5.10235 3.05211L5.58082 4.53509C7.50001 2.86185 9.93001 1.94869 12.5 1.94869C20.9471 1.94869 25.6712 11.217 21.5251 17.9754L20.4558 17.2293L21.1315 20.1781L23.8039 19.5655L22.7136 18.8047C27.5264 11.0844 22.1098 0.5 12.5 0.5Z" stroke="#1E3A8A" stroke-miterlimit="10"/>
</svg>
