<svg width="20" height="20" viewBox="0 0 20 20" fill="none" xmlns="http://www.w3.org/2000/svg">
<path d="M18.8235 16.4706V5.88235H15.2613C15.2827 5.68914 15.2941 5.49294 15.2941 5.29412C15.2941 2.37494 12.9192 0 10 0C7.08078 0 4.70588 2.37494 4.70588 5.29412C4.70588 5.49294 4.71726 5.68914 4.73875 5.88235H1.17647V16.4706H0V17.0588C0 18.6806 1.31941 20 2.94118 20H17.0588C18.6806 20 20 18.6806 20 17.0588V16.4706H18.8235ZM10 1.17647C12.2705 1.17647 14.1176 3.02365 14.1176 5.29412C14.1176 7.56463 12.2705 9.41177 10 9.41177C7.72953 9.41177 5.88235 7.56463 5.88235 5.29412C5.88235 3.02365 7.72949 1.17647 10 1.17647ZM2.35294 7.05882H5.00871C5.7371 9.11294 7.69933 10.5882 10 10.5882C12.3007 10.5882 14.2629 9.11294 14.9913 7.05882H17.6471V16.4706H2.35294V7.05882ZM17.0588 18.8235H2.94118C2.17424 18.8235 1.52004 18.3318 1.27725 17.6471H18.7227C18.48 18.3318 17.8258 18.8235 17.0588 18.8235Z" fill="#434343"/>
<path d="M12.5728 4.14141L11.7409 3.30957L9.41177 5.63871L8.45514 4.68212L7.62329 5.51396L9.41177 7.30247L12.5728 4.14141Z" fill="#434343"/>
<path d="M11.7647 15.2941H16.4706V11.7647H11.7647V15.2941ZM12.9412 12.9412H15.2941V14.1176H12.9412V12.9412Z" fill="#434343"/>
<path d="M3.52941 11.7647H6.47059V12.9412H3.52941V11.7647Z" fill="#434343"/>
<path d="M3.52941 14.1176H10V15.2941H3.52941V14.1176Z" fill="#434343"/>
</svg>
