<svg width="26" height="26" viewBox="0 0 26 26" fill="none" xmlns="http://www.w3.org/2000/svg">
<path d="M13 6.89831V13H19.1017M3.21853 10.2139C1.76541 9.31891 1 7.71324 1 5.88136C1 3.07311 3.07315 1.00001 5.88135 1.00001C7.71324 1.00001 9.31895 1.76536 10.214 3.21853M15.7861 3.21852C16.6812 1.76536 18.2868 1 20.1186 1C22.9269 1 25 3.07315 25 5.88135C25 7.71324 24.2346 9.3189 22.7815 10.2139M5.0678 25L8.13792 21.9299M17.8621 21.9299L20.9322 25M13 23.1695C7.3929 23.1695 2.83051 18.6071 2.83051 13C2.83051 7.39291 7.3929 2.83052 13 2.83052C18.6071 2.83052 23.1695 7.39291 23.1695 13C23.1695 18.6071 18.6071 23.1695 13 23.1695Z" stroke="#1E3A8A" stroke-width="2" stroke-miterlimit="10" stroke-linecap="round" stroke-linejoin="round"/>
</svg>
