<svg width="32" height="32" viewBox="0 0 32 32" fill="none" xmlns="http://www.w3.org/2000/svg">
<path d="M17.7939 3V29H3V3H17.7939ZM4.52344 27.4766H16.2704V4.52344H4.52344V27.4766Z" fill="#1E3A8A"/>
<path d="M14.0031 6.11548V7.63892H6.79076V6.11548H14.0031Z" fill="#1E3A8A"/>
<path d="M17.0321 24.4297V25.9532H3.76172V24.4297H17.0321Z" fill="#1E3A8A"/>
<path d="M25.0481 17.0157C24.458 17.2386 24.0175 17.7631 23.9119 18.3995H27.4522C27.3466 17.7632 26.9062 17.2388 26.3161 17.0158L26.8545 15.5907C28.1071 16.0639 28.9999 17.2744 28.9999 18.6953V19.923H22.3641V18.6953C22.3641 17.2743 23.2571 16.0637 24.5099 15.5906L25.0481 17.0157Z" fill="#1E3A8A"/>
<path d="M24.125 6.69977V8.2232H20.8407V24.8539H24.125V26.3773H19.3173V6.69977H24.125Z" fill="#1E3A8A"/>
<path d="M26.7702 14.6887C26.7702 14.0877 26.283 13.6005 25.682 13.6005C25.081 13.6005 24.5938 14.0877 24.5938 14.6887C24.5938 15.2896 25.081 15.7769 25.682 15.7769C26.283 15.7769 26.7702 15.2896 26.7702 14.6887ZM28.2937 14.6887C28.2937 16.131 27.1244 17.3003 25.682 17.3003C24.2396 17.3003 23.0704 16.131 23.0704 14.6887C23.0704 13.2463 24.2397 12.077 25.682 12.077C27.1244 12.077 28.2937 13.2463 28.2937 14.6887Z" fill="#1E3A8A"/>
<path d="M25.0482 7.93864C24.458 8.16152 24.0175 8.68599 23.9119 9.32243H27.4522C27.3467 8.68606 26.9062 8.16169 26.3161 7.93874L26.8546 6.51359C28.1072 6.98685 28.9999 8.19734 28.9999 9.61819V10.8459H22.3642V9.61819C22.3642 8.19721 23.2572 6.98663 24.51 6.51349L25.0482 7.93864Z" fill="#1E3A8A"/>
<path d="M26.7703 5.61161C26.7703 5.01063 26.283 4.52344 25.6821 4.52344C25.0811 4.52344 24.5939 5.01063 24.5939 5.61161C24.5939 6.2126 25.0811 6.69983 25.6821 6.69984C26.283 6.69984 26.7703 6.2126 26.7703 5.61161ZM28.2937 5.61161C28.2937 7.05398 27.1244 8.22328 25.6821 8.22328C24.2397 8.22327 23.0704 7.05397 23.0704 5.61161C23.0704 4.16926 24.2397 3.00001 25.6821 3C27.1244 3 28.2937 4.16926 28.2937 5.61161Z" fill="#1E3A8A"/>
<path d="M25.0482 26.0928C24.458 26.3157 24.0175 26.8401 23.9119 27.4766H27.4522C27.3467 26.8402 26.9062 26.3158 26.3161 26.0929L26.8546 24.6677C28.1072 25.141 28.9999 26.3515 28.9999 27.7723V29H22.3642V27.7723C22.3642 26.3514 23.2572 25.1408 24.51 24.6676L25.0482 26.0928Z" fill="#1E3A8A"/>
<path d="M26.7703 23.7657C26.7703 23.1647 26.283 22.6775 25.6821 22.6775C25.0811 22.6775 24.5939 23.1647 24.5939 23.7657C24.5939 24.3667 25.0811 24.8539 25.6821 24.8539C26.283 24.8539 26.7703 24.3667 26.7703 23.7657ZM28.2937 23.7657C28.2937 25.2081 27.1244 26.3774 25.6821 26.3774C24.2397 26.3774 23.0704 25.2081 23.0704 23.7657C23.0704 22.3233 24.2397 21.1541 25.6821 21.1541C27.1244 21.1541 28.2937 22.3233 28.2937 23.7657Z" fill="#1E3A8A"/>
<path d="M24.125 15.7768V17.3002H17.0321V15.7768H24.125Z" fill="#1E3A8A"/>
<path d="M6.24758 17.5131C6.24758 15.7365 7.36381 14.2226 8.93055 13.6306L9.46901 15.0557C8.4755 15.4311 7.77102 16.3907 7.77102 17.5131V20.7685H13.0228V17.5131C13.0228 16.3907 12.3181 15.4308 11.3245 15.0555L11.8628 13.6304C13.4298 14.2222 14.5462 15.7363 14.5462 17.5131V22.2919H6.24758V17.5131Z" fill="#1E3A8A"/>
<path d="M12.0868 12.2033C12.0868 11.27 11.3303 10.5134 10.397 10.5134C9.46368 10.5134 8.70707 11.27 8.70707 12.2033C8.70708 13.1366 9.46369 13.8932 10.397 13.8932C11.3303 13.8932 12.0868 13.1366 12.0868 12.2033ZM13.6103 12.2033C13.6103 13.978 12.1716 15.4166 10.397 15.4166C8.62231 15.4166 7.18364 13.978 7.18363 12.2033C7.18363 10.4287 8.62231 8.99 10.397 8.99C12.1717 8.99001 13.6103 10.4287 13.6103 12.2033Z" fill="#1E3A8A"/>
<path d="M11.126 21.3095L9.66787 21.7508L7.6874 15.2065L9.14558 14.7652L11.126 21.3095Z" fill="#1E3A8A"/>
<path d="M13.1065 15.2065L11.126 21.7508L9.66787 21.3095L11.6483 14.7652L13.1065 15.2065Z" fill="#1E3A8A"/>
</svg>
