<svg width="32" height="32" viewBox="0 0 32 32" fill="none" xmlns="http://www.w3.org/2000/svg">
<mask id="mask0_1457_182867" style="mask-type:luminance" maskUnits="userSpaceOnUse" x="3" y="3" width="26" height="26">
<path d="M3 3H29V29H3V3Z" fill="white"/>
</mask>
<g mask="url(#mask0_1457_182867)">
<path d="M13.9023 14.832C13.9023 13.6455 14.8642 12.6836 16.0508 12.6836C17.2373 12.6836 18.1992 13.6455 18.1992 14.832H20.1992C20.1992 12.5409 18.3419 10.6836 16.0508 10.6836C13.7596 10.6836 11.9023 12.5409 11.9023 14.832H13.9023Z" fill="#1E3A8A"/>
<path d="M17.1328 9.65234C17.1328 10.2219 16.6711 10.6836 16.1016 10.6836C15.532 10.6836 15.0703 10.2219 15.0703 9.65234C15.0703 9.08282 15.532 8.62109 16.1016 8.62109C16.6711 8.62109 17.1328 9.08282 17.1328 9.65234ZM19.1328 9.65234C19.1328 7.97825 17.7757 6.62109 16.1016 6.62109C14.4275 6.62109 13.0703 7.97825 13.0703 9.65234C13.0703 11.3264 14.4275 12.6836 16.1016 12.6836C17.7757 12.6836 19.1328 11.3264 19.1328 9.65234Z" fill="#1E3A8A"/>
<path d="M22.5664 11.5313C22.5664 15.1297 19.6493 18.0469 16.0508 18.0469C12.4523 18.0469 9.53516 15.1297 9.53516 11.5313C9.53516 7.93278 12.4523 5.01563 16.0508 5.01563C19.6493 5.01563 22.5664 7.93278 22.5664 11.5313ZM24.5664 11.5313C24.5664 6.82821 20.7538 3.01563 16.0508 3.01563C11.3477 3.01563 7.53516 6.82821 7.53516 11.5313C7.53516 16.2343 11.3477 20.0469 16.0508 20.0469C20.7538 20.0469 24.5664 16.2343 24.5664 11.5313Z" fill="#1E3A8A"/>
<path d="M7.07812 25.9531C7.07812 26.5226 6.6164 26.9844 6.04688 26.9844C5.47735 26.9844 5.01562 26.5226 5.01562 25.9531C5.01562 25.3836 5.47735 24.9219 6.04688 24.9219C6.6164 24.9219 7.07812 25.3836 7.07812 25.9531ZM9.07812 25.9531C9.07812 24.279 7.72097 22.9219 6.04688 22.9219C4.37278 22.9219 3.01562 24.279 3.01562 25.9531C3.01562 27.6272 4.37278 28.9844 6.04688 28.9844C7.72097 28.9844 9.07812 27.6272 9.07812 25.9531Z" fill="#1E3A8A"/>
<path d="M17.0312 25.9531C17.0312 26.5227 16.5695 26.9844 16 26.9844C15.4305 26.9844 14.9688 26.5227 14.9688 25.9531C14.9688 25.3836 15.4305 24.9219 16 24.9219C16.5695 24.9219 17.0312 25.3836 17.0312 25.9531ZM19.0312 25.9531C19.0312 24.279 17.6741 22.9219 16 22.9219C14.3259 22.9219 12.9688 24.279 12.9688 25.9531C12.9688 27.6272 14.3259 28.9844 16 28.9844C17.6741 28.9844 19.0312 27.6272 19.0312 25.9531Z" fill="#1E3A8A"/>
<path d="M26.9844 25.9531C26.9844 26.5227 26.5226 26.9844 25.9531 26.9844C25.3836 26.9844 24.9219 26.5227 24.9219 25.9531C24.9219 25.3836 25.3836 24.9219 25.9531 24.9219C26.5226 24.9219 26.9844 25.3836 26.9844 25.9531ZM28.9844 25.9531C28.9844 24.279 27.6272 22.9219 25.9531 22.9219C24.279 22.9219 22.9219 24.279 22.9219 25.9531C22.9219 27.6272 24.279 28.9844 25.9531 28.9844C27.6272 28.9844 28.9844 27.6272 28.9844 25.9531Z" fill="#1E3A8A"/>
<path d="M17.0508 23.9218V19.0468H15.0508V23.9218H17.0508Z" fill="#1E3A8A"/>
<path d="M12.4971 18.3984L10.8545 17.2578L6.44434 23.6055L8.08691 24.7461L12.4971 18.3984Z" fill="#1E3A8A"/>
<path d="M25.6621 23.7617L21.2686 17.3633L19.6201 18.4961L24.0137 24.8945L25.6621 23.7617Z" fill="#1E3A8A"/>
</g>
</svg>
