<svg width="24" height="24" viewBox="0 0 24 24" fill="none" xmlns="http://www.w3.org/2000/svg">
<path d="M0 16.1752C0.241083 15.0535 0.958698 13.948 2.06267 13.5511C2.09586 13.5129 1.88295 13.2688 1.83787 13.1905C0.340648 10.6221 2.85418 7.63808 5.62444 8.7492C7.94949 9.68191 8.18431 12.994 6.00016 14.2078C6.25189 14.4951 6.5105 14.7968 6.68208 15.1424C6.77726 15.3345 7.03149 16.015 7.03149 16.199V16.9721C7.88249 17.0616 9.0616 16.8062 9.85561 17.0773C10.9734 17.4585 11.5031 18.6729 11.1562 19.7834H12.8438C12.6484 19.1255 12.7217 18.4388 13.1049 17.8654C13.9803 16.5564 15.6341 17.0716 16.9685 16.9715V16.1984C16.9685 16.015 17.2227 15.3339 17.3179 15.1417C17.4807 14.8143 17.7381 14.4832 17.9992 14.2297C15.8057 12.9614 16.0461 9.62495 18.4438 8.72291C21.2141 7.68065 23.6562 10.6697 22.144 13.2187C22.1001 13.2926 21.9016 13.5098 21.9367 13.5505C23.0588 13.9624 23.8378 15.1179 23.9981 16.2929L24 23.4153C23.9643 23.7102 23.7577 23.8541 23.5304 24H0V16.1746V16.1752ZM4.43719 9.9611C2.30125 9.98363 2.3551 13.2268 4.46849 13.2049C6.58189 13.183 6.55434 9.93919 4.43719 9.9611ZM19.5303 9.9611C17.3943 9.98363 17.4482 13.2268 19.5616 13.2049C21.675 13.183 21.6474 9.93919 19.5303 9.9611ZM5.62444 21.1887C4.68203 21.1343 3.76528 20.4375 3.43215 19.5618C3.19295 18.9333 3.1034 17.8403 4.05646 17.9061C4.73337 17.953 4.63068 18.5383 4.76594 18.9777C4.92624 19.5004 5.41968 19.7396 5.93002 19.7821C6.73781 19.8491 8.21938 19.8535 9.02466 19.7846C10.0929 19.6926 10.0748 18.4788 9.06912 18.3781C8.17304 18.2879 7.0891 18.4845 6.2093 18.3781C5.43408 18.2848 5.65826 17.3821 5.62632 16.8519C5.43972 13.7201 1.4058 14.2165 1.4058 16.7136V22.594H5.62444V21.1881V21.1887ZM22.593 22.5947V16.7142C22.593 14.2115 18.559 13.727 18.3724 16.8525C18.3411 17.3827 18.5647 18.2854 17.7894 18.3787C16.9103 18.4845 15.8257 18.2885 14.9296 18.3787C13.924 18.4795 13.9058 19.6939 14.9741 19.7853C15.7794 19.8541 17.2609 19.8497 18.0687 19.7828C18.5791 19.7402 19.0719 19.5011 19.2328 18.9784C19.3681 18.5383 19.2654 17.9536 19.9423 17.9067C20.8559 17.8435 20.8033 18.8275 20.5985 19.4535C20.2898 20.3975 19.3699 21.1261 18.3737 21.1893V22.5953H22.5923L22.593 22.5947ZM16.9679 21.1887H7.03087V22.5947H16.9679V21.1887Z" fill="#1E3A8A"/>
<path d="M11.3804 0.0236321C15.2102 -0.315024 18.2046 3.03711 17.2252 6.80364C16.0111 11.4741 9.57821 12.2484 7.25692 8.00678C5.44347 4.69158 7.58254 0.359158 11.3804 0.0236321ZM11.944 1.42583C8.81864 1.47278 6.972 4.98454 8.69904 7.59614C10.3334 10.0669 14.0523 9.89662 15.4757 7.3038C16.9266 4.66153 14.9591 1.38076 11.944 1.42583Z" fill="#1E3A8A"/>
<path d="M13.7217 3.44149C14.4919 3.31505 14.8307 4.12069 14.3441 4.71975C13.8319 5.35137 12.4211 6.76108 11.7893 7.27376C11.4825 7.52227 11.1412 7.62556 10.7836 7.38643C10.6227 7.27877 9.32084 5.96107 9.25447 5.82273C9.08978 5.47969 9.18684 5.02335 9.54627 4.84369C10.2764 4.48 10.7436 5.37766 11.2257 5.77203L13.4042 3.59298C13.4869 3.51724 13.6121 3.45965 13.7211 3.44149H13.7217Z" fill="#1E3A8A"/>
</svg>
