<svg width="25" height="25" viewBox="0 0 25 25" fill="none" xmlns="http://www.w3.org/2000/svg">
<mask id="path-1-outside-1_25089_126929" maskUnits="userSpaceOnUse" x="-0.859375" y="-0.859375" width="26" height="26" fill="black">
<rect fill="white" x="-0.859375" y="-0.859375" width="26" height="26"/>
<path d="M7.90529 23.4373H8.61129V21.0021H0.140625V20.2526H0.846618V16.9977C0.846618 16.875 1.05282 16.3301 1.12072 16.193C1.43694 15.558 2.1643 14.9141 2.8703 14.7721C2.58363 14.4505 2.30387 14.0162 2.25923 13.5776C2.1027 12.0453 2.58425 10.354 4.44888 10.4147C6.21606 10.4723 6.68694 12.1348 6.48953 13.6214C6.43484 14.0313 6.14628 14.4649 5.88161 14.7721C6.58635 14.916 7.31875 15.5561 7.63119 16.193C7.69972 16.3326 7.90529 16.8719 7.90529 16.9977V20.2526H8.61129C8.77411 19.1951 9.51657 18.204 10.5878 17.9575C10.4646 17.6897 10.2647 17.4745 10.1559 17.1935C9.92269 16.5922 9.94846 15.3164 10.2408 14.732C11.0411 13.1353 13.4395 13.2347 14.1102 14.8966C14.3303 15.4409 14.3372 16.6473 14.1253 17.1935C14.0166 17.4745 13.8167 17.6903 13.6934 17.9575C14.7647 18.204 15.5071 19.1951 15.67 20.2526H16.376V16.9977C16.376 16.875 16.5822 16.3301 16.6501 16.193C16.9663 15.558 17.6936 14.9141 18.3996 14.7721C18.113 14.4505 17.8332 14.0162 17.7886 13.5776C17.632 12.0453 18.1136 10.354 19.9782 10.4147C21.7454 10.4723 22.2163 12.1348 22.0189 13.6214C21.9642 14.0313 21.6756 14.4649 21.4109 14.7721C22.1157 14.916 22.8481 15.5561 23.1605 16.193C23.2291 16.3326 23.4346 16.8719 23.4346 16.9977V20.2526H24.1406V21.0021H15.67V23.4373H16.376V24.14H13.176V23.4373H14.964V20.6036C14.964 19.884 14.4183 19.0568 13.7726 18.7452C13.0604 18.4011 11.1228 18.4193 10.4218 18.7997C9.81581 19.1282 9.31728 19.9097 9.31728 20.6042V23.438H11.1052V24.1406H7.90529V23.4373ZM4.12826 11.1775C2.55282 11.4252 2.53648 14.3253 4.09117 14.6107C6.36569 15.028 6.39398 10.8208 4.12826 11.1775ZM19.6576 11.1775C18.0822 11.4252 18.0658 14.3253 19.6205 14.6107C21.895 15.028 21.9233 10.8208 19.6576 11.1775ZM12.1249 14.3222C10.3156 14.3429 10.2515 17.4025 11.7993 17.7579C14.0046 18.2635 14.2127 14.2984 12.1249 14.3222ZM7.1993 20.2526V17.4188C7.1993 16.5703 6.49519 15.6862 5.68421 15.461C5.20328 15.3271 3.58949 15.3239 3.10416 15.451C2.27684 15.6675 1.55198 16.5541 1.55198 17.4188V20.2526H7.1993ZM22.7286 20.2526V17.4188C22.7286 16.5703 22.0245 15.6862 21.2135 15.461C20.7326 15.3271 19.1188 15.3239 18.6335 15.451C17.8062 15.6675 17.0813 16.5541 17.0813 17.4188V20.2526H22.7286Z"/>
<path d="M12.5172 23.4373H11.7641V24.14H12.5172V23.4373Z"/>
<path d="M18.2582 4.70276H22.0226V8.26234H18.2582C17.6169 10.4723 15.7322 12.2324 13.4589 12.6885C10.1584 13.3505 6.97424 11.4515 6.02306 8.26234H2.2586V4.70276H6.02306C6.60521 2.67613 8.26175 1.0049 10.2955 0.407356C13.7167 -0.598137 17.2599 1.32713 18.2582 4.70276ZM12.0853 0.873499C7.62176 0.920426 4.97256 5.94476 7.491 9.63574C9.73911 12.9313 14.705 12.8762 16.8663 9.52312C19.2779 5.78146 16.5419 0.826572 12.0853 0.873499ZM5.83446 5.45234H2.96397V7.51338H5.83446V5.45234ZM21.3167 5.45234H18.4462V7.51338H21.3167V5.45234Z"/>
<path d="M8.62763 9.97925C6.82587 8.18601 6.67499 5.1495 8.39943 3.25239L8.92939 3.74231C8.44783 4.35862 8.07818 5.08068 7.96565 5.86342C7.4514 9.43865 11.4057 11.9715 14.461 9.98676C16.5715 8.61586 16.9858 5.64881 15.3393 3.74482C13.8204 1.98849 11.1656 1.81705 9.38706 3.28681L8.89482 2.75935C11.6459 0.317881 16.1729 1.76824 16.9738 5.3491C18.0633 10.2201 12.1274 13.4619 8.62763 9.97925Z"/>
<path d="M11.1354 4.00386C11.2309 3.98696 11.9659 4.83228 12.1237 4.93364L13.1459 4.00386L14.6314 5.48237C14.6484 5.57748 13.799 6.30892 13.6972 6.46597L14.6314 7.48335L13.1459 8.96187C13.0503 8.97876 12.3154 8.13345 12.1576 8.03208L11.1354 8.96187L9.64984 7.48335C9.63287 7.38824 10.4822 6.65681 10.584 6.49976L9.64984 5.48237L11.1354 4.00386ZM11.1285 5.03187L10.6821 5.47612C10.7965 5.62566 11.6823 6.40966 11.666 6.50038L10.6821 7.49023L11.1285 7.93448C11.2787 7.8206 12.0664 6.93899 12.1576 6.95526L13.1521 7.93448L13.5985 7.49023C13.4841 7.34069 12.5983 6.55669 12.6146 6.46597L13.5985 5.47612L13.1521 5.03187C13.0019 5.14575 12.2142 6.02736 12.123 6.01109L11.1285 5.03187Z"/>
<path d="M4.37596 6.10807H3.66996V6.85765H4.37596V6.10807Z"/>
<path d="M20.6113 6.10807H19.9053V6.85765H20.6113V6.10807Z"/>
</mask>
<path d="M7.90529 23.4373H8.61129V21.0021H0.140625V20.2526H0.846618V16.9977C0.846618 16.875 1.05282 16.3301 1.12072 16.193C1.43694 15.558 2.1643 14.9141 2.8703 14.7721C2.58363 14.4505 2.30387 14.0162 2.25923 13.5776C2.1027 12.0453 2.58425 10.354 4.44888 10.4147C6.21606 10.4723 6.68694 12.1348 6.48953 13.6214C6.43484 14.0313 6.14628 14.4649 5.88161 14.7721C6.58635 14.916 7.31875 15.5561 7.63119 16.193C7.69972 16.3326 7.90529 16.8719 7.90529 16.9977V20.2526H8.61129C8.77411 19.1951 9.51657 18.204 10.5878 17.9575C10.4646 17.6897 10.2647 17.4745 10.1559 17.1935C9.92269 16.5922 9.94846 15.3164 10.2408 14.732C11.0411 13.1353 13.4395 13.2347 14.1102 14.8966C14.3303 15.4409 14.3372 16.6473 14.1253 17.1935C14.0166 17.4745 13.8167 17.6903 13.6934 17.9575C14.7647 18.204 15.5071 19.1951 15.67 20.2526H16.376V16.9977C16.376 16.875 16.5822 16.3301 16.6501 16.193C16.9663 15.558 17.6936 14.9141 18.3996 14.7721C18.113 14.4505 17.8332 14.0162 17.7886 13.5776C17.632 12.0453 18.1136 10.354 19.9782 10.4147C21.7454 10.4723 22.2163 12.1348 22.0189 13.6214C21.9642 14.0313 21.6756 14.4649 21.4109 14.7721C22.1157 14.916 22.8481 15.5561 23.1605 16.193C23.2291 16.3326 23.4346 16.8719 23.4346 16.9977V20.2526H24.1406V21.0021H15.67V23.4373H16.376V24.14H13.176V23.4373H14.964V20.6036C14.964 19.884 14.4183 19.0568 13.7726 18.7452C13.0604 18.4011 11.1228 18.4193 10.4218 18.7997C9.81581 19.1282 9.31728 19.9097 9.31728 20.6042V23.438H11.1052V24.1406H7.90529V23.4373ZM4.12826 11.1775C2.55282 11.4252 2.53648 14.3253 4.09117 14.6107C6.36569 15.028 6.39398 10.8208 4.12826 11.1775ZM19.6576 11.1775C18.0822 11.4252 18.0658 14.3253 19.6205 14.6107C21.895 15.028 21.9233 10.8208 19.6576 11.1775ZM12.1249 14.3222C10.3156 14.3429 10.2515 17.4025 11.7993 17.7579C14.0046 18.2635 14.2127 14.2984 12.1249 14.3222ZM7.1993 20.2526V17.4188C7.1993 16.5703 6.49519 15.6862 5.68421 15.461C5.20328 15.3271 3.58949 15.3239 3.10416 15.451C2.27684 15.6675 1.55198 16.5541 1.55198 17.4188V20.2526H7.1993ZM22.7286 20.2526V17.4188C22.7286 16.5703 22.0245 15.6862 21.2135 15.461C20.7326 15.3271 19.1188 15.3239 18.6335 15.451C17.8062 15.6675 17.0813 16.5541 17.0813 17.4188V20.2526H22.7286Z" fill="#1E3A8A"/>
<path d="M12.5172 23.4373H11.7641V24.14H12.5172V23.4373Z" fill="#1E3A8A"/>
<path d="M18.2582 4.70276H22.0226V8.26234H18.2582C17.6169 10.4723 15.7322 12.2324 13.4589 12.6885C10.1584 13.3505 6.97424 11.4515 6.02306 8.26234H2.2586V4.70276H6.02306C6.60521 2.67613 8.26175 1.0049 10.2955 0.407356C13.7167 -0.598137 17.2599 1.32713 18.2582 4.70276ZM12.0853 0.873499C7.62176 0.920426 4.97256 5.94476 7.491 9.63574C9.73911 12.9313 14.705 12.8762 16.8663 9.52312C19.2779 5.78146 16.5419 0.826572 12.0853 0.873499ZM5.83446 5.45234H2.96397V7.51338H5.83446V5.45234ZM21.3167 5.45234H18.4462V7.51338H21.3167V5.45234Z" fill="#1E3A8A"/>
<path d="M8.62763 9.97925C6.82587 8.18601 6.67499 5.1495 8.39943 3.25239L8.92939 3.74231C8.44783 4.35862 8.07818 5.08068 7.96565 5.86342C7.4514 9.43865 11.4057 11.9715 14.461 9.98676C16.5715 8.61586 16.9858 5.64881 15.3393 3.74482C13.8204 1.98849 11.1656 1.81705 9.38706 3.28681L8.89482 2.75935C11.6459 0.317881 16.1729 1.76824 16.9738 5.3491C18.0633 10.2201 12.1274 13.4619 8.62763 9.97925Z" fill="#1E3A8A"/>
<path d="M11.1354 4.00386C11.2309 3.98696 11.9659 4.83228 12.1237 4.93364L13.1459 4.00386L14.6314 5.48237C14.6484 5.57748 13.799 6.30892 13.6972 6.46597L14.6314 7.48335L13.1459 8.96187C13.0503 8.97876 12.3154 8.13345 12.1576 8.03208L11.1354 8.96187L9.64984 7.48335C9.63287 7.38824 10.4822 6.65681 10.584 6.49976L9.64984 5.48237L11.1354 4.00386ZM11.1285 5.03187L10.6821 5.47612C10.7965 5.62566 11.6823 6.40966 11.666 6.50038L10.6821 7.49023L11.1285 7.93448C11.2787 7.8206 12.0664 6.93899 12.1576 6.95526L13.1521 7.93448L13.5985 7.49023C13.4841 7.34069 12.5983 6.55669 12.6146 6.46597L13.5985 5.47612L13.1521 5.03187C13.0019 5.14575 12.2142 6.02736 12.123 6.01109L11.1285 5.03187Z" fill="#1E3A8A"/>
<path d="M4.37596 6.10807H3.66996V6.85765H4.37596V6.10807Z" fill="#1E3A8A"/>
<path d="M20.6113 6.10807H19.9053V6.85765H20.6113V6.10807Z" fill="#1E3A8A"/>
<path d="M7.90529 23.4373H8.61129V21.0021H0.140625V20.2526H0.846618V16.9977C0.846618 16.875 1.05282 16.3301 1.12072 16.193C1.43694 15.558 2.1643 14.9141 2.8703 14.7721C2.58363 14.4505 2.30387 14.0162 2.25923 13.5776C2.1027 12.0453 2.58425 10.354 4.44888 10.4147C6.21606 10.4723 6.68694 12.1348 6.48953 13.6214C6.43484 14.0313 6.14628 14.4649 5.88161 14.7721C6.58635 14.916 7.31875 15.5561 7.63119 16.193C7.69972 16.3326 7.90529 16.8719 7.90529 16.9977V20.2526H8.61129C8.77411 19.1951 9.51657 18.204 10.5878 17.9575C10.4646 17.6897 10.2647 17.4745 10.1559 17.1935C9.92269 16.5922 9.94846 15.3164 10.2408 14.732C11.0411 13.1353 13.4395 13.2347 14.1102 14.8966C14.3303 15.4409 14.3372 16.6473 14.1253 17.1935C14.0166 17.4745 13.8167 17.6903 13.6934 17.9575C14.7647 18.204 15.5071 19.1951 15.67 20.2526H16.376V16.9977C16.376 16.875 16.5822 16.3301 16.6501 16.193C16.9663 15.558 17.6936 14.9141 18.3996 14.7721C18.113 14.4505 17.8332 14.0162 17.7886 13.5776C17.632 12.0453 18.1136 10.354 19.9782 10.4147C21.7454 10.4723 22.2163 12.1348 22.0189 13.6214C21.9642 14.0313 21.6756 14.4649 21.4109 14.7721C22.1157 14.916 22.8481 15.5561 23.1605 16.193C23.2291 16.3326 23.4346 16.8719 23.4346 16.9977V20.2526H24.1406V21.0021H15.67V23.4373H16.376V24.14H13.176V23.4373H14.964V20.6036C14.964 19.884 14.4183 19.0568 13.7726 18.7452C13.0604 18.4011 11.1228 18.4193 10.4218 18.7997C9.81581 19.1282 9.31728 19.9097 9.31728 20.6042V23.438H11.1052V24.1406H7.90529V23.4373ZM4.12826 11.1775C2.55282 11.4252 2.53648 14.3253 4.09117 14.6107C6.36569 15.028 6.39398 10.8208 4.12826 11.1775ZM19.6576 11.1775C18.0822 11.4252 18.0658 14.3253 19.6205 14.6107C21.895 15.028 21.9233 10.8208 19.6576 11.1775ZM12.1249 14.3222C10.3156 14.3429 10.2515 17.4025 11.7993 17.7579C14.0046 18.2635 14.2127 14.2984 12.1249 14.3222ZM7.1993 20.2526V17.4188C7.1993 16.5703 6.49519 15.6862 5.68421 15.461C5.20328 15.3271 3.58949 15.3239 3.10416 15.451C2.27684 15.6675 1.55198 16.5541 1.55198 17.4188V20.2526H7.1993ZM22.7286 20.2526V17.4188C22.7286 16.5703 22.0245 15.6862 21.2135 15.461C20.7326 15.3271 19.1188 15.3239 18.6335 15.451C17.8062 15.6675 17.0813 16.5541 17.0813 17.4188V20.2526H22.7286Z" stroke="#1E3A8A" stroke-width="0.28" mask="url(#path-1-outside-1_25089_126929)"/>
<path d="M12.5172 23.4373H11.7641V24.14H12.5172V23.4373Z" stroke="#1E3A8A" stroke-width="0.28" mask="url(#path-1-outside-1_25089_126929)"/>
<path d="M18.2582 4.70276H22.0226V8.26234H18.2582C17.6169 10.4723 15.7322 12.2324 13.4589 12.6885C10.1584 13.3505 6.97424 11.4515 6.02306 8.26234H2.2586V4.70276H6.02306C6.60521 2.67613 8.26175 1.0049 10.2955 0.407356C13.7167 -0.598137 17.2599 1.32713 18.2582 4.70276ZM12.0853 0.873499C7.62176 0.920426 4.97256 5.94476 7.491 9.63574C9.73911 12.9313 14.705 12.8762 16.8663 9.52312C19.2779 5.78146 16.5419 0.826572 12.0853 0.873499ZM5.83446 5.45234H2.96397V7.51338H5.83446V5.45234ZM21.3167 5.45234H18.4462V7.51338H21.3167V5.45234Z" stroke="#1E3A8A" stroke-width="0.28" mask="url(#path-1-outside-1_25089_126929)"/>
<path d="M8.62763 9.97925C6.82587 8.18601 6.67499 5.1495 8.39943 3.25239L8.92939 3.74231C8.44783 4.35862 8.07818 5.08068 7.96565 5.86342C7.4514 9.43865 11.4057 11.9715 14.461 9.98676C16.5715 8.61586 16.9858 5.64881 15.3393 3.74482C13.8204 1.98849 11.1656 1.81705 9.38706 3.28681L8.89482 2.75935C11.6459 0.317881 16.1729 1.76824 16.9738 5.3491C18.0633 10.2201 12.1274 13.4619 8.62763 9.97925Z" stroke="#1E3A8A" stroke-width="0.28" mask="url(#path-1-outside-1_25089_126929)"/>
<path d="M11.1354 4.00386C11.2309 3.98696 11.9659 4.83228 12.1237 4.93364L13.1459 4.00386L14.6314 5.48237C14.6484 5.57748 13.799 6.30892 13.6972 6.46597L14.6314 7.48335L13.1459 8.96187C13.0503 8.97876 12.3154 8.13345 12.1576 8.03208L11.1354 8.96187L9.64984 7.48335C9.63287 7.38824 10.4822 6.65681 10.584 6.49976L9.64984 5.48237L11.1354 4.00386ZM11.1285 5.03187L10.6821 5.47612C10.7965 5.62566 11.6823 6.40966 11.666 6.50038L10.6821 7.49023L11.1285 7.93448C11.2787 7.8206 12.0664 6.93899 12.1576 6.95526L13.1521 7.93448L13.5985 7.49023C13.4841 7.34069 12.5983 6.55669 12.6146 6.46597L13.5985 5.47612L13.1521 5.03187C13.0019 5.14575 12.2142 6.02736 12.123 6.01109L11.1285 5.03187Z" stroke="#1E3A8A" stroke-width="0.28" mask="url(#path-1-outside-1_25089_126929)"/>
<path d="M4.37596 6.10807H3.66996V6.85765H4.37596V6.10807Z" stroke="#1E3A8A" stroke-width="0.28" mask="url(#path-1-outside-1_25089_126929)"/>
<path d="M20.6113 6.10807H19.9053V6.85765H20.6113V6.10807Z" stroke="#1E3A8A" stroke-width="0.28" mask="url(#path-1-outside-1_25089_126929)"/>
</svg>
