<svg width="24" height="24" viewBox="0 0 24 24" fill="none" xmlns="http://www.w3.org/2000/svg">
<path fill-rule="evenodd" clip-rule="evenodd" d="M10.4 1.6C8.19083 1.6 6.39997 3.39086 6.39997 5.6C6.39997 7.80914 8.19083 9.6 10.4 9.6C12.6092 9.6 14.4 7.80914 14.4 5.6C14.4 3.39086 12.6092 1.6 10.4 1.6ZM4.79997 5.6C4.79997 2.50721 7.30718 0 10.4 0C13.4928 0 16 2.50721 16 5.6C16 8.6928 13.4928 11.2 10.4 11.2C7.30718 11.2 4.79997 8.6928 4.79997 5.6Z" fill="#1E3A8A"/>
<path fill-rule="evenodd" clip-rule="evenodd" d="M13.9792 14.6454C9.84711 13.8339 5.50291 14.4415 1.68924 16.4682C1.63433 16.4973 1.6 16.5545 1.6 16.6166V20.5332C1.6 20.6805 1.71939 20.7999 1.86667 20.7999H13.8479C14.2897 20.7999 14.6479 21.1581 14.6479 21.5999C14.6479 22.0418 14.2897 22.3999 13.8479 22.3999H1.86667C0.835735 22.3999 0 21.5642 0 20.5332V16.6166C0 15.9627 0.36095 15.3621 0.938423 15.0553C5.08102 12.8539 9.79976 12.194 14.2875 13.0755C14.7211 13.1606 15.0035 13.5811 14.9183 14.0146C14.8332 14.4482 14.4127 14.7307 13.9792 14.6454Z" fill="#1E3A8A"/>
<path fill-rule="evenodd" clip-rule="evenodd" d="M17.8667 13.3333C15.363 13.3333 13.3333 15.363 13.3333 17.8667C13.3333 20.3703 15.363 22.4 17.8667 22.4C20.3703 22.4 22.4 20.3703 22.4 17.8667C22.4 15.363 20.3703 13.3333 17.8667 13.3333ZM11.7333 17.8667C11.7333 14.4794 14.4793 11.7333 17.8667 11.7333C21.254 11.7333 24 14.4794 24 17.8667C24 21.254 21.254 24 17.8667 24C14.4793 24 11.7333 21.254 11.7333 17.8667Z" fill="#1E3A8A"/>
<path fill-rule="evenodd" clip-rule="evenodd" d="M20.5656 16.4497C20.2532 16.1373 19.7468 16.1373 19.4343 16.4497L17.301 18.583C16.9886 18.8955 16.9886 19.4019 17.301 19.7143C17.6134 20.0268 18.1199 20.0268 18.4323 19.7143L20.5656 17.581C20.8781 17.2686 20.8781 16.7621 20.5656 16.4497Z" fill="#1E3A8A"/>
<path fill-rule="evenodd" clip-rule="evenodd" d="M18.4323 19.7143C18.1199 20.0268 17.6134 20.0268 17.301 19.7143L15.1677 17.581C14.8552 17.2686 14.8552 16.7621 15.1677 16.4497C15.4801 16.1373 15.9865 16.1373 16.299 16.4497L18.4323 18.583C18.7447 18.8955 18.7447 19.4019 18.4323 19.7143Z" fill="#1E3A8A"/>
</svg>
